G04 #@! TF.GenerationSoftware,KiCad,Pcbnew,(5.0.2)-1*
G04 #@! TF.CreationDate,2019-05-04T17:06:02+02:00*
G04 #@! TF.ProjectId,Cowbell_mini,436f7762-656c-46c5-9f6d-696e692e6b69,v0.4*
G04 #@! TF.SameCoordinates,Original*
G04 #@! TF.FileFunction,Soldermask,Bot*
G04 #@! TF.FilePolarity,Negative*
%FSLAX46Y46*%
G04 Gerber Fmt 4.6, Leading zero omitted, Abs format (unit mm)*
G04 Created by KiCad (PCBNEW (5.0.2)-1) date 5/4/2019 5:06:02 PM*
%MOMM*%
%LPD*%
G01*
G04 APERTURE LIST*
%ADD10C,0.150000*%
G04 APERTURE END LIST*
D10*
G36*
X119577000Y-63034000D02*
X117377000Y-63034000D01*
X117377000Y-61984000D01*
X119577000Y-61984000D01*
X119577000Y-63034000D01*
X119577000Y-63034000D01*
G37*
G36*
X136290000Y-62484000D02*
X134290000Y-62484000D01*
X134290000Y-61784000D01*
X136290000Y-61784000D01*
X136290000Y-62484000D01*
X136290000Y-62484000D01*
G37*
G36*
X126590000Y-62484000D02*
X124590000Y-62484000D01*
X124590000Y-61784000D01*
X126590000Y-61784000D01*
X126590000Y-62484000D01*
X126590000Y-62484000D01*
G37*
G36*
X120527000Y-61534000D02*
X119477000Y-61534000D01*
X119477000Y-60534000D01*
X120527000Y-60534000D01*
X120527000Y-61534000D01*
X120527000Y-61534000D01*
G37*
G36*
X126590000Y-61384000D02*
X124590000Y-61384000D01*
X124590000Y-60684000D01*
X126590000Y-60684000D01*
X126590000Y-61384000D01*
X126590000Y-61384000D01*
G37*
G36*
X136290000Y-61384000D02*
X134290000Y-61384000D01*
X134290000Y-60684000D01*
X136290000Y-60684000D01*
X136290000Y-61384000D01*
X136290000Y-61384000D01*
G37*
G36*
X122817463Y-60395106D02*
X122833298Y-60399910D01*
X122847886Y-60407707D01*
X122860676Y-60418204D01*
X122871173Y-60430994D01*
X122878970Y-60445582D01*
X122883774Y-60461417D01*
X122886000Y-60484020D01*
X122886000Y-60891740D01*
X122883774Y-60914343D01*
X122878970Y-60930178D01*
X122871173Y-60944766D01*
X122860676Y-60957556D01*
X122847886Y-60968053D01*
X122833298Y-60975850D01*
X122817463Y-60980654D01*
X122794860Y-60982880D01*
X122337140Y-60982880D01*
X122314537Y-60980654D01*
X122298702Y-60975850D01*
X122284114Y-60968053D01*
X122271324Y-60957556D01*
X122260827Y-60944766D01*
X122253030Y-60930178D01*
X122248226Y-60914343D01*
X122246000Y-60891740D01*
X122246000Y-60484020D01*
X122248226Y-60461417D01*
X122253030Y-60445582D01*
X122260827Y-60430994D01*
X122271324Y-60418204D01*
X122284114Y-60407707D01*
X122298702Y-60399910D01*
X122314537Y-60395106D01*
X122337140Y-60392880D01*
X122794860Y-60392880D01*
X122817463Y-60395106D01*
X122817463Y-60395106D01*
G37*
G36*
X136290000Y-60284000D02*
X134290000Y-60284000D01*
X134290000Y-59584000D01*
X136290000Y-59584000D01*
X136290000Y-60284000D01*
X136290000Y-60284000D01*
G37*
G36*
X126590000Y-60284000D02*
X124590000Y-60284000D01*
X124590000Y-59584000D01*
X126590000Y-59584000D01*
X126590000Y-60284000D01*
X126590000Y-60284000D01*
G37*
G36*
X119577000Y-60084000D02*
X117377000Y-60084000D01*
X117377000Y-59034000D01*
X119577000Y-59034000D01*
X119577000Y-60084000D01*
X119577000Y-60084000D01*
G37*
G36*
X122817463Y-59425106D02*
X122833298Y-59429910D01*
X122847886Y-59437707D01*
X122860676Y-59448204D01*
X122871173Y-59460994D01*
X122878970Y-59475582D01*
X122883774Y-59491417D01*
X122886000Y-59514020D01*
X122886000Y-59921740D01*
X122883774Y-59944343D01*
X122878970Y-59960178D01*
X122871173Y-59974766D01*
X122860676Y-59987556D01*
X122847886Y-59998053D01*
X122833298Y-60005850D01*
X122817463Y-60010654D01*
X122794860Y-60012880D01*
X122337140Y-60012880D01*
X122314537Y-60010654D01*
X122298702Y-60005850D01*
X122284114Y-59998053D01*
X122271324Y-59987556D01*
X122260827Y-59974766D01*
X122253030Y-59960178D01*
X122248226Y-59944343D01*
X122246000Y-59921740D01*
X122246000Y-59514020D01*
X122248226Y-59491417D01*
X122253030Y-59475582D01*
X122260827Y-59460994D01*
X122271324Y-59448204D01*
X122284114Y-59437707D01*
X122298702Y-59429910D01*
X122314537Y-59425106D01*
X122337140Y-59422880D01*
X122794860Y-59422880D01*
X122817463Y-59425106D01*
X122817463Y-59425106D01*
G37*
G36*
X136290000Y-59184000D02*
X134290000Y-59184000D01*
X134290000Y-58484000D01*
X136290000Y-58484000D01*
X136290000Y-59184000D01*
X136290000Y-59184000D01*
G37*
G36*
X126590000Y-59184000D02*
X124590000Y-59184000D01*
X124590000Y-58484000D01*
X126590000Y-58484000D01*
X126590000Y-59184000D01*
X126590000Y-59184000D01*
G37*
G36*
X123662024Y-57833955D02*
X123694736Y-57843879D01*
X123724890Y-57859997D01*
X123751316Y-57881684D01*
X123773003Y-57908110D01*
X123789121Y-57938264D01*
X123799045Y-57970976D01*
X123803000Y-58011138D01*
X123803000Y-58698862D01*
X123799045Y-58739024D01*
X123789121Y-58771736D01*
X123773003Y-58801890D01*
X123751316Y-58828316D01*
X123724890Y-58850003D01*
X123694736Y-58866121D01*
X123662024Y-58876045D01*
X123621862Y-58880000D01*
X123034138Y-58880000D01*
X122993976Y-58876045D01*
X122961264Y-58866121D01*
X122931110Y-58850003D01*
X122904684Y-58828316D01*
X122882997Y-58801890D01*
X122866879Y-58771736D01*
X122856955Y-58739024D01*
X122853000Y-58698862D01*
X122853000Y-58011138D01*
X122856955Y-57970976D01*
X122866879Y-57938264D01*
X122882997Y-57908110D01*
X122904684Y-57881684D01*
X122931110Y-57859997D01*
X122961264Y-57843879D01*
X122993976Y-57833955D01*
X123034138Y-57830000D01*
X123621862Y-57830000D01*
X123662024Y-57833955D01*
X123662024Y-57833955D01*
G37*
G36*
X136290000Y-58084000D02*
X134290000Y-58084000D01*
X134290000Y-57384000D01*
X136290000Y-57384000D01*
X136290000Y-58084000D01*
X136290000Y-58084000D01*
G37*
G36*
X126590000Y-58084000D02*
X124590000Y-58084000D01*
X124590000Y-57384000D01*
X126590000Y-57384000D01*
X126590000Y-58084000D01*
X126590000Y-58084000D01*
G37*
G36*
X123662024Y-56083955D02*
X123694736Y-56093879D01*
X123724890Y-56109997D01*
X123751316Y-56131684D01*
X123773003Y-56158110D01*
X123789121Y-56188264D01*
X123799045Y-56220976D01*
X123803000Y-56261138D01*
X123803000Y-56948862D01*
X123799045Y-56989024D01*
X123789121Y-57021736D01*
X123773003Y-57051890D01*
X123751316Y-57078316D01*
X123724890Y-57100003D01*
X123694736Y-57116121D01*
X123662024Y-57126045D01*
X123621862Y-57130000D01*
X123034138Y-57130000D01*
X122993976Y-57126045D01*
X122961264Y-57116121D01*
X122931110Y-57100003D01*
X122904684Y-57078316D01*
X122882997Y-57051890D01*
X122866879Y-57021736D01*
X122856955Y-56989024D01*
X122853000Y-56948862D01*
X122853000Y-56261138D01*
X122856955Y-56220976D01*
X122866879Y-56188264D01*
X122882997Y-56158110D01*
X122904684Y-56131684D01*
X122931110Y-56109997D01*
X122961264Y-56093879D01*
X122993976Y-56083955D01*
X123034138Y-56080000D01*
X123621862Y-56080000D01*
X123662024Y-56083955D01*
X123662024Y-56083955D01*
G37*
G36*
X136290000Y-56984000D02*
X134290000Y-56984000D01*
X134290000Y-56284000D01*
X136290000Y-56284000D01*
X136290000Y-56984000D01*
X136290000Y-56984000D01*
G37*
G36*
X126590000Y-56984000D02*
X124590000Y-56984000D01*
X124590000Y-56284000D01*
X126590000Y-56284000D01*
X126590000Y-56984000D01*
X126590000Y-56984000D01*
G37*
G36*
X126590000Y-55884000D02*
X124590000Y-55884000D01*
X124590000Y-55184000D01*
X126590000Y-55184000D01*
X126590000Y-55884000D01*
X126590000Y-55884000D01*
G37*
G36*
X136290000Y-55884000D02*
X134290000Y-55884000D01*
X134290000Y-55184000D01*
X136290000Y-55184000D01*
X136290000Y-55884000D01*
X136290000Y-55884000D01*
G37*
G36*
X118889621Y-53694682D02*
X119002721Y-53728990D01*
X119106955Y-53784704D01*
X119198317Y-53859683D01*
X119273296Y-53951045D01*
X119329010Y-54055279D01*
X119363318Y-54168379D01*
X119372000Y-54256526D01*
X119372000Y-55115474D01*
X119363318Y-55203621D01*
X119329010Y-55316721D01*
X119273296Y-55420955D01*
X119198317Y-55512317D01*
X119106954Y-55587296D01*
X119002720Y-55643010D01*
X118889620Y-55677318D01*
X118772000Y-55688903D01*
X118654379Y-55677318D01*
X118541279Y-55643010D01*
X118437045Y-55587296D01*
X118345683Y-55512317D01*
X118270704Y-55420954D01*
X118214990Y-55316720D01*
X118180682Y-55203620D01*
X118172000Y-55115473D01*
X118172000Y-54256526D01*
X118180682Y-54168379D01*
X118214991Y-54055279D01*
X118270705Y-53951045D01*
X118345684Y-53859683D01*
X118437046Y-53784704D01*
X118541280Y-53728990D01*
X118654380Y-53694682D01*
X118772000Y-53683097D01*
X118889621Y-53694682D01*
X118889621Y-53694682D01*
G37*
G36*
X121180717Y-53691156D02*
X121225156Y-53704637D01*
X121266109Y-53726527D01*
X121302010Y-53755990D01*
X121331473Y-53791891D01*
X121353363Y-53832844D01*
X121366844Y-53877283D01*
X121372000Y-53929640D01*
X121372000Y-55442360D01*
X121366844Y-55494717D01*
X121353363Y-55539156D01*
X121331473Y-55580109D01*
X121302010Y-55616010D01*
X121266109Y-55645473D01*
X121225156Y-55667363D01*
X121180717Y-55680844D01*
X121128360Y-55686000D01*
X120415640Y-55686000D01*
X120363283Y-55680844D01*
X120318844Y-55667363D01*
X120277891Y-55645473D01*
X120241990Y-55616010D01*
X120212527Y-55580109D01*
X120190637Y-55539156D01*
X120177156Y-55494717D01*
X120172000Y-55442360D01*
X120172000Y-53929640D01*
X120177156Y-53877283D01*
X120190637Y-53832844D01*
X120212527Y-53791891D01*
X120241990Y-53755990D01*
X120277891Y-53726527D01*
X120318844Y-53704637D01*
X120363283Y-53691156D01*
X120415640Y-53686000D01*
X121128360Y-53686000D01*
X121180717Y-53691156D01*
X121180717Y-53691156D01*
G37*
G36*
X136290000Y-54784000D02*
X134290000Y-54784000D01*
X134290000Y-54084000D01*
X136290000Y-54084000D01*
X136290000Y-54784000D01*
X136290000Y-54784000D01*
G37*
G36*
X126590000Y-54784000D02*
X124590000Y-54784000D01*
X124590000Y-54084000D01*
X126590000Y-54084000D01*
X126590000Y-54784000D01*
X126590000Y-54784000D01*
G37*
G36*
X136290000Y-53684000D02*
X134290000Y-53684000D01*
X134290000Y-52984000D01*
X136290000Y-52984000D01*
X136290000Y-53684000D01*
X136290000Y-53684000D01*
G37*
G36*
X126590000Y-53684000D02*
X124590000Y-53684000D01*
X124590000Y-52984000D01*
X126590000Y-52984000D01*
X126590000Y-53684000D01*
X126590000Y-53684000D01*
G37*
G36*
X137866630Y-51816299D02*
X138026855Y-51864903D01*
X138174520Y-51943831D01*
X138303949Y-52050051D01*
X138410169Y-52179480D01*
X138489097Y-52327145D01*
X138537701Y-52487370D01*
X138554112Y-52654000D01*
X138537701Y-52820630D01*
X138489097Y-52980855D01*
X138410169Y-53128520D01*
X138303949Y-53257949D01*
X138174520Y-53364169D01*
X138026855Y-53443097D01*
X137866630Y-53491701D01*
X137741752Y-53504000D01*
X137658248Y-53504000D01*
X137533370Y-53491701D01*
X137373145Y-53443097D01*
X137225480Y-53364169D01*
X137096051Y-53257949D01*
X136989831Y-53128520D01*
X136910903Y-52980855D01*
X136862299Y-52820630D01*
X136845888Y-52654000D01*
X136862299Y-52487370D01*
X136910903Y-52327145D01*
X136989831Y-52179480D01*
X137096051Y-52050051D01*
X137225480Y-51943831D01*
X137373145Y-51864903D01*
X137533370Y-51816299D01*
X137658248Y-51804000D01*
X137741752Y-51804000D01*
X137866630Y-51816299D01*
X137866630Y-51816299D01*
G37*
G36*
X138550000Y-50964000D02*
X136850000Y-50964000D01*
X136850000Y-49264000D01*
X138550000Y-49264000D01*
X138550000Y-50964000D01*
X138550000Y-50964000D01*
G37*
G36*
X135130000Y-50602000D02*
X133130000Y-50602000D01*
X133130000Y-49402000D01*
X135130000Y-49402000D01*
X135130000Y-50602000D01*
X135130000Y-50602000D01*
G37*
G36*
X120130000Y-50602000D02*
X118130000Y-50602000D01*
X118130000Y-49402000D01*
X120130000Y-49402000D01*
X120130000Y-50602000D01*
X120130000Y-50602000D01*
G37*
G36*
X135130000Y-48602000D02*
X133130000Y-48602000D01*
X133130000Y-47402000D01*
X135130000Y-47402000D01*
X135130000Y-48602000D01*
X135130000Y-48602000D01*
G37*
G36*
X120130000Y-48602000D02*
X118130000Y-48602000D01*
X118130000Y-47402000D01*
X120130000Y-47402000D01*
X120130000Y-48602000D01*
X120130000Y-48602000D01*
G37*
G36*
X120130000Y-46602000D02*
X118130000Y-46602000D01*
X118130000Y-45402000D01*
X120130000Y-45402000D01*
X120130000Y-46602000D01*
X120130000Y-46602000D01*
G37*
G36*
X135130000Y-46602000D02*
X133130000Y-46602000D01*
X133130000Y-45402000D01*
X135130000Y-45402000D01*
X135130000Y-46602000D01*
X135130000Y-46602000D01*
G37*
G36*
X120130000Y-44602000D02*
X118130000Y-44602000D01*
X118130000Y-43402000D01*
X120130000Y-43402000D01*
X120130000Y-44602000D01*
X120130000Y-44602000D01*
G37*
G36*
X135130000Y-44602000D02*
X133130000Y-44602000D01*
X133130000Y-43402000D01*
X135130000Y-43402000D01*
X135130000Y-44602000D01*
X135130000Y-44602000D01*
G37*
G36*
X120130000Y-42602000D02*
X118130000Y-42602000D01*
X118130000Y-41402000D01*
X120130000Y-41402000D01*
X120130000Y-42602000D01*
X120130000Y-42602000D01*
G37*
G36*
X135130000Y-42602000D02*
X133130000Y-42602000D01*
X133130000Y-41402000D01*
X135130000Y-41402000D01*
X135130000Y-42602000D01*
X135130000Y-42602000D01*
G37*
G36*
X120130000Y-40602000D02*
X118130000Y-40602000D01*
X118130000Y-39402000D01*
X120130000Y-39402000D01*
X120130000Y-40602000D01*
X120130000Y-40602000D01*
G37*
G36*
X135130000Y-40602000D02*
X133130000Y-40602000D01*
X133130000Y-39402000D01*
X135130000Y-39402000D01*
X135130000Y-40602000D01*
X135130000Y-40602000D01*
G37*
G36*
X138550000Y-40296000D02*
X136850000Y-40296000D01*
X136850000Y-38596000D01*
X138550000Y-38596000D01*
X138550000Y-40296000D01*
X138550000Y-40296000D01*
G37*
G36*
X135130000Y-38602000D02*
X133130000Y-38602000D01*
X133130000Y-37402000D01*
X135130000Y-37402000D01*
X135130000Y-38602000D01*
X135130000Y-38602000D01*
G37*
G36*
X120130000Y-38602000D02*
X118130000Y-38602000D01*
X118130000Y-37402000D01*
X120130000Y-37402000D01*
X120130000Y-38602000D01*
X120130000Y-38602000D01*
G37*
G36*
X137866630Y-36068299D02*
X138026855Y-36116903D01*
X138174520Y-36195831D01*
X138303949Y-36302051D01*
X138410169Y-36431480D01*
X138489097Y-36579145D01*
X138537701Y-36739370D01*
X138554112Y-36906000D01*
X138537701Y-37072630D01*
X138489097Y-37232855D01*
X138410169Y-37380520D01*
X138303949Y-37509949D01*
X138174520Y-37616169D01*
X138026855Y-37695097D01*
X137866630Y-37743701D01*
X137741752Y-37756000D01*
X137658248Y-37756000D01*
X137533370Y-37743701D01*
X137373145Y-37695097D01*
X137225480Y-37616169D01*
X137096051Y-37509949D01*
X136989831Y-37380520D01*
X136910903Y-37232855D01*
X136862299Y-37072630D01*
X136845888Y-36906000D01*
X136862299Y-36739370D01*
X136910903Y-36579145D01*
X136989831Y-36431480D01*
X137096051Y-36302051D01*
X137225480Y-36195831D01*
X137373145Y-36116903D01*
X137533370Y-36068299D01*
X137658248Y-36056000D01*
X137741752Y-36056000D01*
X137866630Y-36068299D01*
X137866630Y-36068299D01*
G37*
G36*
X135130000Y-36602000D02*
X133130000Y-36602000D01*
X133130000Y-35402000D01*
X135130000Y-35402000D01*
X135130000Y-36602000D01*
X135130000Y-36602000D01*
G37*
G36*
X120130000Y-36602000D02*
X118130000Y-36602000D01*
X118130000Y-35402000D01*
X120130000Y-35402000D01*
X120130000Y-36602000D01*
X120130000Y-36602000D01*
G37*
G36*
X121645116Y-33093995D02*
X121674313Y-33102852D01*
X121701218Y-33117233D01*
X121724808Y-33136592D01*
X121744167Y-33160182D01*
X121758548Y-33187087D01*
X121767405Y-33216284D01*
X121771000Y-33252790D01*
X121771000Y-33803010D01*
X121767405Y-33839516D01*
X121758548Y-33868713D01*
X121744167Y-33895618D01*
X121724808Y-33919208D01*
X121701218Y-33938567D01*
X121674313Y-33952948D01*
X121645116Y-33961805D01*
X121608610Y-33965400D01*
X120983390Y-33965400D01*
X120946884Y-33961805D01*
X120917687Y-33952948D01*
X120890782Y-33938567D01*
X120867192Y-33919208D01*
X120847833Y-33895618D01*
X120833452Y-33868713D01*
X120824595Y-33839516D01*
X120821000Y-33803010D01*
X120821000Y-33252790D01*
X120824595Y-33216284D01*
X120833452Y-33187087D01*
X120847833Y-33160182D01*
X120867192Y-33136592D01*
X120890782Y-33117233D01*
X120917687Y-33102852D01*
X120946884Y-33093995D01*
X120983390Y-33090400D01*
X121608610Y-33090400D01*
X121645116Y-33093995D01*
X121645116Y-33093995D01*
G37*
G36*
X123677116Y-33093995D02*
X123706313Y-33102852D01*
X123733218Y-33117233D01*
X123756808Y-33136592D01*
X123776167Y-33160182D01*
X123790548Y-33187087D01*
X123799405Y-33216284D01*
X123803000Y-33252790D01*
X123803000Y-33803010D01*
X123799405Y-33839516D01*
X123790548Y-33868713D01*
X123776167Y-33895618D01*
X123756808Y-33919208D01*
X123733218Y-33938567D01*
X123706313Y-33952948D01*
X123677116Y-33961805D01*
X123640610Y-33965400D01*
X123015390Y-33965400D01*
X122978884Y-33961805D01*
X122949687Y-33952948D01*
X122922782Y-33938567D01*
X122899192Y-33919208D01*
X122879833Y-33895618D01*
X122865452Y-33868713D01*
X122856595Y-33839516D01*
X122853000Y-33803010D01*
X122853000Y-33252790D01*
X122856595Y-33216284D01*
X122865452Y-33187087D01*
X122879833Y-33160182D01*
X122899192Y-33136592D01*
X122922782Y-33117233D01*
X122949687Y-33102852D01*
X122978884Y-33093995D01*
X123015390Y-33090400D01*
X123640610Y-33090400D01*
X123677116Y-33093995D01*
X123677116Y-33093995D01*
G37*
G36*
X120109116Y-32878595D02*
X120138313Y-32887452D01*
X120165218Y-32901833D01*
X120188808Y-32921192D01*
X120208167Y-32944782D01*
X120222548Y-32971687D01*
X120231405Y-33000884D01*
X120235000Y-33037390D01*
X120235000Y-33662610D01*
X120231405Y-33699116D01*
X120222548Y-33728313D01*
X120208167Y-33755218D01*
X120188808Y-33778808D01*
X120165218Y-33798167D01*
X120138313Y-33812548D01*
X120109116Y-33821405D01*
X120072610Y-33825000D01*
X119522390Y-33825000D01*
X119485884Y-33821405D01*
X119456687Y-33812548D01*
X119429782Y-33798167D01*
X119406192Y-33778808D01*
X119386833Y-33755218D01*
X119372452Y-33728313D01*
X119363595Y-33699116D01*
X119360000Y-33662610D01*
X119360000Y-33037390D01*
X119363595Y-33000884D01*
X119372452Y-32971687D01*
X119386833Y-32944782D01*
X119406192Y-32921192D01*
X119429782Y-32901833D01*
X119456687Y-32887452D01*
X119485884Y-32878595D01*
X119522390Y-32875000D01*
X120072610Y-32875000D01*
X120109116Y-32878595D01*
X120109116Y-32878595D01*
G37*
G36*
X118534116Y-32878595D02*
X118563313Y-32887452D01*
X118590218Y-32901833D01*
X118613808Y-32921192D01*
X118633167Y-32944782D01*
X118647548Y-32971687D01*
X118656405Y-33000884D01*
X118660000Y-33037390D01*
X118660000Y-33662610D01*
X118656405Y-33699116D01*
X118647548Y-33728313D01*
X118633167Y-33755218D01*
X118613808Y-33778808D01*
X118590218Y-33798167D01*
X118563313Y-33812548D01*
X118534116Y-33821405D01*
X118497610Y-33825000D01*
X117947390Y-33825000D01*
X117910884Y-33821405D01*
X117881687Y-33812548D01*
X117854782Y-33798167D01*
X117831192Y-33778808D01*
X117811833Y-33755218D01*
X117797452Y-33728313D01*
X117788595Y-33699116D01*
X117785000Y-33662610D01*
X117785000Y-33037390D01*
X117788595Y-33000884D01*
X117797452Y-32971687D01*
X117811833Y-32944782D01*
X117831192Y-32921192D01*
X117854782Y-32901833D01*
X117881687Y-32887452D01*
X117910884Y-32878595D01*
X117947390Y-32875000D01*
X118497610Y-32875000D01*
X118534116Y-32878595D01*
X118534116Y-32878595D01*
G37*
G36*
X134750000Y-33343000D02*
X133750000Y-33343000D01*
X133750000Y-32293000D01*
X134750000Y-32293000D01*
X134750000Y-33343000D01*
X134750000Y-33343000D01*
G37*
G36*
X133300000Y-32393000D02*
X132250000Y-32393000D01*
X132250000Y-30193000D01*
X133300000Y-30193000D01*
X133300000Y-32393000D01*
X133300000Y-32393000D01*
G37*
G36*
X136250000Y-32393000D02*
X135200000Y-32393000D01*
X135200000Y-30193000D01*
X136250000Y-30193000D01*
X136250000Y-32393000D01*
X136250000Y-32393000D01*
G37*
G36*
X123677116Y-31518995D02*
X123706313Y-31527852D01*
X123733218Y-31542233D01*
X123756808Y-31561592D01*
X123776167Y-31585182D01*
X123790548Y-31612087D01*
X123799405Y-31641284D01*
X123803000Y-31677790D01*
X123803000Y-32228010D01*
X123799405Y-32264516D01*
X123790548Y-32293713D01*
X123776167Y-32320618D01*
X123756808Y-32344208D01*
X123733218Y-32363567D01*
X123706313Y-32377948D01*
X123677116Y-32386805D01*
X123640610Y-32390400D01*
X123015390Y-32390400D01*
X122978884Y-32386805D01*
X122949687Y-32377948D01*
X122922782Y-32363567D01*
X122899192Y-32344208D01*
X122879833Y-32320618D01*
X122865452Y-32293713D01*
X122856595Y-32264516D01*
X122853000Y-32228010D01*
X122853000Y-31677790D01*
X122856595Y-31641284D01*
X122865452Y-31612087D01*
X122879833Y-31585182D01*
X122899192Y-31561592D01*
X122922782Y-31542233D01*
X122949687Y-31527852D01*
X122978884Y-31518995D01*
X123015390Y-31515400D01*
X123640610Y-31515400D01*
X123677116Y-31518995D01*
X123677116Y-31518995D01*
G37*
G36*
X121645116Y-31518995D02*
X121674313Y-31527852D01*
X121701218Y-31542233D01*
X121724808Y-31561592D01*
X121744167Y-31585182D01*
X121758548Y-31612087D01*
X121767405Y-31641284D01*
X121771000Y-31677790D01*
X121771000Y-32228010D01*
X121767405Y-32264516D01*
X121758548Y-32293713D01*
X121744167Y-32320618D01*
X121724808Y-32344208D01*
X121701218Y-32363567D01*
X121674313Y-32377948D01*
X121645116Y-32386805D01*
X121608610Y-32390400D01*
X120983390Y-32390400D01*
X120946884Y-32386805D01*
X120917687Y-32377948D01*
X120890782Y-32363567D01*
X120867192Y-32344208D01*
X120847833Y-32320618D01*
X120833452Y-32293713D01*
X120824595Y-32264516D01*
X120821000Y-32228010D01*
X120821000Y-31677790D01*
X120824595Y-31641284D01*
X120833452Y-31612087D01*
X120847833Y-31585182D01*
X120867192Y-31561592D01*
X120890782Y-31542233D01*
X120917687Y-31527852D01*
X120946884Y-31518995D01*
X120983390Y-31515400D01*
X121608610Y-31515400D01*
X121645116Y-31518995D01*
X121645116Y-31518995D01*
G37*
G36*
X127558630Y-29718299D02*
X127718855Y-29766903D01*
X127866520Y-29845831D01*
X127995949Y-29952051D01*
X128102169Y-30081480D01*
X128181097Y-30229145D01*
X128229701Y-30389370D01*
X128246112Y-30556000D01*
X128229701Y-30722630D01*
X128181097Y-30882855D01*
X128102169Y-31030520D01*
X127995949Y-31159949D01*
X127866520Y-31266169D01*
X127718855Y-31345097D01*
X127558630Y-31393701D01*
X127433752Y-31406000D01*
X127350248Y-31406000D01*
X127225370Y-31393701D01*
X127065145Y-31345097D01*
X126917480Y-31266169D01*
X126788051Y-31159949D01*
X126681831Y-31030520D01*
X126602903Y-30882855D01*
X126554299Y-30722630D01*
X126537888Y-30556000D01*
X126554299Y-30389370D01*
X126602903Y-30229145D01*
X126681831Y-30081480D01*
X126788051Y-29952051D01*
X126917480Y-29845831D01*
X127065145Y-29766903D01*
X127225370Y-29718299D01*
X127350248Y-29706000D01*
X127433752Y-29706000D01*
X127558630Y-29718299D01*
X127558630Y-29718299D01*
G37*
G36*
X130782000Y-31406000D02*
X129082000Y-31406000D01*
X129082000Y-29706000D01*
X130782000Y-29706000D01*
X130782000Y-31406000D01*
X130782000Y-31406000D01*
G37*
G36*
X123411116Y-29830595D02*
X123440313Y-29839452D01*
X123467218Y-29853833D01*
X123490808Y-29873192D01*
X123510167Y-29896782D01*
X123524548Y-29923687D01*
X123533405Y-29952884D01*
X123537000Y-29989390D01*
X123537000Y-30614610D01*
X123533405Y-30651116D01*
X123524548Y-30680313D01*
X123510167Y-30707218D01*
X123490808Y-30730808D01*
X123467218Y-30750167D01*
X123440313Y-30764548D01*
X123411116Y-30773405D01*
X123374610Y-30777000D01*
X122824390Y-30777000D01*
X122787884Y-30773405D01*
X122758687Y-30764548D01*
X122731782Y-30750167D01*
X122708192Y-30730808D01*
X122688833Y-30707218D01*
X122674452Y-30680313D01*
X122665595Y-30651116D01*
X122662000Y-30614610D01*
X122662000Y-29989390D01*
X122665595Y-29952884D01*
X122674452Y-29923687D01*
X122688833Y-29896782D01*
X122708192Y-29873192D01*
X122731782Y-29853833D01*
X122758687Y-29839452D01*
X122787884Y-29830595D01*
X122824390Y-29827000D01*
X123374610Y-29827000D01*
X123411116Y-29830595D01*
X123411116Y-29830595D01*
G37*
G36*
X121836116Y-29830595D02*
X121865313Y-29839452D01*
X121892218Y-29853833D01*
X121915808Y-29873192D01*
X121935167Y-29896782D01*
X121949548Y-29923687D01*
X121958405Y-29952884D01*
X121962000Y-29989390D01*
X121962000Y-30614610D01*
X121958405Y-30651116D01*
X121949548Y-30680313D01*
X121935167Y-30707218D01*
X121915808Y-30730808D01*
X121892218Y-30750167D01*
X121865313Y-30764548D01*
X121836116Y-30773405D01*
X121799610Y-30777000D01*
X121249390Y-30777000D01*
X121212884Y-30773405D01*
X121183687Y-30764548D01*
X121156782Y-30750167D01*
X121133192Y-30730808D01*
X121113833Y-30707218D01*
X121099452Y-30680313D01*
X121090595Y-30651116D01*
X121087000Y-30614610D01*
X121087000Y-29989390D01*
X121090595Y-29952884D01*
X121099452Y-29923687D01*
X121113833Y-29896782D01*
X121133192Y-29873192D01*
X121156782Y-29853833D01*
X121183687Y-29839452D01*
X121212884Y-29830595D01*
X121249390Y-29827000D01*
X121799610Y-29827000D01*
X121836116Y-29830595D01*
X121836116Y-29830595D01*
G37*
G36*
X123411116Y-28306595D02*
X123440313Y-28315452D01*
X123467218Y-28329833D01*
X123490808Y-28349192D01*
X123510167Y-28372782D01*
X123524548Y-28399687D01*
X123533405Y-28428884D01*
X123537000Y-28465390D01*
X123537000Y-29090610D01*
X123533405Y-29127116D01*
X123524548Y-29156313D01*
X123510167Y-29183218D01*
X123490808Y-29206808D01*
X123467218Y-29226167D01*
X123440313Y-29240548D01*
X123411116Y-29249405D01*
X123374610Y-29253000D01*
X122824390Y-29253000D01*
X122787884Y-29249405D01*
X122758687Y-29240548D01*
X122731782Y-29226167D01*
X122708192Y-29206808D01*
X122688833Y-29183218D01*
X122674452Y-29156313D01*
X122665595Y-29127116D01*
X122662000Y-29090610D01*
X122662000Y-28465390D01*
X122665595Y-28428884D01*
X122674452Y-28399687D01*
X122688833Y-28372782D01*
X122708192Y-28349192D01*
X122731782Y-28329833D01*
X122758687Y-28315452D01*
X122787884Y-28306595D01*
X122824390Y-28303000D01*
X123374610Y-28303000D01*
X123411116Y-28306595D01*
X123411116Y-28306595D01*
G37*
G36*
X121836116Y-28306595D02*
X121865313Y-28315452D01*
X121892218Y-28329833D01*
X121915808Y-28349192D01*
X121935167Y-28372782D01*
X121949548Y-28399687D01*
X121958405Y-28428884D01*
X121962000Y-28465390D01*
X121962000Y-29090610D01*
X121958405Y-29127116D01*
X121949548Y-29156313D01*
X121935167Y-29183218D01*
X121915808Y-29206808D01*
X121892218Y-29226167D01*
X121865313Y-29240548D01*
X121836116Y-29249405D01*
X121799610Y-29253000D01*
X121249390Y-29253000D01*
X121212884Y-29249405D01*
X121183687Y-29240548D01*
X121156782Y-29226167D01*
X121133192Y-29206808D01*
X121113833Y-29183218D01*
X121099452Y-29156313D01*
X121090595Y-29127116D01*
X121087000Y-29090610D01*
X121087000Y-28465390D01*
X121090595Y-28428884D01*
X121099452Y-28399687D01*
X121113833Y-28372782D01*
X121133192Y-28349192D01*
X121156782Y-28329833D01*
X121183687Y-28315452D01*
X121212884Y-28306595D01*
X121249390Y-28303000D01*
X121799610Y-28303000D01*
X121836116Y-28306595D01*
X121836116Y-28306595D01*
G37*
M02*
