G04 #@! TF.GenerationSoftware,KiCad,Pcbnew,(5.0.2)-1*
G04 #@! TF.CreationDate,2019-05-04T17:06:02+02:00*
G04 #@! TF.ProjectId,Cowbell_mini,436f7762-656c-46c5-9f6d-696e692e6b69,v0.4*
G04 #@! TF.SameCoordinates,Original*
G04 #@! TF.FileFunction,Legend,Bot*
G04 #@! TF.FilePolarity,Positive*
%FSLAX46Y46*%
G04 Gerber Fmt 4.6, Leading zero omitted, Abs format (unit mm)*
G04 Created by KiCad (PCBNEW (5.0.2)-1) date 5/4/2019 5:06:02 PM*
%MOMM*%
%LPD*%
G01*
G04 APERTURE LIST*
%ADD10C,0.300000*%
%ADD11C,0.120000*%
%ADD12C,0.150000*%
%ADD13C,0.050000*%
G04 APERTURE END LIST*
D10*
X132465000Y-56408571D02*
X132536428Y-56265714D01*
X132536428Y-56051428D01*
X132465000Y-55837142D01*
X132322142Y-55694285D01*
X132179285Y-55622857D01*
X131893571Y-55551428D01*
X131679285Y-55551428D01*
X131393571Y-55622857D01*
X131250714Y-55694285D01*
X131107857Y-55837142D01*
X131036428Y-56051428D01*
X131036428Y-56194285D01*
X131107857Y-56408571D01*
X131179285Y-56480000D01*
X131679285Y-56480000D01*
X131679285Y-56194285D01*
X131036428Y-57122857D02*
X132536428Y-57122857D01*
X132536428Y-57694285D01*
X132465000Y-57837142D01*
X132393571Y-57908571D01*
X132250714Y-57980000D01*
X132036428Y-57980000D01*
X131893571Y-57908571D01*
X131822142Y-57837142D01*
X131750714Y-57694285D01*
X131750714Y-57122857D01*
X131107857Y-58551428D02*
X131036428Y-58765714D01*
X131036428Y-59122857D01*
X131107857Y-59265714D01*
X131179285Y-59337142D01*
X131322142Y-59408571D01*
X131465000Y-59408571D01*
X131607857Y-59337142D01*
X131679285Y-59265714D01*
X131750714Y-59122857D01*
X131822142Y-58837142D01*
X131893571Y-58694285D01*
X131965000Y-58622857D01*
X132107857Y-58551428D01*
X132250714Y-58551428D01*
X132393571Y-58622857D01*
X132465000Y-58694285D01*
X132536428Y-58837142D01*
X132536428Y-59194285D01*
X132465000Y-59408571D01*
X128557857Y-53015714D02*
X128486428Y-53230000D01*
X128486428Y-53587142D01*
X128557857Y-53730000D01*
X128629285Y-53801428D01*
X128772142Y-53872857D01*
X128915000Y-53872857D01*
X129057857Y-53801428D01*
X129129285Y-53730000D01*
X129200714Y-53587142D01*
X129272142Y-53301428D01*
X129343571Y-53158571D01*
X129415000Y-53087142D01*
X129557857Y-53015714D01*
X129700714Y-53015714D01*
X129843571Y-53087142D01*
X129915000Y-53158571D01*
X129986428Y-53301428D01*
X129986428Y-53658571D01*
X129915000Y-53872857D01*
X128486428Y-54515714D02*
X129986428Y-54515714D01*
X128486428Y-55230000D02*
X129986428Y-55230000D01*
X128915000Y-55730000D01*
X129986428Y-56230000D01*
X128486428Y-56230000D01*
X129843571Y-56872857D02*
X129915000Y-56944285D01*
X129986428Y-57087142D01*
X129986428Y-57444285D01*
X129915000Y-57587142D01*
X129843571Y-57658571D01*
X129700714Y-57730000D01*
X129557857Y-57730000D01*
X129343571Y-57658571D01*
X128486428Y-56801428D01*
X128486428Y-57730000D01*
X129343571Y-58587142D02*
X129415000Y-58444285D01*
X129486428Y-58372857D01*
X129629285Y-58301428D01*
X129700714Y-58301428D01*
X129843571Y-58372857D01*
X129915000Y-58444285D01*
X129986428Y-58587142D01*
X129986428Y-58872857D01*
X129915000Y-59015714D01*
X129843571Y-59087142D01*
X129700714Y-59158571D01*
X129629285Y-59158571D01*
X129486428Y-59087142D01*
X129415000Y-59015714D01*
X129343571Y-58872857D01*
X129343571Y-58587142D01*
X129272142Y-58444285D01*
X129200714Y-58372857D01*
X129057857Y-58301428D01*
X128772142Y-58301428D01*
X128629285Y-58372857D01*
X128557857Y-58444285D01*
X128486428Y-58587142D01*
X128486428Y-58872857D01*
X128557857Y-59015714D01*
X128629285Y-59087142D01*
X128772142Y-59158571D01*
X129057857Y-59158571D01*
X129200714Y-59087142D01*
X129272142Y-59015714D01*
X129343571Y-58872857D01*
X128486428Y-59801428D02*
X129486428Y-59801428D01*
X129343571Y-59801428D02*
X129415000Y-59872857D01*
X129486428Y-60015714D01*
X129486428Y-60230000D01*
X129415000Y-60372857D01*
X129272142Y-60444285D01*
X128486428Y-60444285D01*
X129272142Y-60444285D02*
X129415000Y-60515714D01*
X129486428Y-60658571D01*
X129486428Y-60872857D01*
X129415000Y-61015714D01*
X129272142Y-61087142D01*
X128486428Y-61087142D01*
X128486428Y-62015714D02*
X128557857Y-61872857D01*
X128700714Y-61801428D01*
X129986428Y-61801428D01*
X129342857Y-42703571D02*
X130057142Y-42703571D01*
X130057142Y-41203571D01*
X128628571Y-42703571D02*
X128771428Y-42632142D01*
X128842857Y-42560714D01*
X128914285Y-42417857D01*
X128914285Y-41989285D01*
X128842857Y-41846428D01*
X128771428Y-41775000D01*
X128628571Y-41703571D01*
X128414285Y-41703571D01*
X128271428Y-41775000D01*
X128200000Y-41846428D01*
X128128571Y-41989285D01*
X128128571Y-42417857D01*
X128200000Y-42560714D01*
X128271428Y-42632142D01*
X128414285Y-42703571D01*
X128628571Y-42703571D01*
X126628571Y-42703571D02*
X127128571Y-41989285D01*
X127485714Y-42703571D02*
X127485714Y-41203571D01*
X126914285Y-41203571D01*
X126771428Y-41275000D01*
X126700000Y-41346428D01*
X126628571Y-41489285D01*
X126628571Y-41703571D01*
X126700000Y-41846428D01*
X126771428Y-41917857D01*
X126914285Y-41989285D01*
X127485714Y-41989285D01*
X125342857Y-42703571D02*
X125342857Y-41917857D01*
X125414285Y-41775000D01*
X125557142Y-41703571D01*
X125842857Y-41703571D01*
X125985714Y-41775000D01*
X125342857Y-42632142D02*
X125485714Y-42703571D01*
X125842857Y-42703571D01*
X125985714Y-42632142D01*
X126057142Y-42489285D01*
X126057142Y-42346428D01*
X125985714Y-42203571D01*
X125842857Y-42132142D01*
X125485714Y-42132142D01*
X125342857Y-42060714D01*
X130057142Y-45253571D02*
X130557142Y-44539285D01*
X130914285Y-45253571D02*
X130914285Y-43753571D01*
X130342857Y-43753571D01*
X130200000Y-43825000D01*
X130128571Y-43896428D01*
X130057142Y-44039285D01*
X130057142Y-44253571D01*
X130128571Y-44396428D01*
X130200000Y-44467857D01*
X130342857Y-44539285D01*
X130914285Y-44539285D01*
X128914285Y-44467857D02*
X129414285Y-44467857D01*
X129414285Y-45253571D02*
X129414285Y-43753571D01*
X128700000Y-43753571D01*
X128128571Y-45253571D02*
X128128571Y-43753571D01*
X127628571Y-44825000D01*
X127128571Y-43753571D01*
X127128571Y-45253571D01*
X126342857Y-45253571D02*
X126057142Y-45253571D01*
X125914285Y-45182142D01*
X125842857Y-45110714D01*
X125700000Y-44896428D01*
X125628571Y-44610714D01*
X125628571Y-44039285D01*
X125700000Y-43896428D01*
X125771428Y-43825000D01*
X125914285Y-43753571D01*
X126200000Y-43753571D01*
X126342857Y-43825000D01*
X126414285Y-43896428D01*
X126485714Y-44039285D01*
X126485714Y-44396428D01*
X126414285Y-44539285D01*
X126342857Y-44610714D01*
X126200000Y-44682142D01*
X125914285Y-44682142D01*
X125771428Y-44610714D01*
X125700000Y-44539285D01*
X125628571Y-44396428D01*
X125128571Y-45253571D02*
X124342857Y-44253571D01*
X125128571Y-44253571D02*
X124342857Y-45253571D01*
D11*
G04 #@! TO.C,C203*
X122149221Y-28268000D02*
X122474779Y-28268000D01*
X122149221Y-29288000D02*
X122474779Y-29288000D01*
G04 #@! TO.C,C202*
X122149221Y-29792000D02*
X122474779Y-29792000D01*
X122149221Y-30812000D02*
X122474779Y-30812000D01*
D12*
G04 #@! TO.C,J401*
X133750000Y-29868000D02*
X134750000Y-29868000D01*
X135150000Y-29868000D02*
G75*
G02X135700000Y-30418000I0J-550000D01*
G01*
X132800000Y-30418000D02*
G75*
G02X133350000Y-29868000I550000J0D01*
G01*
X133350000Y-32768000D02*
G75*
G02X132800000Y-32218000I0J550000D01*
G01*
X135700000Y-32218000D02*
G75*
G02X135150000Y-32768000I-550000J0D01*
G01*
X135250000Y-31318000D02*
G75*
G03X135250000Y-31318000I-1000000J0D01*
G01*
X132250000Y-33518000D02*
X136250000Y-33518000D01*
X136250000Y-29118000D02*
X132250000Y-29118000D01*
X132050000Y-29318000D02*
X132250000Y-29118000D01*
X132050000Y-29318000D02*
X132050000Y-33318000D01*
X136450000Y-29318000D02*
X136450000Y-33318000D01*
X136450000Y-29318000D02*
X136250000Y-29118000D01*
X132050000Y-33318000D02*
X132250000Y-33518000D01*
X136250000Y-33518000D02*
X136450000Y-33318000D01*
G04 #@! TO.C,U101*
X135290000Y-63134000D02*
X135290000Y-53134000D01*
X125590000Y-63134000D02*
X135290000Y-63134000D01*
X125590000Y-52334000D02*
X125590000Y-63134000D01*
X134490000Y-52334000D02*
X125590000Y-52334000D01*
X135290000Y-53134000D02*
X134490000Y-52334000D01*
G04 #@! TO.C,U105*
X134855000Y-51402000D02*
X135230000Y-51402000D01*
X135230000Y-51427000D02*
X135230000Y-51202000D01*
X135130000Y-34502000D02*
X134755000Y-34502000D01*
X135130000Y-34502000D02*
X135130000Y-34727000D01*
X118505000Y-34502000D02*
X118130000Y-34502000D01*
X118130000Y-34527000D02*
X118130000Y-34752000D01*
X118630000Y-51402000D02*
X118155000Y-51402000D01*
G04 #@! TO.C,J101*
X117052000Y-61534000D02*
X117052000Y-60534000D01*
X117052000Y-60134000D02*
G75*
G02X117602000Y-59584000I550000J0D01*
G01*
X117602000Y-62484000D02*
G75*
G02X117052000Y-61934000I0J550000D01*
G01*
X119952000Y-61934000D02*
G75*
G02X119402000Y-62484000I-550000J0D01*
G01*
X119402000Y-59584000D02*
G75*
G02X119952000Y-60134000I0J-550000D01*
G01*
X119502000Y-61034000D02*
G75*
G03X119502000Y-61034000I-1000000J0D01*
G01*
X120702000Y-63034000D02*
X120702000Y-59034000D01*
X116302000Y-59034000D02*
X116302000Y-63034000D01*
X116502000Y-63234000D02*
X116302000Y-63034000D01*
X116502000Y-63234000D02*
X120502000Y-63234000D01*
X116502000Y-58834000D02*
X120502000Y-58834000D01*
X116502000Y-58834000D02*
X116302000Y-59034000D01*
X120502000Y-63234000D02*
X120702000Y-63034000D01*
X120702000Y-59034000D02*
X120502000Y-58834000D01*
D11*
G04 #@! TO.C,R102*
X122818000Y-57651267D02*
X122818000Y-57308733D01*
X123838000Y-57651267D02*
X123838000Y-57308733D01*
G04 #@! TO.C,R201*
X121806000Y-32577621D02*
X121806000Y-32903179D01*
X120786000Y-32577621D02*
X120786000Y-32903179D01*
G04 #@! TO.C,R202*
X122818000Y-32903179D02*
X122818000Y-32577621D01*
X123838000Y-32903179D02*
X123838000Y-32577621D01*
G04 #@! TO.C,R307*
X119172779Y-33860000D02*
X118847221Y-33860000D01*
X119172779Y-32840000D02*
X118847221Y-32840000D01*
G04 #@! TO.C,C203*
D13*
X124232857Y-28330380D02*
X124251904Y-28311333D01*
X124270952Y-28254190D01*
X124270952Y-28216095D01*
X124251904Y-28158952D01*
X124213809Y-28120857D01*
X124175714Y-28101809D01*
X124099523Y-28082761D01*
X124042380Y-28082761D01*
X123966190Y-28101809D01*
X123928095Y-28120857D01*
X123890000Y-28158952D01*
X123870952Y-28216095D01*
X123870952Y-28254190D01*
X123890000Y-28311333D01*
X123909047Y-28330380D01*
X123909047Y-28482761D02*
X123890000Y-28501809D01*
X123870952Y-28539904D01*
X123870952Y-28635142D01*
X123890000Y-28673238D01*
X123909047Y-28692285D01*
X123947142Y-28711333D01*
X123985238Y-28711333D01*
X124042380Y-28692285D01*
X124270952Y-28463714D01*
X124270952Y-28711333D01*
X123870952Y-28958952D02*
X123870952Y-28997047D01*
X123890000Y-29035142D01*
X123909047Y-29054190D01*
X123947142Y-29073238D01*
X124023333Y-29092285D01*
X124118571Y-29092285D01*
X124194761Y-29073238D01*
X124232857Y-29054190D01*
X124251904Y-29035142D01*
X124270952Y-28997047D01*
X124270952Y-28958952D01*
X124251904Y-28920857D01*
X124232857Y-28901809D01*
X124194761Y-28882761D01*
X124118571Y-28863714D01*
X124023333Y-28863714D01*
X123947142Y-28882761D01*
X123909047Y-28901809D01*
X123890000Y-28920857D01*
X123870952Y-28958952D01*
X123870952Y-29225619D02*
X123870952Y-29473238D01*
X124023333Y-29339904D01*
X124023333Y-29397047D01*
X124042380Y-29435142D01*
X124061428Y-29454190D01*
X124099523Y-29473238D01*
X124194761Y-29473238D01*
X124232857Y-29454190D01*
X124251904Y-29435142D01*
X124270952Y-29397047D01*
X124270952Y-29282761D01*
X124251904Y-29244666D01*
X124232857Y-29225619D01*
G04 #@! TO.C,C202*
X122647714Y-31839142D02*
X122662000Y-31853428D01*
X122704857Y-31867714D01*
X122733428Y-31867714D01*
X122776285Y-31853428D01*
X122804857Y-31824857D01*
X122819142Y-31796285D01*
X122833428Y-31739142D01*
X122833428Y-31696285D01*
X122819142Y-31639142D01*
X122804857Y-31610571D01*
X122776285Y-31582000D01*
X122733428Y-31567714D01*
X122704857Y-31567714D01*
X122662000Y-31582000D01*
X122647714Y-31596285D01*
X122533428Y-31596285D02*
X122519142Y-31582000D01*
X122490571Y-31567714D01*
X122419142Y-31567714D01*
X122390571Y-31582000D01*
X122376285Y-31596285D01*
X122362000Y-31624857D01*
X122362000Y-31653428D01*
X122376285Y-31696285D01*
X122547714Y-31867714D01*
X122362000Y-31867714D01*
X122176285Y-31567714D02*
X122147714Y-31567714D01*
X122119142Y-31582000D01*
X122104857Y-31596285D01*
X122090571Y-31624857D01*
X122076285Y-31682000D01*
X122076285Y-31753428D01*
X122090571Y-31810571D01*
X122104857Y-31839142D01*
X122119142Y-31853428D01*
X122147714Y-31867714D01*
X122176285Y-31867714D01*
X122204857Y-31853428D01*
X122219142Y-31839142D01*
X122233428Y-31810571D01*
X122247714Y-31753428D01*
X122247714Y-31682000D01*
X122233428Y-31624857D01*
X122219142Y-31596285D01*
X122204857Y-31582000D01*
X122176285Y-31567714D01*
X121962000Y-31596285D02*
X121947714Y-31582000D01*
X121919142Y-31567714D01*
X121847714Y-31567714D01*
X121819142Y-31582000D01*
X121804857Y-31596285D01*
X121790571Y-31624857D01*
X121790571Y-31653428D01*
X121804857Y-31696285D01*
X121976285Y-31867714D01*
X121790571Y-31867714D01*
G04 #@! TO.C,J401*
D12*
X135281714Y-33564380D02*
X135281714Y-34278666D01*
X135329333Y-34421523D01*
X135424571Y-34516761D01*
X135567428Y-34564380D01*
X135662666Y-34564380D01*
X134376952Y-33897714D02*
X134376952Y-34564380D01*
X134615047Y-33516761D02*
X134853142Y-34231047D01*
X134234095Y-34231047D01*
X133662666Y-33564380D02*
X133567428Y-33564380D01*
X133472190Y-33612000D01*
X133424571Y-33659619D01*
X133376952Y-33754857D01*
X133329333Y-33945333D01*
X133329333Y-34183428D01*
X133376952Y-34373904D01*
X133424571Y-34469142D01*
X133472190Y-34516761D01*
X133567428Y-34564380D01*
X133662666Y-34564380D01*
X133757904Y-34516761D01*
X133805523Y-34469142D01*
X133853142Y-34373904D01*
X133900761Y-34183428D01*
X133900761Y-33945333D01*
X133853142Y-33754857D01*
X133805523Y-33659619D01*
X133757904Y-33612000D01*
X133662666Y-33564380D01*
X132376952Y-34564380D02*
X132948380Y-34564380D01*
X132662666Y-34564380D02*
X132662666Y-33564380D01*
X132757904Y-33707238D01*
X132853142Y-33802476D01*
X132948380Y-33850095D01*
G04 #@! TO.C,U101*
X132154285Y-50786380D02*
X132154285Y-51595904D01*
X132106666Y-51691142D01*
X132059047Y-51738761D01*
X131963809Y-51786380D01*
X131773333Y-51786380D01*
X131678095Y-51738761D01*
X131630476Y-51691142D01*
X131582857Y-51595904D01*
X131582857Y-50786380D01*
X130582857Y-51786380D02*
X131154285Y-51786380D01*
X130868571Y-51786380D02*
X130868571Y-50786380D01*
X130963809Y-50929238D01*
X131059047Y-51024476D01*
X131154285Y-51072095D01*
X129963809Y-50786380D02*
X129868571Y-50786380D01*
X129773333Y-50834000D01*
X129725714Y-50881619D01*
X129678095Y-50976857D01*
X129630476Y-51167333D01*
X129630476Y-51405428D01*
X129678095Y-51595904D01*
X129725714Y-51691142D01*
X129773333Y-51738761D01*
X129868571Y-51786380D01*
X129963809Y-51786380D01*
X130059047Y-51738761D01*
X130106666Y-51691142D01*
X130154285Y-51595904D01*
X130201904Y-51405428D01*
X130201904Y-51167333D01*
X130154285Y-50976857D01*
X130106666Y-50881619D01*
X130059047Y-50834000D01*
X129963809Y-50786380D01*
X128678095Y-51786380D02*
X129249523Y-51786380D01*
X128963809Y-51786380D02*
X128963809Y-50786380D01*
X129059047Y-50929238D01*
X129154285Y-51024476D01*
X129249523Y-51072095D01*
G04 #@! TO.C,U105*
X128344285Y-49704380D02*
X128344285Y-50513904D01*
X128296666Y-50609142D01*
X128249047Y-50656761D01*
X128153809Y-50704380D01*
X127963333Y-50704380D01*
X127868095Y-50656761D01*
X127820476Y-50609142D01*
X127772857Y-50513904D01*
X127772857Y-49704380D01*
X126772857Y-50704380D02*
X127344285Y-50704380D01*
X127058571Y-50704380D02*
X127058571Y-49704380D01*
X127153809Y-49847238D01*
X127249047Y-49942476D01*
X127344285Y-49990095D01*
X126153809Y-49704380D02*
X126058571Y-49704380D01*
X125963333Y-49752000D01*
X125915714Y-49799619D01*
X125868095Y-49894857D01*
X125820476Y-50085333D01*
X125820476Y-50323428D01*
X125868095Y-50513904D01*
X125915714Y-50609142D01*
X125963333Y-50656761D01*
X126058571Y-50704380D01*
X126153809Y-50704380D01*
X126249047Y-50656761D01*
X126296666Y-50609142D01*
X126344285Y-50513904D01*
X126391904Y-50323428D01*
X126391904Y-50085333D01*
X126344285Y-49894857D01*
X126296666Y-49799619D01*
X126249047Y-49752000D01*
X126153809Y-49704380D01*
X124915714Y-49704380D02*
X125391904Y-49704380D01*
X125439523Y-50180571D01*
X125391904Y-50132952D01*
X125296666Y-50085333D01*
X125058571Y-50085333D01*
X124963333Y-50132952D01*
X124915714Y-50180571D01*
X124868095Y-50275809D01*
X124868095Y-50513904D01*
X124915714Y-50609142D01*
X124963333Y-50656761D01*
X125058571Y-50704380D01*
X125296666Y-50704380D01*
X125391904Y-50656761D01*
X125439523Y-50609142D01*
G04 #@! TO.C,J101*
X120748380Y-60002285D02*
X121462666Y-60002285D01*
X121605523Y-59954666D01*
X121700761Y-59859428D01*
X121748380Y-59716571D01*
X121748380Y-59621333D01*
X121748380Y-61002285D02*
X121748380Y-60430857D01*
X121748380Y-60716571D02*
X120748380Y-60716571D01*
X120891238Y-60621333D01*
X120986476Y-60526095D01*
X121034095Y-60430857D01*
X120748380Y-61621333D02*
X120748380Y-61716571D01*
X120796000Y-61811809D01*
X120843619Y-61859428D01*
X120938857Y-61907047D01*
X121129333Y-61954666D01*
X121367428Y-61954666D01*
X121557904Y-61907047D01*
X121653142Y-61859428D01*
X121700761Y-61811809D01*
X121748380Y-61716571D01*
X121748380Y-61621333D01*
X121700761Y-61526095D01*
X121653142Y-61478476D01*
X121557904Y-61430857D01*
X121367428Y-61383238D01*
X121129333Y-61383238D01*
X120938857Y-61430857D01*
X120843619Y-61478476D01*
X120796000Y-61526095D01*
X120748380Y-61621333D01*
X121748380Y-62907047D02*
X121748380Y-62335619D01*
X121748380Y-62621333D02*
X120748380Y-62621333D01*
X120891238Y-62526095D01*
X120986476Y-62430857D01*
X121034095Y-62335619D01*
G04 #@! TO.C,L101*
X124188380Y-59083832D02*
X124188380Y-58607641D01*
X123188380Y-58607641D01*
X124188380Y-59940975D02*
X124188380Y-59369546D01*
X124188380Y-59655260D02*
X123188380Y-59655260D01*
X123331238Y-59560022D01*
X123426476Y-59464784D01*
X123474095Y-59369546D01*
X123188380Y-60560022D02*
X123188380Y-60655260D01*
X123236000Y-60750499D01*
X123283619Y-60798118D01*
X123378857Y-60845737D01*
X123569333Y-60893356D01*
X123807428Y-60893356D01*
X123997904Y-60845737D01*
X124093142Y-60798118D01*
X124140761Y-60750499D01*
X124188380Y-60655260D01*
X124188380Y-60560022D01*
X124140761Y-60464784D01*
X124093142Y-60417165D01*
X123997904Y-60369546D01*
X123807428Y-60321927D01*
X123569333Y-60321927D01*
X123378857Y-60369546D01*
X123283619Y-60417165D01*
X123236000Y-60464784D01*
X123188380Y-60560022D01*
X124188380Y-61845737D02*
X124188380Y-61274308D01*
X124188380Y-61560022D02*
X123188380Y-61560022D01*
X123331238Y-61464784D01*
X123426476Y-61369546D01*
X123474095Y-61274308D01*
G04 #@! TO.C,R102*
D13*
X123663714Y-59520714D02*
X123763714Y-59377857D01*
X123835142Y-59520714D02*
X123835142Y-59220714D01*
X123720857Y-59220714D01*
X123692285Y-59235000D01*
X123678000Y-59249285D01*
X123663714Y-59277857D01*
X123663714Y-59320714D01*
X123678000Y-59349285D01*
X123692285Y-59363571D01*
X123720857Y-59377857D01*
X123835142Y-59377857D01*
X123378000Y-59520714D02*
X123549428Y-59520714D01*
X123463714Y-59520714D02*
X123463714Y-59220714D01*
X123492285Y-59263571D01*
X123520857Y-59292142D01*
X123549428Y-59306428D01*
X123192285Y-59220714D02*
X123163714Y-59220714D01*
X123135142Y-59235000D01*
X123120857Y-59249285D01*
X123106571Y-59277857D01*
X123092285Y-59335000D01*
X123092285Y-59406428D01*
X123106571Y-59463571D01*
X123120857Y-59492142D01*
X123135142Y-59506428D01*
X123163714Y-59520714D01*
X123192285Y-59520714D01*
X123220857Y-59506428D01*
X123235142Y-59492142D01*
X123249428Y-59463571D01*
X123263714Y-59406428D01*
X123263714Y-59335000D01*
X123249428Y-59277857D01*
X123235142Y-59249285D01*
X123220857Y-59235000D01*
X123192285Y-59220714D01*
X122978000Y-59249285D02*
X122963714Y-59235000D01*
X122935142Y-59220714D01*
X122863714Y-59220714D01*
X122835142Y-59235000D01*
X122820857Y-59249285D01*
X122806571Y-59277857D01*
X122806571Y-59306428D01*
X122820857Y-59349285D01*
X122992285Y-59520714D01*
X122806571Y-59520714D01*
G04 #@! TO.C,R201*
X121631714Y-34654114D02*
X121731714Y-34511257D01*
X121803142Y-34654114D02*
X121803142Y-34354114D01*
X121688857Y-34354114D01*
X121660285Y-34368400D01*
X121646000Y-34382685D01*
X121631714Y-34411257D01*
X121631714Y-34454114D01*
X121646000Y-34482685D01*
X121660285Y-34496971D01*
X121688857Y-34511257D01*
X121803142Y-34511257D01*
X121517428Y-34382685D02*
X121503142Y-34368400D01*
X121474571Y-34354114D01*
X121403142Y-34354114D01*
X121374571Y-34368400D01*
X121360285Y-34382685D01*
X121346000Y-34411257D01*
X121346000Y-34439828D01*
X121360285Y-34482685D01*
X121531714Y-34654114D01*
X121346000Y-34654114D01*
X121160285Y-34354114D02*
X121131714Y-34354114D01*
X121103142Y-34368400D01*
X121088857Y-34382685D01*
X121074571Y-34411257D01*
X121060285Y-34468400D01*
X121060285Y-34539828D01*
X121074571Y-34596971D01*
X121088857Y-34625542D01*
X121103142Y-34639828D01*
X121131714Y-34654114D01*
X121160285Y-34654114D01*
X121188857Y-34639828D01*
X121203142Y-34625542D01*
X121217428Y-34596971D01*
X121231714Y-34539828D01*
X121231714Y-34468400D01*
X121217428Y-34411257D01*
X121203142Y-34382685D01*
X121188857Y-34368400D01*
X121160285Y-34354114D01*
X120774571Y-34654114D02*
X120946000Y-34654114D01*
X120860285Y-34654114D02*
X120860285Y-34354114D01*
X120888857Y-34396971D01*
X120917428Y-34425542D01*
X120946000Y-34439828D01*
G04 #@! TO.C,R202*
X123663714Y-34654114D02*
X123763714Y-34511257D01*
X123835142Y-34654114D02*
X123835142Y-34354114D01*
X123720857Y-34354114D01*
X123692285Y-34368400D01*
X123678000Y-34382685D01*
X123663714Y-34411257D01*
X123663714Y-34454114D01*
X123678000Y-34482685D01*
X123692285Y-34496971D01*
X123720857Y-34511257D01*
X123835142Y-34511257D01*
X123549428Y-34382685D02*
X123535142Y-34368400D01*
X123506571Y-34354114D01*
X123435142Y-34354114D01*
X123406571Y-34368400D01*
X123392285Y-34382685D01*
X123378000Y-34411257D01*
X123378000Y-34439828D01*
X123392285Y-34482685D01*
X123563714Y-34654114D01*
X123378000Y-34654114D01*
X123192285Y-34354114D02*
X123163714Y-34354114D01*
X123135142Y-34368400D01*
X123120857Y-34382685D01*
X123106571Y-34411257D01*
X123092285Y-34468400D01*
X123092285Y-34539828D01*
X123106571Y-34596971D01*
X123120857Y-34625542D01*
X123135142Y-34639828D01*
X123163714Y-34654114D01*
X123192285Y-34654114D01*
X123220857Y-34639828D01*
X123235142Y-34625542D01*
X123249428Y-34596971D01*
X123263714Y-34539828D01*
X123263714Y-34468400D01*
X123249428Y-34411257D01*
X123235142Y-34382685D01*
X123220857Y-34368400D01*
X123192285Y-34354114D01*
X122978000Y-34382685D02*
X122963714Y-34368400D01*
X122935142Y-34354114D01*
X122863714Y-34354114D01*
X122835142Y-34368400D01*
X122820857Y-34382685D01*
X122806571Y-34411257D01*
X122806571Y-34439828D01*
X122820857Y-34482685D01*
X122992285Y-34654114D01*
X122806571Y-34654114D01*
G04 #@! TO.C,R307*
X119345714Y-32055714D02*
X119445714Y-31912857D01*
X119517142Y-32055714D02*
X119517142Y-31755714D01*
X119402857Y-31755714D01*
X119374285Y-31770000D01*
X119360000Y-31784285D01*
X119345714Y-31812857D01*
X119345714Y-31855714D01*
X119360000Y-31884285D01*
X119374285Y-31898571D01*
X119402857Y-31912857D01*
X119517142Y-31912857D01*
X119245714Y-31755714D02*
X119060000Y-31755714D01*
X119160000Y-31870000D01*
X119117142Y-31870000D01*
X119088571Y-31884285D01*
X119074285Y-31898571D01*
X119060000Y-31927142D01*
X119060000Y-31998571D01*
X119074285Y-32027142D01*
X119088571Y-32041428D01*
X119117142Y-32055714D01*
X119202857Y-32055714D01*
X119231428Y-32041428D01*
X119245714Y-32027142D01*
X118874285Y-31755714D02*
X118845714Y-31755714D01*
X118817142Y-31770000D01*
X118802857Y-31784285D01*
X118788571Y-31812857D01*
X118774285Y-31870000D01*
X118774285Y-31941428D01*
X118788571Y-31998571D01*
X118802857Y-32027142D01*
X118817142Y-32041428D01*
X118845714Y-32055714D01*
X118874285Y-32055714D01*
X118902857Y-32041428D01*
X118917142Y-32027142D01*
X118931428Y-31998571D01*
X118945714Y-31941428D01*
X118945714Y-31870000D01*
X118931428Y-31812857D01*
X118917142Y-31784285D01*
X118902857Y-31770000D01*
X118874285Y-31755714D01*
X118674285Y-31755714D02*
X118474285Y-31755714D01*
X118602857Y-32055714D01*
G04 #@! TD*
M02*
