M48
;DRILL file {KiCad (5.0.2)-1} date 5/4/2019 5:05:53 PM
;FORMAT={-:-/ absolute / metric / decimal}
FMAT,2
METRIC,TZ
T1C0.330
T2C0.600
T3C0.805
T4C0.850
T5C1.000
%
G90
G05
T1
X116.094Y-63.109
X116.104Y-28.786
X116.104Y-30.786
X116.104Y-44.786
X116.104Y-46.786
X116.104Y-48.786
X116.104Y-50.786
X116.104Y-52.786
X116.104Y-54.786
X116.104Y-56.786
X116.104Y-58.786
X116.104Y-60.904
X117.422Y-51.828
X117.623Y-56.789
X117.623Y-58.046
X117.659Y-53.208
X117.814Y-62.512
X117.872Y-59.56
X118.22Y-28.796
X118.507Y-30.706
X119.099Y-62.494
X119.112Y-59.532
X119.338Y-31.907
X119.579Y-58.016
X119.592Y-56.789
X120.079Y-63.081
X120.28Y-31.572
X120.28Y-34.62
X120.31Y-59.474
X120.321Y-62.408
X120.534Y-29.54
X120.733Y-36.906
X120.788Y-57.734
X120.846Y-56.69
X121.375Y-59.484
X121.403Y-62.4
X122.058Y-28.27
X122.058Y-40.97
X122.058Y-45.034
X122.058Y-46.812
X122.058Y-48.336
X122.058Y-42.24
X122.094Y-63.109
X122.2Y-39.55
X122.312Y-31.826
X122.312Y-34.112
X122.312Y-56.464
X122.312Y-32.842
X122.444Y-62.395
X122.45Y-51.8
X122.82Y-49.098
X122.95Y-36.55
X123.074Y-55.194
X123.092Y-44.267
X123.092Y-46.267
X123.092Y-48.267
X123.491Y-62.364
X123.546Y-41.44
X123.546Y-42.456
X123.582Y-39.446
X123.582Y-40.462
X123.739Y-59.522
X123.963Y-35.509
X124.094Y-63.109
X124.534Y-32.148
X124.534Y-33.257
X124.816Y-41.44
X124.816Y-42.456
X124.852Y-35.636
X124.852Y-39.446
X124.852Y-40.462
X125.029Y-34.081
X125.062Y-36.551
X125.092Y-44.267
X125.092Y-46.267
X125.092Y-48.267
X126.086Y-41.44
X126.086Y-42.456
X126.094Y-63.109
X126.104Y-28.786
X126.122Y-39.446
X126.122Y-40.462
X126.344Y-36.551
X126.44Y-33.096
X126.558Y-35.61
X126.884Y-58.75
X127.092Y-44.267
X127.092Y-46.267
X127.092Y-48.267
X127.138Y-57.734
X127.356Y-41.44
X127.356Y-42.456
X127.392Y-39.446
X127.392Y-40.462
X127.509Y-36.55
X127.837Y-53.086
X128.094Y-63.109
X128.104Y-28.786
X128.215Y-35.654
X128.72Y-56.436
X128.72Y-60.754
X128.812Y-54.211
X129.092Y-44.267
X129.092Y-46.267
X129.092Y-48.267
X129.17Y-32.334
X129.17Y-33.35
X129.17Y-36.906
X129.333Y-53.109
X129.932Y-31.826
X130.094Y-63.109
X130.104Y-28.786
X130.112Y-47.625
X130.504Y-44.208
X130.7Y-38.3
X130.702Y-39.337
X130.702Y-40.487
X130.704Y-41.597
X130.948Y-47.828
X131.202Y-32.08
X131.202Y-33.35
X131.202Y-34.62
X131.26Y-59.23
X131.71Y-38.176
X131.71Y-52.654
X132.066Y-39.217
X132.094Y-63.109
X132.104Y-28.786
X132.218Y-40.462
X132.218Y-42.494
X132.472Y-47.066
X132.472Y-48.59
X132.525Y-45.341
X132.715Y-52.897
X132.716Y-31.943
X132.726Y-33.045
X132.734Y-34.394
X132.741Y-30.655
X133.292Y-60.754
X133.7Y-51.55
X134.094Y-63.109
X134.104Y-28.786
X135.754Y-30.645
X135.789Y-31.925
X136.094Y-63.109
X136.104Y-28.786
X137.044Y-57.48
X137.135Y-55.705
X137.298Y-34.874
X137.392Y-61.826
X138.094Y-63.109
X138.104Y-28.786
X138.131Y-28.814
X138.131Y-30.814
X138.131Y-32.814
X138.131Y-42.814
X138.131Y-44.814
X138.131Y-46.814
X138.131Y-52.814
X138.131Y-54.814
X138.131Y-56.814
X138.131Y-58.814
X138.131Y-60.814
X138.134Y-40.843
X138.139Y-48.681
X138.162Y-34.814
T2
X116.586Y-33.426
X116.586Y-34.696
X116.586Y-35.966
X116.586Y-37.236
X116.586Y-38.506
X116.586Y-39.776
X116.586Y-41.046
X116.586Y-42.316
X116.586Y-43.586
X119.348Y-51.907
X137.306Y-33.36
T3
X120.772Y-54.686
T4
X118.772Y-54.686
T5
X127.392Y-30.556
X129.932Y-30.556
X137.7Y-50.114
X137.7Y-52.654
X137.7Y-36.906
X137.7Y-39.446
T0
M30
