G04 #@! TF.GenerationSoftware,KiCad,Pcbnew,(5.0.2)-1*
G04 #@! TF.CreationDate,2019-05-04T17:06:02+02:00*
G04 #@! TF.ProjectId,Cowbell_mini,436f7762-656c-46c5-9f6d-696e692e6b69,v0.4*
G04 #@! TF.SameCoordinates,Original*
G04 #@! TF.FileFunction,Legend,Top*
G04 #@! TF.FilePolarity,Positive*
%FSLAX46Y46*%
G04 Gerber Fmt 4.6, Leading zero omitted, Abs format (unit mm)*
G04 Created by KiCad (PCBNEW (5.0.2)-1) date 5/4/2019 5:06:02 PM*
%MOMM*%
%LPD*%
G01*
G04 APERTURE LIST*
%ADD10C,0.075000*%
%ADD11C,0.300000*%
%ADD12C,0.150000*%
%ADD13C,0.125000*%
%ADD14C,0.190500*%
%ADD15C,0.120000*%
%ADD16C,0.050000*%
%ADD17C,0.050800*%
G04 APERTURE END LIST*
D10*
X137404708Y-54591880D02*
X137376137Y-54577594D01*
X137333280Y-54577594D01*
X137290422Y-54591880D01*
X137261851Y-54620451D01*
X137247565Y-54649022D01*
X137233280Y-54706165D01*
X137233280Y-54749022D01*
X137247565Y-54806165D01*
X137261851Y-54834737D01*
X137290422Y-54863308D01*
X137333280Y-54877594D01*
X137361851Y-54877594D01*
X137404708Y-54863308D01*
X137418994Y-54849022D01*
X137418994Y-54749022D01*
X137361851Y-54749022D01*
X137547565Y-54877594D02*
X137547565Y-54577594D01*
X137718994Y-54877594D01*
X137718994Y-54577594D01*
X137861851Y-54877594D02*
X137861851Y-54577594D01*
X137933280Y-54577594D01*
X137976137Y-54591880D01*
X138004708Y-54620451D01*
X138018994Y-54649022D01*
X138033280Y-54706165D01*
X138033280Y-54749022D01*
X138018994Y-54806165D01*
X138004708Y-54834737D01*
X137976137Y-54863308D01*
X137933280Y-54877594D01*
X137861851Y-54877594D01*
X128424254Y-28598474D02*
X128524254Y-28898474D01*
X128624254Y-28598474D01*
X128895682Y-28869902D02*
X128881397Y-28884188D01*
X128838540Y-28898474D01*
X128809968Y-28898474D01*
X128767111Y-28884188D01*
X128738540Y-28855617D01*
X128724254Y-28827045D01*
X128709968Y-28769902D01*
X128709968Y-28727045D01*
X128724254Y-28669902D01*
X128738540Y-28641331D01*
X128767111Y-28612760D01*
X128809968Y-28598474D01*
X128838540Y-28598474D01*
X128881397Y-28612760D01*
X128895682Y-28627045D01*
X129195682Y-28869902D02*
X129181397Y-28884188D01*
X129138540Y-28898474D01*
X129109968Y-28898474D01*
X129067111Y-28884188D01*
X129038540Y-28855617D01*
X129024254Y-28827045D01*
X129009968Y-28769902D01*
X129009968Y-28727045D01*
X129024254Y-28669902D01*
X129038540Y-28641331D01*
X129067111Y-28612760D01*
X129109968Y-28598474D01*
X129138540Y-28598474D01*
X129181397Y-28612760D01*
X129195682Y-28627045D01*
X129481397Y-28612760D02*
X129452825Y-28598474D01*
X129409968Y-28598474D01*
X129367111Y-28612760D01*
X129338540Y-28641331D01*
X129324254Y-28669902D01*
X129309968Y-28727045D01*
X129309968Y-28769902D01*
X129324254Y-28827045D01*
X129338540Y-28855617D01*
X129367111Y-28884188D01*
X129409968Y-28898474D01*
X129438540Y-28898474D01*
X129481397Y-28884188D01*
X129495682Y-28869902D01*
X129495682Y-28769902D01*
X129438540Y-28769902D01*
X129624254Y-28898474D02*
X129624254Y-28598474D01*
X129738540Y-28598474D01*
X129767111Y-28612760D01*
X129781397Y-28627045D01*
X129795682Y-28655617D01*
X129795682Y-28698474D01*
X129781397Y-28727045D01*
X129767111Y-28741331D01*
X129738540Y-28755617D01*
X129624254Y-28755617D01*
X129909968Y-28884188D02*
X129952825Y-28898474D01*
X130024254Y-28898474D01*
X130052825Y-28884188D01*
X130067111Y-28869902D01*
X130081397Y-28841331D01*
X130081397Y-28812760D01*
X130067111Y-28784188D01*
X130052825Y-28769902D01*
X130024254Y-28755617D01*
X129967111Y-28741331D01*
X129938540Y-28727045D01*
X129924254Y-28712760D01*
X129909968Y-28684188D01*
X129909968Y-28655617D01*
X129924254Y-28627045D01*
X129938540Y-28612760D01*
X129967111Y-28598474D01*
X130038540Y-28598474D01*
X130081397Y-28612760D01*
X130138540Y-28927045D02*
X130367111Y-28927045D01*
X130538540Y-28741331D02*
X130581397Y-28755617D01*
X130595682Y-28769902D01*
X130609968Y-28798474D01*
X130609968Y-28841331D01*
X130595682Y-28869902D01*
X130581397Y-28884188D01*
X130552825Y-28898474D01*
X130438540Y-28898474D01*
X130438540Y-28598474D01*
X130538540Y-28598474D01*
X130567111Y-28612760D01*
X130581397Y-28627045D01*
X130595682Y-28655617D01*
X130595682Y-28684188D01*
X130581397Y-28712760D01*
X130567111Y-28727045D01*
X130538540Y-28741331D01*
X130438540Y-28741331D01*
X130867111Y-28898474D02*
X130867111Y-28741331D01*
X130852825Y-28712760D01*
X130824254Y-28698474D01*
X130767111Y-28698474D01*
X130738540Y-28712760D01*
X130867111Y-28884188D02*
X130838540Y-28898474D01*
X130767111Y-28898474D01*
X130738540Y-28884188D01*
X130724254Y-28855617D01*
X130724254Y-28827045D01*
X130738540Y-28798474D01*
X130767111Y-28784188D01*
X130838540Y-28784188D01*
X130867111Y-28769902D01*
X131138540Y-28884188D02*
X131109968Y-28898474D01*
X131052825Y-28898474D01*
X131024254Y-28884188D01*
X131009968Y-28869902D01*
X130995682Y-28841331D01*
X130995682Y-28755617D01*
X131009968Y-28727045D01*
X131024254Y-28712760D01*
X131052825Y-28698474D01*
X131109968Y-28698474D01*
X131138540Y-28712760D01*
X131267111Y-28898474D02*
X131267111Y-28598474D01*
X131295682Y-28784188D02*
X131381397Y-28898474D01*
X131381397Y-28698474D02*
X131267111Y-28812760D01*
X131638540Y-28698474D02*
X131638540Y-28898474D01*
X131509968Y-28698474D02*
X131509968Y-28855617D01*
X131524254Y-28884188D01*
X131552825Y-28898474D01*
X131595682Y-28898474D01*
X131624254Y-28884188D01*
X131638540Y-28869902D01*
X131781397Y-28698474D02*
X131781397Y-28998474D01*
X131781397Y-28712760D02*
X131809968Y-28698474D01*
X131867111Y-28698474D01*
X131895682Y-28712760D01*
X131909968Y-28727045D01*
X131924254Y-28755617D01*
X131924254Y-28841331D01*
X131909968Y-28869902D01*
X131895682Y-28884188D01*
X131867111Y-28898474D01*
X131809968Y-28898474D01*
X131781397Y-28884188D01*
X126967848Y-28561960D02*
X126939277Y-28547674D01*
X126896420Y-28547674D01*
X126853562Y-28561960D01*
X126824991Y-28590531D01*
X126810705Y-28619102D01*
X126796420Y-28676245D01*
X126796420Y-28719102D01*
X126810705Y-28776245D01*
X126824991Y-28804817D01*
X126853562Y-28833388D01*
X126896420Y-28847674D01*
X126924991Y-28847674D01*
X126967848Y-28833388D01*
X126982134Y-28819102D01*
X126982134Y-28719102D01*
X126924991Y-28719102D01*
X127110705Y-28847674D02*
X127110705Y-28547674D01*
X127282134Y-28847674D01*
X127282134Y-28547674D01*
X127424991Y-28847674D02*
X127424991Y-28547674D01*
X127496420Y-28547674D01*
X127539277Y-28561960D01*
X127567848Y-28590531D01*
X127582134Y-28619102D01*
X127596420Y-28676245D01*
X127596420Y-28719102D01*
X127582134Y-28776245D01*
X127567848Y-28804817D01*
X127539277Y-28833388D01*
X127496420Y-28847674D01*
X127424991Y-28847674D01*
D11*
X144478571Y-21050000D02*
X144550000Y-21121428D01*
X144621428Y-21264285D01*
X144621428Y-21621428D01*
X144550000Y-21764285D01*
X144478571Y-21835714D01*
X144335714Y-21907142D01*
X144192857Y-21907142D01*
X143978571Y-21835714D01*
X143121428Y-20978571D01*
X143121428Y-21907142D01*
X143264285Y-22550000D02*
X143192857Y-22621428D01*
X143121428Y-22550000D01*
X143192857Y-22478571D01*
X143264285Y-22550000D01*
X143121428Y-22550000D01*
X144621428Y-23978571D02*
X144621428Y-23264285D01*
X143907142Y-23192857D01*
X143978571Y-23264285D01*
X144050000Y-23407142D01*
X144050000Y-23764285D01*
X143978571Y-23907142D01*
X143907142Y-23978571D01*
X143764285Y-24050000D01*
X143407142Y-24050000D01*
X143264285Y-23978571D01*
X143192857Y-23907142D01*
X143121428Y-23764285D01*
X143121428Y-23407142D01*
X143192857Y-23264285D01*
X143264285Y-23192857D01*
X144621428Y-24978571D02*
X144621428Y-25121428D01*
X144550000Y-25264285D01*
X144478571Y-25335714D01*
X144335714Y-25407142D01*
X144050000Y-25478571D01*
X143692857Y-25478571D01*
X143407142Y-25407142D01*
X143264285Y-25335714D01*
X143192857Y-25264285D01*
X143121428Y-25121428D01*
X143121428Y-24978571D01*
X143192857Y-24835714D01*
X143264285Y-24764285D01*
X143407142Y-24692857D01*
X143692857Y-24621428D01*
X144050000Y-24621428D01*
X144335714Y-24692857D01*
X144478571Y-24764285D01*
X144550000Y-24835714D01*
X144621428Y-24978571D01*
X144621428Y-26407142D02*
X144621428Y-26550000D01*
X144550000Y-26692857D01*
X144478571Y-26764285D01*
X144335714Y-26835714D01*
X144050000Y-26907142D01*
X143692857Y-26907142D01*
X143407142Y-26835714D01*
X143264285Y-26764285D01*
X143192857Y-26692857D01*
X143121428Y-26550000D01*
X143121428Y-26407142D01*
X143192857Y-26264285D01*
X143264285Y-26192857D01*
X143407142Y-26121428D01*
X143692857Y-26050000D01*
X144050000Y-26050000D01*
X144335714Y-26121428D01*
X144478571Y-26192857D01*
X144550000Y-26264285D01*
X144621428Y-26407142D01*
X143121428Y-28692857D02*
X144121428Y-28692857D01*
X143978571Y-28692857D02*
X144050000Y-28764285D01*
X144121428Y-28907142D01*
X144121428Y-29121428D01*
X144050000Y-29264285D01*
X143907142Y-29335714D01*
X143121428Y-29335714D01*
X143907142Y-29335714D02*
X144050000Y-29407142D01*
X144121428Y-29550000D01*
X144121428Y-29764285D01*
X144050000Y-29907142D01*
X143907142Y-29978571D01*
X143121428Y-29978571D01*
X143121428Y-30692857D02*
X144121428Y-30692857D01*
X143978571Y-30692857D02*
X144050000Y-30764285D01*
X144121428Y-30907142D01*
X144121428Y-31121428D01*
X144050000Y-31264285D01*
X143907142Y-31335714D01*
X143121428Y-31335714D01*
X143907142Y-31335714D02*
X144050000Y-31407142D01*
X144121428Y-31550000D01*
X144121428Y-31764285D01*
X144050000Y-31907142D01*
X143907142Y-31978571D01*
X143121428Y-31978571D01*
X141700000Y-25300000D02*
X141700000Y-27800000D01*
X115200000Y-25300000D02*
X142286421Y-25300000D01*
X115200000Y-27800000D02*
X142286421Y-27800000D01*
X141700000Y-27800000D02*
X141113579Y-26673496D01*
X141700000Y-27800000D02*
X142286421Y-26673496D01*
X141700000Y-25300000D02*
X141113579Y-26426504D01*
X141700000Y-25300000D02*
X142286421Y-26426504D01*
D12*
X122932142Y-68644595D02*
X122979761Y-68596976D01*
X123075000Y-68549356D01*
X123313095Y-68549356D01*
X123408333Y-68596976D01*
X123455952Y-68644595D01*
X123503571Y-68739833D01*
X123503571Y-68835071D01*
X123455952Y-68977928D01*
X122884523Y-69549356D01*
X123503571Y-69549356D01*
X123836904Y-68549356D02*
X124455952Y-68549356D01*
X124122619Y-68930309D01*
X124265476Y-68930309D01*
X124360714Y-68977928D01*
X124408333Y-69025547D01*
X124455952Y-69120785D01*
X124455952Y-69358880D01*
X124408333Y-69454118D01*
X124360714Y-69501737D01*
X124265476Y-69549356D01*
X123979761Y-69549356D01*
X123884523Y-69501737D01*
X123836904Y-69454118D01*
X124884523Y-69454118D02*
X124932142Y-69501737D01*
X124884523Y-69549356D01*
X124836904Y-69501737D01*
X124884523Y-69454118D01*
X124884523Y-69549356D01*
X125265476Y-68549356D02*
X125932142Y-68549356D01*
X125503571Y-69549356D01*
X126789285Y-68549356D02*
X126313095Y-68549356D01*
X126265476Y-69025547D01*
X126313095Y-68977928D01*
X126408333Y-68930309D01*
X126646428Y-68930309D01*
X126741666Y-68977928D01*
X126789285Y-69025547D01*
X126836904Y-69120785D01*
X126836904Y-69358880D01*
X126789285Y-69454118D01*
X126741666Y-69501737D01*
X126646428Y-69549356D01*
X126408333Y-69549356D01*
X126313095Y-69501737D01*
X126265476Y-69454118D01*
X127455952Y-68549356D02*
X127551190Y-68549356D01*
X127646428Y-68596976D01*
X127694047Y-68644595D01*
X127741666Y-68739833D01*
X127789285Y-68930309D01*
X127789285Y-69168404D01*
X127741666Y-69358880D01*
X127694047Y-69454118D01*
X127646428Y-69501737D01*
X127551190Y-69549356D01*
X127455952Y-69549356D01*
X127360714Y-69501737D01*
X127313095Y-69454118D01*
X127265476Y-69358880D01*
X127217857Y-69168404D01*
X127217857Y-68930309D01*
X127265476Y-68739833D01*
X127313095Y-68644595D01*
X127360714Y-68596976D01*
X127455952Y-68549356D01*
X128979761Y-69549356D02*
X128979761Y-68882690D01*
X128979761Y-68977928D02*
X129027380Y-68930309D01*
X129122619Y-68882690D01*
X129265476Y-68882690D01*
X129360714Y-68930309D01*
X129408333Y-69025547D01*
X129408333Y-69549356D01*
X129408333Y-69025547D02*
X129455952Y-68930309D01*
X129551190Y-68882690D01*
X129694047Y-68882690D01*
X129789285Y-68930309D01*
X129836904Y-69025547D01*
X129836904Y-69549356D01*
X130313095Y-69549356D02*
X130313095Y-68882690D01*
X130313095Y-68977928D02*
X130360714Y-68930309D01*
X130455952Y-68882690D01*
X130598809Y-68882690D01*
X130694047Y-68930309D01*
X130741666Y-69025547D01*
X130741666Y-69549356D01*
X130741666Y-69025547D02*
X130789285Y-68930309D01*
X130884523Y-68882690D01*
X131027380Y-68882690D01*
X131122619Y-68930309D01*
X131170238Y-69025547D01*
X131170238Y-69549356D01*
X115200000Y-67796976D02*
X138950000Y-67796976D01*
X115200000Y-64800000D02*
X115200000Y-68383397D01*
X138950000Y-64800000D02*
X138950000Y-68383397D01*
X138950000Y-67796976D02*
X137823496Y-68383397D01*
X138950000Y-67796976D02*
X137823496Y-67210555D01*
X115200000Y-67796976D02*
X116326504Y-68383397D01*
X115200000Y-67796976D02*
X116326504Y-67210555D01*
D13*
X118172322Y-52588114D02*
X118553275Y-52588114D01*
X118362799Y-52778590D02*
X118362799Y-52397638D01*
X119338989Y-52516685D02*
X119410418Y-52540495D01*
X119434227Y-52564304D01*
X119458037Y-52611923D01*
X119458037Y-52683352D01*
X119434227Y-52730971D01*
X119410418Y-52754780D01*
X119362799Y-52778590D01*
X119172322Y-52778590D01*
X119172322Y-52278590D01*
X119338989Y-52278590D01*
X119386608Y-52302400D01*
X119410418Y-52326209D01*
X119434227Y-52373828D01*
X119434227Y-52421447D01*
X119410418Y-52469066D01*
X119386608Y-52492876D01*
X119338989Y-52516685D01*
X119172322Y-52516685D01*
X119886608Y-52778590D02*
X119886608Y-52516685D01*
X119862799Y-52469066D01*
X119815180Y-52445257D01*
X119719941Y-52445257D01*
X119672322Y-52469066D01*
X119886608Y-52754780D02*
X119838989Y-52778590D01*
X119719941Y-52778590D01*
X119672322Y-52754780D01*
X119648513Y-52707161D01*
X119648513Y-52659542D01*
X119672322Y-52611923D01*
X119719941Y-52588114D01*
X119838989Y-52588114D01*
X119886608Y-52564304D01*
X120053275Y-52445257D02*
X120243751Y-52445257D01*
X120124703Y-52278590D02*
X120124703Y-52707161D01*
X120148513Y-52754780D01*
X120196132Y-52778590D01*
X120243751Y-52778590D01*
X120338989Y-52445257D02*
X120529465Y-52445257D01*
X120410418Y-52278590D02*
X120410418Y-52707161D01*
X120434227Y-52754780D01*
X120481846Y-52778590D01*
X120529465Y-52778590D01*
X121077084Y-52588114D02*
X121458037Y-52588114D01*
X126697619Y-32330357D02*
X126811904Y-32368452D01*
X126850000Y-32406547D01*
X126888095Y-32482738D01*
X126888095Y-32597023D01*
X126850000Y-32673214D01*
X126811904Y-32711309D01*
X126735714Y-32749404D01*
X126430952Y-32749404D01*
X126430952Y-31949404D01*
X126697619Y-31949404D01*
X126773809Y-31987500D01*
X126811904Y-32025595D01*
X126850000Y-32101785D01*
X126850000Y-32177976D01*
X126811904Y-32254166D01*
X126773809Y-32292261D01*
X126697619Y-32330357D01*
X126430952Y-32330357D01*
X127573809Y-32749404D02*
X127573809Y-32330357D01*
X127535714Y-32254166D01*
X127459523Y-32216071D01*
X127307142Y-32216071D01*
X127230952Y-32254166D01*
X127573809Y-32711309D02*
X127497619Y-32749404D01*
X127307142Y-32749404D01*
X127230952Y-32711309D01*
X127192857Y-32635119D01*
X127192857Y-32558928D01*
X127230952Y-32482738D01*
X127307142Y-32444642D01*
X127497619Y-32444642D01*
X127573809Y-32406547D01*
X128297619Y-32711309D02*
X128221428Y-32749404D01*
X128069047Y-32749404D01*
X127992857Y-32711309D01*
X127954761Y-32673214D01*
X127916666Y-32597023D01*
X127916666Y-32368452D01*
X127954761Y-32292261D01*
X127992857Y-32254166D01*
X128069047Y-32216071D01*
X128221428Y-32216071D01*
X128297619Y-32254166D01*
X128640476Y-32749404D02*
X128640476Y-31949404D01*
X128716666Y-32444642D02*
X128945238Y-32749404D01*
X128945238Y-32216071D02*
X128640476Y-32520833D01*
X129288095Y-31949404D02*
X129288095Y-32597023D01*
X129326190Y-32673214D01*
X129364285Y-32711309D01*
X129440476Y-32749404D01*
X129592857Y-32749404D01*
X129669047Y-32711309D01*
X129707142Y-32673214D01*
X129745238Y-32597023D01*
X129745238Y-31949404D01*
X130126190Y-32216071D02*
X130126190Y-33016071D01*
X130126190Y-32254166D02*
X130202380Y-32216071D01*
X130354761Y-32216071D01*
X130430952Y-32254166D01*
X130469047Y-32292261D01*
X130507142Y-32368452D01*
X130507142Y-32597023D01*
X130469047Y-32673214D01*
X130430952Y-32711309D01*
X130354761Y-32749404D01*
X130202380Y-32749404D01*
X130126190Y-32711309D01*
X127688095Y-33655357D02*
X127802380Y-33693452D01*
X127840476Y-33731547D01*
X127878571Y-33807738D01*
X127878571Y-33922023D01*
X127840476Y-33998214D01*
X127802380Y-34036309D01*
X127726190Y-34074404D01*
X127421428Y-34074404D01*
X127421428Y-33274404D01*
X127688095Y-33274404D01*
X127764285Y-33312500D01*
X127802380Y-33350595D01*
X127840476Y-33426785D01*
X127840476Y-33502976D01*
X127802380Y-33579166D01*
X127764285Y-33617261D01*
X127688095Y-33655357D01*
X127421428Y-33655357D01*
X128564285Y-34074404D02*
X128564285Y-33655357D01*
X128526190Y-33579166D01*
X128450000Y-33541071D01*
X128297619Y-33541071D01*
X128221428Y-33579166D01*
X128564285Y-34036309D02*
X128488095Y-34074404D01*
X128297619Y-34074404D01*
X128221428Y-34036309D01*
X128183333Y-33960119D01*
X128183333Y-33883928D01*
X128221428Y-33807738D01*
X128297619Y-33769642D01*
X128488095Y-33769642D01*
X128564285Y-33731547D01*
X128830952Y-33541071D02*
X129135714Y-33541071D01*
X128945238Y-33274404D02*
X128945238Y-33960119D01*
X128983333Y-34036309D01*
X129059523Y-34074404D01*
X129135714Y-34074404D01*
X129288095Y-33541071D02*
X129592857Y-33541071D01*
X129402380Y-33274404D02*
X129402380Y-33960119D01*
X129440476Y-34036309D01*
X129516666Y-34074404D01*
X129592857Y-34074404D01*
D14*
X121910285Y-47715964D02*
X122091714Y-48477964D01*
X122236857Y-47933678D01*
X122382000Y-48477964D01*
X122563428Y-47715964D01*
X122853714Y-48477964D02*
X122853714Y-47969964D01*
X122853714Y-47715964D02*
X122817428Y-47752250D01*
X122853714Y-47788535D01*
X122890000Y-47752250D01*
X122853714Y-47715964D01*
X122853714Y-47788535D01*
X123470571Y-48078821D02*
X123216571Y-48078821D01*
X123216571Y-48477964D02*
X123216571Y-47715964D01*
X123579428Y-47715964D01*
X123869714Y-48477964D02*
X123869714Y-47969964D01*
X123869714Y-47715964D02*
X123833428Y-47752250D01*
X123869714Y-47788535D01*
X123906000Y-47752250D01*
X123869714Y-47715964D01*
X123869714Y-47788535D01*
X125430000Y-48477964D02*
X125393714Y-48477964D01*
X125321142Y-48441678D01*
X125212285Y-48332821D01*
X125030857Y-48115107D01*
X124958285Y-48006250D01*
X124922000Y-47897392D01*
X124922000Y-47824821D01*
X124958285Y-47752250D01*
X125030857Y-47715964D01*
X125067142Y-47715964D01*
X125139714Y-47752250D01*
X125176000Y-47824821D01*
X125176000Y-47861107D01*
X125139714Y-47933678D01*
X125103428Y-47969964D01*
X124885714Y-48115107D01*
X124849428Y-48151392D01*
X124813142Y-48223964D01*
X124813142Y-48332821D01*
X124849428Y-48405392D01*
X124885714Y-48441678D01*
X124958285Y-48477964D01*
X125067142Y-48477964D01*
X125139714Y-48441678D01*
X125176000Y-48405392D01*
X125284857Y-48260250D01*
X125321142Y-48151392D01*
X125321142Y-48078821D01*
X126591142Y-48078821D02*
X126700000Y-48115107D01*
X126736285Y-48151392D01*
X126772571Y-48223964D01*
X126772571Y-48332821D01*
X126736285Y-48405392D01*
X126700000Y-48441678D01*
X126627428Y-48477964D01*
X126337142Y-48477964D01*
X126337142Y-47715964D01*
X126591142Y-47715964D01*
X126663714Y-47752250D01*
X126700000Y-47788535D01*
X126736285Y-47861107D01*
X126736285Y-47933678D01*
X126700000Y-48006250D01*
X126663714Y-48042535D01*
X126591142Y-48078821D01*
X126337142Y-48078821D01*
X127208000Y-48477964D02*
X127135428Y-48441678D01*
X127099142Y-48369107D01*
X127099142Y-47715964D01*
X127824857Y-47969964D02*
X127824857Y-48477964D01*
X127498285Y-47969964D02*
X127498285Y-48369107D01*
X127534571Y-48441678D01*
X127607142Y-48477964D01*
X127716000Y-48477964D01*
X127788571Y-48441678D01*
X127824857Y-48405392D01*
X128478000Y-48441678D02*
X128405428Y-48477964D01*
X128260285Y-48477964D01*
X128187714Y-48441678D01*
X128151428Y-48369107D01*
X128151428Y-48078821D01*
X128187714Y-48006250D01*
X128260285Y-47969964D01*
X128405428Y-47969964D01*
X128478000Y-48006250D01*
X128514285Y-48078821D01*
X128514285Y-48151392D01*
X128151428Y-48223964D01*
X128732000Y-47969964D02*
X129022285Y-47969964D01*
X128840857Y-47715964D02*
X128840857Y-48369107D01*
X128877142Y-48441678D01*
X128949714Y-48477964D01*
X129022285Y-48477964D01*
X129385142Y-48477964D02*
X129312571Y-48441678D01*
X129276285Y-48405392D01*
X129240000Y-48332821D01*
X129240000Y-48115107D01*
X129276285Y-48042535D01*
X129312571Y-48006250D01*
X129385142Y-47969964D01*
X129494000Y-47969964D01*
X129566571Y-48006250D01*
X129602857Y-48042535D01*
X129639142Y-48115107D01*
X129639142Y-48332821D01*
X129602857Y-48405392D01*
X129566571Y-48441678D01*
X129494000Y-48477964D01*
X129385142Y-48477964D01*
X130074571Y-48477964D02*
X130002000Y-48441678D01*
X129965714Y-48405392D01*
X129929428Y-48332821D01*
X129929428Y-48115107D01*
X129965714Y-48042535D01*
X130002000Y-48006250D01*
X130074571Y-47969964D01*
X130183428Y-47969964D01*
X130256000Y-48006250D01*
X130292285Y-48042535D01*
X130328571Y-48115107D01*
X130328571Y-48332821D01*
X130292285Y-48405392D01*
X130256000Y-48441678D01*
X130183428Y-48477964D01*
X130074571Y-48477964D01*
X130546285Y-47969964D02*
X130836571Y-47969964D01*
X130655142Y-47715964D02*
X130655142Y-48369107D01*
X130691428Y-48441678D01*
X130764000Y-48477964D01*
X130836571Y-48477964D01*
X131090571Y-48477964D02*
X131090571Y-47715964D01*
X131417142Y-48477964D02*
X131417142Y-48078821D01*
X131380857Y-48006250D01*
X131308285Y-47969964D01*
X131199428Y-47969964D01*
X131126857Y-48006250D01*
X131090571Y-48042535D01*
X120948714Y-49412321D02*
X121202714Y-49412321D01*
X121311571Y-49811464D02*
X120948714Y-49811464D01*
X120948714Y-49049464D01*
X121311571Y-49049464D01*
X121601857Y-49775178D02*
X121710714Y-49811464D01*
X121892142Y-49811464D01*
X121964714Y-49775178D01*
X122001000Y-49738892D01*
X122037285Y-49666321D01*
X122037285Y-49593750D01*
X122001000Y-49521178D01*
X121964714Y-49484892D01*
X121892142Y-49448607D01*
X121747000Y-49412321D01*
X121674428Y-49376035D01*
X121638142Y-49339750D01*
X121601857Y-49267178D01*
X121601857Y-49194607D01*
X121638142Y-49122035D01*
X121674428Y-49085750D01*
X121747000Y-49049464D01*
X121928428Y-49049464D01*
X122037285Y-49085750D01*
X122363857Y-49811464D02*
X122363857Y-49049464D01*
X122654142Y-49049464D01*
X122726714Y-49085750D01*
X122763000Y-49122035D01*
X122799285Y-49194607D01*
X122799285Y-49303464D01*
X122763000Y-49376035D01*
X122726714Y-49412321D01*
X122654142Y-49448607D01*
X122363857Y-49448607D01*
X123053285Y-49049464D02*
X123525000Y-49049464D01*
X123271000Y-49339750D01*
X123379857Y-49339750D01*
X123452428Y-49376035D01*
X123488714Y-49412321D01*
X123525000Y-49484892D01*
X123525000Y-49666321D01*
X123488714Y-49738892D01*
X123452428Y-49775178D01*
X123379857Y-49811464D01*
X123162142Y-49811464D01*
X123089571Y-49775178D01*
X123053285Y-49738892D01*
X123815285Y-49122035D02*
X123851571Y-49085750D01*
X123924142Y-49049464D01*
X124105571Y-49049464D01*
X124178142Y-49085750D01*
X124214428Y-49122035D01*
X124250714Y-49194607D01*
X124250714Y-49267178D01*
X124214428Y-49376035D01*
X123779000Y-49811464D01*
X124250714Y-49811464D01*
X124577285Y-49521178D02*
X125157857Y-49521178D01*
X125448142Y-49049464D02*
X125629571Y-49811464D01*
X125774714Y-49267178D01*
X125919857Y-49811464D01*
X126101285Y-49049464D01*
X126827000Y-49811464D02*
X126573000Y-49448607D01*
X126391571Y-49811464D02*
X126391571Y-49049464D01*
X126681857Y-49049464D01*
X126754428Y-49085750D01*
X126790714Y-49122035D01*
X126827000Y-49194607D01*
X126827000Y-49303464D01*
X126790714Y-49376035D01*
X126754428Y-49412321D01*
X126681857Y-49448607D01*
X126391571Y-49448607D01*
X127298714Y-49049464D02*
X127443857Y-49049464D01*
X127516428Y-49085750D01*
X127589000Y-49158321D01*
X127625285Y-49303464D01*
X127625285Y-49557464D01*
X127589000Y-49702607D01*
X127516428Y-49775178D01*
X127443857Y-49811464D01*
X127298714Y-49811464D01*
X127226142Y-49775178D01*
X127153571Y-49702607D01*
X127117285Y-49557464D01*
X127117285Y-49303464D01*
X127153571Y-49158321D01*
X127226142Y-49085750D01*
X127298714Y-49049464D01*
X128097000Y-49049464D02*
X128242142Y-49049464D01*
X128314714Y-49085750D01*
X128387285Y-49158321D01*
X128423571Y-49303464D01*
X128423571Y-49557464D01*
X128387285Y-49702607D01*
X128314714Y-49775178D01*
X128242142Y-49811464D01*
X128097000Y-49811464D01*
X128024428Y-49775178D01*
X127951857Y-49702607D01*
X127915571Y-49557464D01*
X127915571Y-49303464D01*
X127951857Y-49158321D01*
X128024428Y-49085750D01*
X128097000Y-49049464D01*
X128750142Y-49811464D02*
X128750142Y-49049464D01*
X129004142Y-49593750D01*
X129258142Y-49049464D01*
X129258142Y-49811464D01*
X129621000Y-49521178D02*
X130201571Y-49521178D01*
X130491857Y-49049464D02*
X130963571Y-49049464D01*
X130709571Y-49339750D01*
X130818428Y-49339750D01*
X130891000Y-49376035D01*
X130927285Y-49412321D01*
X130963571Y-49484892D01*
X130963571Y-49666321D01*
X130927285Y-49738892D01*
X130891000Y-49775178D01*
X130818428Y-49811464D01*
X130600714Y-49811464D01*
X130528142Y-49775178D01*
X130491857Y-49738892D01*
X131253857Y-49122035D02*
X131290142Y-49085750D01*
X131362714Y-49049464D01*
X131544142Y-49049464D01*
X131616714Y-49085750D01*
X131653000Y-49122035D01*
X131689285Y-49194607D01*
X131689285Y-49267178D01*
X131653000Y-49376035D01*
X131217571Y-49811464D01*
X131689285Y-49811464D01*
X132015857Y-49049464D02*
X132015857Y-49666321D01*
X132052142Y-49738892D01*
X132088428Y-49775178D01*
X132161000Y-49811464D01*
X132306142Y-49811464D01*
X132378714Y-49775178D01*
X132415000Y-49738892D01*
X132451285Y-49666321D01*
X132451285Y-49049464D01*
D11*
X109913736Y-39639285D02*
X109913736Y-40567857D01*
X109342308Y-40067857D01*
X109342308Y-40282142D01*
X109270879Y-40425000D01*
X109199450Y-40496428D01*
X109056593Y-40567857D01*
X108699450Y-40567857D01*
X108556593Y-40496428D01*
X108485165Y-40425000D01*
X108413736Y-40282142D01*
X108413736Y-39853571D01*
X108485165Y-39710714D01*
X108556593Y-39639285D01*
X109913736Y-41853571D02*
X109913736Y-41567857D01*
X109842308Y-41425000D01*
X109770879Y-41353571D01*
X109556593Y-41210714D01*
X109270879Y-41139285D01*
X108699450Y-41139285D01*
X108556593Y-41210714D01*
X108485165Y-41282142D01*
X108413736Y-41425000D01*
X108413736Y-41710714D01*
X108485165Y-41853571D01*
X108556593Y-41925000D01*
X108699450Y-41996428D01*
X109056593Y-41996428D01*
X109199450Y-41925000D01*
X109270879Y-41853571D01*
X109342308Y-41710714D01*
X109342308Y-41425000D01*
X109270879Y-41282142D01*
X109199450Y-41210714D01*
X109056593Y-41139285D01*
X108556593Y-42639285D02*
X108485165Y-42710714D01*
X108413736Y-42639285D01*
X108485165Y-42567857D01*
X108556593Y-42639285D01*
X108413736Y-42639285D01*
X109770879Y-43282142D02*
X109842308Y-43353571D01*
X109913736Y-43496428D01*
X109913736Y-43853571D01*
X109842308Y-43996428D01*
X109770879Y-44067857D01*
X109628022Y-44139285D01*
X109485165Y-44139285D01*
X109270879Y-44067857D01*
X108413736Y-43210714D01*
X108413736Y-44139285D01*
X109913736Y-45496428D02*
X109913736Y-44782142D01*
X109199450Y-44710714D01*
X109270879Y-44782142D01*
X109342308Y-44925000D01*
X109342308Y-45282142D01*
X109270879Y-45425000D01*
X109199450Y-45496428D01*
X109056593Y-45567857D01*
X108699450Y-45567857D01*
X108556593Y-45496428D01*
X108485165Y-45425000D01*
X108413736Y-45282142D01*
X108413736Y-44925000D01*
X108485165Y-44782142D01*
X108556593Y-44710714D01*
X109913736Y-46496428D02*
X109913736Y-46639285D01*
X109842308Y-46782142D01*
X109770879Y-46853571D01*
X109628022Y-46925000D01*
X109342308Y-46996428D01*
X108985165Y-46996428D01*
X108699450Y-46925000D01*
X108556593Y-46853571D01*
X108485165Y-46782142D01*
X108413736Y-46639285D01*
X108413736Y-46496428D01*
X108485165Y-46353571D01*
X108556593Y-46282142D01*
X108699450Y-46210714D01*
X108985165Y-46139285D01*
X109342308Y-46139285D01*
X109628022Y-46210714D01*
X109770879Y-46282142D01*
X109842308Y-46353571D01*
X109913736Y-46496428D01*
X108413736Y-48782142D02*
X109413736Y-48782142D01*
X109270879Y-48782142D02*
X109342308Y-48853571D01*
X109413736Y-48996428D01*
X109413736Y-49210714D01*
X109342308Y-49353571D01*
X109199450Y-49425000D01*
X108413736Y-49425000D01*
X109199450Y-49425000D02*
X109342308Y-49496428D01*
X109413736Y-49639285D01*
X109413736Y-49853571D01*
X109342308Y-49996428D01*
X109199450Y-50067857D01*
X108413736Y-50067857D01*
X108413736Y-50782142D02*
X109413736Y-50782142D01*
X109270879Y-50782142D02*
X109342308Y-50853571D01*
X109413736Y-50996428D01*
X109413736Y-51210714D01*
X109342308Y-51353571D01*
X109199450Y-51425000D01*
X108413736Y-51425000D01*
X109199450Y-51425000D02*
X109342308Y-51496428D01*
X109413736Y-51639285D01*
X109413736Y-51853571D01*
X109342308Y-51996428D01*
X109199450Y-52067857D01*
X108413736Y-52067857D01*
X111192308Y-27800000D02*
X111192308Y-64050000D01*
X114700000Y-27800000D02*
X110605887Y-27800000D01*
X114700000Y-64050000D02*
X110605887Y-64050000D01*
X111192308Y-64050000D02*
X110605887Y-62923496D01*
X111192308Y-64050000D02*
X111778729Y-62923496D01*
X111192308Y-27800000D02*
X110605887Y-28926504D01*
X111192308Y-27800000D02*
X111778729Y-28926504D01*
D12*
G04 #@! TO.C,U103*
X136525000Y-31965000D02*
X136150000Y-31965000D01*
X136150000Y-31965000D02*
X136150000Y-32190000D01*
X136525000Y-51465000D02*
X136150000Y-51465000D01*
X136150000Y-51465000D02*
X136150000Y-51240000D01*
X117475000Y-51465000D02*
X117850000Y-51465000D01*
X117850000Y-51465000D02*
X117850000Y-51240000D01*
X117475000Y-31965000D02*
X117000000Y-31965000D01*
D15*
G04 #@! TO.C,C204*
X119124000Y-29555221D02*
X119124000Y-29880779D01*
X120144000Y-29555221D02*
X120144000Y-29880779D01*
G04 #@! TO.C,C201*
X124970000Y-29880779D02*
X124970000Y-29555221D01*
X123950000Y-29880779D02*
X123950000Y-29555221D01*
G04 #@! TO.C,U5*
X129630000Y-57630000D02*
X132090000Y-57630000D01*
X129630000Y-60830000D02*
X129630000Y-57630000D01*
X132890000Y-60830000D02*
X129630000Y-60830000D01*
X132890000Y-58430000D02*
X132890000Y-60830000D01*
X132090000Y-57630000D02*
X132890000Y-58430000D01*
G04 #@! TO.C,R501*
X129653267Y-61514000D02*
X129310733Y-61514000D01*
X129653267Y-62534000D02*
X129310733Y-62534000D01*
G04 #@! TO.C,L501*
X129560000Y-53870000D02*
X132160000Y-53870000D01*
X129560000Y-56970000D02*
X129560000Y-53870000D01*
X132960000Y-56970000D02*
X129560000Y-56970000D01*
X132960000Y-54670000D02*
X132960000Y-56970000D01*
X132160000Y-53870000D02*
X132960000Y-54670000D01*
G04 #@! TO.C,C504*
X132621221Y-62534000D02*
X132946779Y-62534000D01*
X132621221Y-61514000D02*
X132946779Y-61514000D01*
G04 #@! TO.C,C503*
X133544000Y-58305221D02*
X133544000Y-58630779D01*
X134564000Y-58305221D02*
X134564000Y-58630779D01*
G04 #@! TO.C,C502*
X135322000Y-58305221D02*
X135322000Y-58630779D01*
X136342000Y-58305221D02*
X136342000Y-58630779D01*
G04 #@! TO.C,C501*
X127956000Y-58305221D02*
X127956000Y-58630779D01*
X128976000Y-58305221D02*
X128976000Y-58630779D01*
D12*
G04 #@! TO.C,Q102*
X126227000Y-55980000D02*
X126227000Y-58180000D01*
X123477000Y-55980000D02*
X126227000Y-55980000D01*
X123477000Y-58980000D02*
X123477000Y-55980000D01*
X125427000Y-58980000D02*
X123477000Y-58980000D01*
X126227000Y-58180000D02*
X125427000Y-58980000D01*
D15*
G04 #@! TO.C,R101*
X125531267Y-54176000D02*
X125188733Y-54176000D01*
X125531267Y-55196000D02*
X125188733Y-55196000D01*
G04 #@! TO.C,R302*
X135268000Y-54340779D02*
X135268000Y-54015221D01*
X134248000Y-54340779D02*
X134248000Y-54015221D01*
D12*
G04 #@! TO.C,BT101*
X117672000Y-53086000D02*
X116672000Y-53086000D01*
X117672000Y-54686000D02*
X117672000Y-53086000D01*
X121872000Y-54686000D02*
X117672000Y-54686000D01*
X121872000Y-53086000D02*
X121872000Y-54686000D01*
X122872000Y-60736000D02*
X122872000Y-53136000D01*
X116672000Y-60736000D02*
X122872000Y-60736000D01*
X116672000Y-53136000D02*
X116672000Y-60686000D01*
X122872000Y-53136000D02*
X121872000Y-53136000D01*
G04 #@! TO.C,U102*
X121452990Y-31451000D02*
G75*
G03X121452990Y-31451000I-141990J0D01*
G01*
X121050000Y-30800000D02*
X121050000Y-30937500D01*
X123350000Y-30950000D02*
X123200000Y-30950000D01*
X123350000Y-30800000D02*
X123350000Y-30950000D01*
X123350000Y-28650000D02*
X123200000Y-28650000D01*
X123350000Y-28800000D02*
X123350000Y-28650000D01*
X121050000Y-28650000D02*
X121200000Y-28650000D01*
X121050000Y-28800000D02*
X121050000Y-28650000D01*
D15*
G04 #@! TO.C,J105*
X136370000Y-48784000D02*
X137700000Y-48784000D01*
X136370000Y-50114000D02*
X136370000Y-48784000D01*
X136370000Y-51384000D02*
X139030000Y-51384000D01*
X139030000Y-51384000D02*
X139030000Y-53984000D01*
X136370000Y-51384000D02*
X136370000Y-53984000D01*
X136370000Y-53984000D02*
X139030000Y-53984000D01*
G04 #@! TO.C,J102*
X131262000Y-29226000D02*
X131262000Y-30556000D01*
X129932000Y-29226000D02*
X131262000Y-29226000D01*
X128662000Y-29226000D02*
X128662000Y-31886000D01*
X128662000Y-31886000D02*
X126062000Y-31886000D01*
X128662000Y-29226000D02*
X126062000Y-29226000D01*
X126062000Y-29226000D02*
X126062000Y-31886000D01*
G04 #@! TO.C,J104*
X139030000Y-35576000D02*
X136370000Y-35576000D01*
X139030000Y-38176000D02*
X139030000Y-35576000D01*
X136370000Y-38176000D02*
X136370000Y-35576000D01*
X139030000Y-38176000D02*
X136370000Y-38176000D01*
X139030000Y-39446000D02*
X139030000Y-40776000D01*
X139030000Y-40776000D02*
X137700000Y-40776000D01*
G04 #@! TO.C,U103*
D12*
X132485714Y-30752380D02*
X132485714Y-31561904D01*
X132533333Y-31657142D01*
X132580952Y-31704761D01*
X132676190Y-31752380D01*
X132866666Y-31752380D01*
X132961904Y-31704761D01*
X133009523Y-31657142D01*
X133057142Y-31561904D01*
X133057142Y-30752380D01*
X134057142Y-31752380D02*
X133485714Y-31752380D01*
X133771428Y-31752380D02*
X133771428Y-30752380D01*
X133676190Y-30895238D01*
X133580952Y-30990476D01*
X133485714Y-31038095D01*
X134676190Y-30752380D02*
X134771428Y-30752380D01*
X134866666Y-30800000D01*
X134914285Y-30847619D01*
X134961904Y-30942857D01*
X135009523Y-31133333D01*
X135009523Y-31371428D01*
X134961904Y-31561904D01*
X134914285Y-31657142D01*
X134866666Y-31704761D01*
X134771428Y-31752380D01*
X134676190Y-31752380D01*
X134580952Y-31704761D01*
X134533333Y-31657142D01*
X134485714Y-31561904D01*
X134438095Y-31371428D01*
X134438095Y-31133333D01*
X134485714Y-30942857D01*
X134533333Y-30847619D01*
X134580952Y-30800000D01*
X134676190Y-30752380D01*
X135342857Y-30752380D02*
X135961904Y-30752380D01*
X135628571Y-31133333D01*
X135771428Y-31133333D01*
X135866666Y-31180952D01*
X135914285Y-31228571D01*
X135961904Y-31323809D01*
X135961904Y-31561904D01*
X135914285Y-31657142D01*
X135866666Y-31704761D01*
X135771428Y-31752380D01*
X135485714Y-31752380D01*
X135390476Y-31704761D01*
X135342857Y-31657142D01*
G04 #@! TO.C,C204*
D16*
X121171142Y-30053714D02*
X121185428Y-30068000D01*
X121199714Y-30110857D01*
X121199714Y-30139428D01*
X121185428Y-30182285D01*
X121156857Y-30210857D01*
X121128285Y-30225142D01*
X121071142Y-30239428D01*
X121028285Y-30239428D01*
X120971142Y-30225142D01*
X120942571Y-30210857D01*
X120914000Y-30182285D01*
X120899714Y-30139428D01*
X120899714Y-30110857D01*
X120914000Y-30068000D01*
X120928285Y-30053714D01*
X120928285Y-29939428D02*
X120914000Y-29925142D01*
X120899714Y-29896571D01*
X120899714Y-29825142D01*
X120914000Y-29796571D01*
X120928285Y-29782285D01*
X120956857Y-29768000D01*
X120985428Y-29768000D01*
X121028285Y-29782285D01*
X121199714Y-29953714D01*
X121199714Y-29768000D01*
X120899714Y-29582285D02*
X120899714Y-29553714D01*
X120914000Y-29525142D01*
X120928285Y-29510857D01*
X120956857Y-29496571D01*
X121014000Y-29482285D01*
X121085428Y-29482285D01*
X121142571Y-29496571D01*
X121171142Y-29510857D01*
X121185428Y-29525142D01*
X121199714Y-29553714D01*
X121199714Y-29582285D01*
X121185428Y-29610857D01*
X121171142Y-29625142D01*
X121142571Y-29639428D01*
X121085428Y-29653714D01*
X121014000Y-29653714D01*
X120956857Y-29639428D01*
X120928285Y-29625142D01*
X120914000Y-29610857D01*
X120899714Y-29582285D01*
X120999714Y-29225142D02*
X121199714Y-29225142D01*
X120885428Y-29296571D02*
X121099714Y-29368000D01*
X121099714Y-29182285D01*
G04 #@! TO.C,C201*
X123137142Y-30053714D02*
X123151428Y-30068000D01*
X123165714Y-30110857D01*
X123165714Y-30139428D01*
X123151428Y-30182285D01*
X123122857Y-30210857D01*
X123094285Y-30225142D01*
X123037142Y-30239428D01*
X122994285Y-30239428D01*
X122937142Y-30225142D01*
X122908571Y-30210857D01*
X122880000Y-30182285D01*
X122865714Y-30139428D01*
X122865714Y-30110857D01*
X122880000Y-30068000D01*
X122894285Y-30053714D01*
X122894285Y-29939428D02*
X122880000Y-29925142D01*
X122865714Y-29896571D01*
X122865714Y-29825142D01*
X122880000Y-29796571D01*
X122894285Y-29782285D01*
X122922857Y-29768000D01*
X122951428Y-29768000D01*
X122994285Y-29782285D01*
X123165714Y-29953714D01*
X123165714Y-29768000D01*
X122865714Y-29582285D02*
X122865714Y-29553714D01*
X122880000Y-29525142D01*
X122894285Y-29510857D01*
X122922857Y-29496571D01*
X122980000Y-29482285D01*
X123051428Y-29482285D01*
X123108571Y-29496571D01*
X123137142Y-29510857D01*
X123151428Y-29525142D01*
X123165714Y-29553714D01*
X123165714Y-29582285D01*
X123151428Y-29610857D01*
X123137142Y-29625142D01*
X123108571Y-29639428D01*
X123051428Y-29653714D01*
X122980000Y-29653714D01*
X122922857Y-29639428D01*
X122894285Y-29625142D01*
X122880000Y-29610857D01*
X122865714Y-29582285D01*
X123165714Y-29196571D02*
X123165714Y-29368000D01*
X123165714Y-29282285D02*
X122865714Y-29282285D01*
X122908571Y-29310857D01*
X122937142Y-29339428D01*
X122951428Y-29368000D01*
G04 #@! TO.C,U5*
X132809428Y-57287714D02*
X132809428Y-57530571D01*
X132823714Y-57559142D01*
X132838000Y-57573428D01*
X132866571Y-57587714D01*
X132923714Y-57587714D01*
X132952285Y-57573428D01*
X132966571Y-57559142D01*
X132980857Y-57530571D01*
X132980857Y-57287714D01*
X133266571Y-57287714D02*
X133123714Y-57287714D01*
X133109428Y-57430571D01*
X133123714Y-57416285D01*
X133152285Y-57402000D01*
X133223714Y-57402000D01*
X133252285Y-57416285D01*
X133266571Y-57430571D01*
X133280857Y-57459142D01*
X133280857Y-57530571D01*
X133266571Y-57559142D01*
X133252285Y-57573428D01*
X133223714Y-57587714D01*
X133152285Y-57587714D01*
X133123714Y-57573428D01*
X133109428Y-57559142D01*
G04 #@! TO.C,R501*
X129146285Y-63589714D02*
X129046285Y-63446857D01*
X128974857Y-63589714D02*
X128974857Y-63289714D01*
X129089142Y-63289714D01*
X129117714Y-63304000D01*
X129132000Y-63318285D01*
X129146285Y-63346857D01*
X129146285Y-63389714D01*
X129132000Y-63418285D01*
X129117714Y-63432571D01*
X129089142Y-63446857D01*
X128974857Y-63446857D01*
X129417714Y-63289714D02*
X129274857Y-63289714D01*
X129260571Y-63432571D01*
X129274857Y-63418285D01*
X129303428Y-63404000D01*
X129374857Y-63404000D01*
X129403428Y-63418285D01*
X129417714Y-63432571D01*
X129432000Y-63461142D01*
X129432000Y-63532571D01*
X129417714Y-63561142D01*
X129403428Y-63575428D01*
X129374857Y-63589714D01*
X129303428Y-63589714D01*
X129274857Y-63575428D01*
X129260571Y-63561142D01*
X129617714Y-63289714D02*
X129646285Y-63289714D01*
X129674857Y-63304000D01*
X129689142Y-63318285D01*
X129703428Y-63346857D01*
X129717714Y-63404000D01*
X129717714Y-63475428D01*
X129703428Y-63532571D01*
X129689142Y-63561142D01*
X129674857Y-63575428D01*
X129646285Y-63589714D01*
X129617714Y-63589714D01*
X129589142Y-63575428D01*
X129574857Y-63561142D01*
X129560571Y-63532571D01*
X129546285Y-63475428D01*
X129546285Y-63404000D01*
X129560571Y-63346857D01*
X129574857Y-63318285D01*
X129589142Y-63304000D01*
X129617714Y-63289714D01*
X130003428Y-63589714D02*
X129832000Y-63589714D01*
X129917714Y-63589714D02*
X129917714Y-63289714D01*
X129889142Y-63332571D01*
X129860571Y-63361142D01*
X129832000Y-63375428D01*
G04 #@! TO.C,L501*
X129654285Y-53523714D02*
X129511428Y-53523714D01*
X129511428Y-53223714D01*
X129897142Y-53223714D02*
X129754285Y-53223714D01*
X129740000Y-53366571D01*
X129754285Y-53352285D01*
X129782857Y-53338000D01*
X129854285Y-53338000D01*
X129882857Y-53352285D01*
X129897142Y-53366571D01*
X129911428Y-53395142D01*
X129911428Y-53466571D01*
X129897142Y-53495142D01*
X129882857Y-53509428D01*
X129854285Y-53523714D01*
X129782857Y-53523714D01*
X129754285Y-53509428D01*
X129740000Y-53495142D01*
X130097142Y-53223714D02*
X130125714Y-53223714D01*
X130154285Y-53238000D01*
X130168571Y-53252285D01*
X130182857Y-53280857D01*
X130197142Y-53338000D01*
X130197142Y-53409428D01*
X130182857Y-53466571D01*
X130168571Y-53495142D01*
X130154285Y-53509428D01*
X130125714Y-53523714D01*
X130097142Y-53523714D01*
X130068571Y-53509428D01*
X130054285Y-53495142D01*
X130040000Y-53466571D01*
X130025714Y-53409428D01*
X130025714Y-53338000D01*
X130040000Y-53280857D01*
X130054285Y-53252285D01*
X130068571Y-53238000D01*
X130097142Y-53223714D01*
X130482857Y-53523714D02*
X130311428Y-53523714D01*
X130397142Y-53523714D02*
X130397142Y-53223714D01*
X130368571Y-53266571D01*
X130340000Y-53295142D01*
X130311428Y-53309428D01*
G04 #@! TO.C,C504*
X133464285Y-63401142D02*
X133450000Y-63415428D01*
X133407142Y-63429714D01*
X133378571Y-63429714D01*
X133335714Y-63415428D01*
X133307142Y-63386857D01*
X133292857Y-63358285D01*
X133278571Y-63301142D01*
X133278571Y-63258285D01*
X133292857Y-63201142D01*
X133307142Y-63172571D01*
X133335714Y-63144000D01*
X133378571Y-63129714D01*
X133407142Y-63129714D01*
X133450000Y-63144000D01*
X133464285Y-63158285D01*
X133735714Y-63129714D02*
X133592857Y-63129714D01*
X133578571Y-63272571D01*
X133592857Y-63258285D01*
X133621428Y-63244000D01*
X133692857Y-63244000D01*
X133721428Y-63258285D01*
X133735714Y-63272571D01*
X133750000Y-63301142D01*
X133750000Y-63372571D01*
X133735714Y-63401142D01*
X133721428Y-63415428D01*
X133692857Y-63429714D01*
X133621428Y-63429714D01*
X133592857Y-63415428D01*
X133578571Y-63401142D01*
X133935714Y-63129714D02*
X133964285Y-63129714D01*
X133992857Y-63144000D01*
X134007142Y-63158285D01*
X134021428Y-63186857D01*
X134035714Y-63244000D01*
X134035714Y-63315428D01*
X134021428Y-63372571D01*
X134007142Y-63401142D01*
X133992857Y-63415428D01*
X133964285Y-63429714D01*
X133935714Y-63429714D01*
X133907142Y-63415428D01*
X133892857Y-63401142D01*
X133878571Y-63372571D01*
X133864285Y-63315428D01*
X133864285Y-63244000D01*
X133878571Y-63186857D01*
X133892857Y-63158285D01*
X133907142Y-63144000D01*
X133935714Y-63129714D01*
X134292857Y-63229714D02*
X134292857Y-63429714D01*
X134221428Y-63115428D02*
X134150000Y-63329714D01*
X134335714Y-63329714D01*
G04 #@! TO.C,C503*
X133718285Y-56797142D02*
X133704000Y-56811428D01*
X133661142Y-56825714D01*
X133632571Y-56825714D01*
X133589714Y-56811428D01*
X133561142Y-56782857D01*
X133546857Y-56754285D01*
X133532571Y-56697142D01*
X133532571Y-56654285D01*
X133546857Y-56597142D01*
X133561142Y-56568571D01*
X133589714Y-56540000D01*
X133632571Y-56525714D01*
X133661142Y-56525714D01*
X133704000Y-56540000D01*
X133718285Y-56554285D01*
X133989714Y-56525714D02*
X133846857Y-56525714D01*
X133832571Y-56668571D01*
X133846857Y-56654285D01*
X133875428Y-56640000D01*
X133946857Y-56640000D01*
X133975428Y-56654285D01*
X133989714Y-56668571D01*
X134004000Y-56697142D01*
X134004000Y-56768571D01*
X133989714Y-56797142D01*
X133975428Y-56811428D01*
X133946857Y-56825714D01*
X133875428Y-56825714D01*
X133846857Y-56811428D01*
X133832571Y-56797142D01*
X134189714Y-56525714D02*
X134218285Y-56525714D01*
X134246857Y-56540000D01*
X134261142Y-56554285D01*
X134275428Y-56582857D01*
X134289714Y-56640000D01*
X134289714Y-56711428D01*
X134275428Y-56768571D01*
X134261142Y-56797142D01*
X134246857Y-56811428D01*
X134218285Y-56825714D01*
X134189714Y-56825714D01*
X134161142Y-56811428D01*
X134146857Y-56797142D01*
X134132571Y-56768571D01*
X134118285Y-56711428D01*
X134118285Y-56640000D01*
X134132571Y-56582857D01*
X134146857Y-56554285D01*
X134161142Y-56540000D01*
X134189714Y-56525714D01*
X134389714Y-56525714D02*
X134575428Y-56525714D01*
X134475428Y-56640000D01*
X134518285Y-56640000D01*
X134546857Y-56654285D01*
X134561142Y-56668571D01*
X134575428Y-56697142D01*
X134575428Y-56768571D01*
X134561142Y-56797142D01*
X134546857Y-56811428D01*
X134518285Y-56825714D01*
X134432571Y-56825714D01*
X134404000Y-56811428D01*
X134389714Y-56797142D01*
G04 #@! TO.C,C502*
X135496285Y-56797142D02*
X135482000Y-56811428D01*
X135439142Y-56825714D01*
X135410571Y-56825714D01*
X135367714Y-56811428D01*
X135339142Y-56782857D01*
X135324857Y-56754285D01*
X135310571Y-56697142D01*
X135310571Y-56654285D01*
X135324857Y-56597142D01*
X135339142Y-56568571D01*
X135367714Y-56540000D01*
X135410571Y-56525714D01*
X135439142Y-56525714D01*
X135482000Y-56540000D01*
X135496285Y-56554285D01*
X135767714Y-56525714D02*
X135624857Y-56525714D01*
X135610571Y-56668571D01*
X135624857Y-56654285D01*
X135653428Y-56640000D01*
X135724857Y-56640000D01*
X135753428Y-56654285D01*
X135767714Y-56668571D01*
X135782000Y-56697142D01*
X135782000Y-56768571D01*
X135767714Y-56797142D01*
X135753428Y-56811428D01*
X135724857Y-56825714D01*
X135653428Y-56825714D01*
X135624857Y-56811428D01*
X135610571Y-56797142D01*
X135967714Y-56525714D02*
X135996285Y-56525714D01*
X136024857Y-56540000D01*
X136039142Y-56554285D01*
X136053428Y-56582857D01*
X136067714Y-56640000D01*
X136067714Y-56711428D01*
X136053428Y-56768571D01*
X136039142Y-56797142D01*
X136024857Y-56811428D01*
X135996285Y-56825714D01*
X135967714Y-56825714D01*
X135939142Y-56811428D01*
X135924857Y-56797142D01*
X135910571Y-56768571D01*
X135896285Y-56711428D01*
X135896285Y-56640000D01*
X135910571Y-56582857D01*
X135924857Y-56554285D01*
X135939142Y-56540000D01*
X135967714Y-56525714D01*
X136182000Y-56554285D02*
X136196285Y-56540000D01*
X136224857Y-56525714D01*
X136296285Y-56525714D01*
X136324857Y-56540000D01*
X136339142Y-56554285D01*
X136353428Y-56582857D01*
X136353428Y-56611428D01*
X136339142Y-56654285D01*
X136167714Y-56825714D01*
X136353428Y-56825714D01*
G04 #@! TO.C,C501*
X128364285Y-57157142D02*
X128350000Y-57171428D01*
X128307142Y-57185714D01*
X128278571Y-57185714D01*
X128235714Y-57171428D01*
X128207142Y-57142857D01*
X128192857Y-57114285D01*
X128178571Y-57057142D01*
X128178571Y-57014285D01*
X128192857Y-56957142D01*
X128207142Y-56928571D01*
X128235714Y-56900000D01*
X128278571Y-56885714D01*
X128307142Y-56885714D01*
X128350000Y-56900000D01*
X128364285Y-56914285D01*
X128635714Y-56885714D02*
X128492857Y-56885714D01*
X128478571Y-57028571D01*
X128492857Y-57014285D01*
X128521428Y-57000000D01*
X128592857Y-57000000D01*
X128621428Y-57014285D01*
X128635714Y-57028571D01*
X128650000Y-57057142D01*
X128650000Y-57128571D01*
X128635714Y-57157142D01*
X128621428Y-57171428D01*
X128592857Y-57185714D01*
X128521428Y-57185714D01*
X128492857Y-57171428D01*
X128478571Y-57157142D01*
X128835714Y-56885714D02*
X128864285Y-56885714D01*
X128892857Y-56900000D01*
X128907142Y-56914285D01*
X128921428Y-56942857D01*
X128935714Y-57000000D01*
X128935714Y-57071428D01*
X128921428Y-57128571D01*
X128907142Y-57157142D01*
X128892857Y-57171428D01*
X128864285Y-57185714D01*
X128835714Y-57185714D01*
X128807142Y-57171428D01*
X128792857Y-57157142D01*
X128778571Y-57128571D01*
X128764285Y-57071428D01*
X128764285Y-57000000D01*
X128778571Y-56942857D01*
X128792857Y-56914285D01*
X128807142Y-56900000D01*
X128835714Y-56885714D01*
X129221428Y-57185714D02*
X129050000Y-57185714D01*
X129135714Y-57185714D02*
X129135714Y-56885714D01*
X129107142Y-56928571D01*
X129078571Y-56957142D01*
X129050000Y-56971428D01*
G04 #@! TO.C,Q102*
D12*
X123804380Y-60527619D02*
X123709142Y-60480000D01*
X123613904Y-60384761D01*
X123471047Y-60241904D01*
X123375809Y-60194285D01*
X123280571Y-60194285D01*
X123328190Y-60432380D02*
X123232952Y-60384761D01*
X123137714Y-60289523D01*
X123090095Y-60099047D01*
X123090095Y-59765714D01*
X123137714Y-59575238D01*
X123232952Y-59480000D01*
X123328190Y-59432380D01*
X123518666Y-59432380D01*
X123613904Y-59480000D01*
X123709142Y-59575238D01*
X123756761Y-59765714D01*
X123756761Y-60099047D01*
X123709142Y-60289523D01*
X123613904Y-60384761D01*
X123518666Y-60432380D01*
X123328190Y-60432380D01*
X124709142Y-60432380D02*
X124137714Y-60432380D01*
X124423428Y-60432380D02*
X124423428Y-59432380D01*
X124328190Y-59575238D01*
X124232952Y-59670476D01*
X124137714Y-59718095D01*
X125328190Y-59432380D02*
X125423428Y-59432380D01*
X125518666Y-59480000D01*
X125566285Y-59527619D01*
X125613904Y-59622857D01*
X125661523Y-59813333D01*
X125661523Y-60051428D01*
X125613904Y-60241904D01*
X125566285Y-60337142D01*
X125518666Y-60384761D01*
X125423428Y-60432380D01*
X125328190Y-60432380D01*
X125232952Y-60384761D01*
X125185333Y-60337142D01*
X125137714Y-60241904D01*
X125090095Y-60051428D01*
X125090095Y-59813333D01*
X125137714Y-59622857D01*
X125185333Y-59527619D01*
X125232952Y-59480000D01*
X125328190Y-59432380D01*
X126042476Y-59527619D02*
X126090095Y-59480000D01*
X126185333Y-59432380D01*
X126423428Y-59432380D01*
X126518666Y-59480000D01*
X126566285Y-59527619D01*
X126613904Y-59622857D01*
X126613904Y-59718095D01*
X126566285Y-59860952D01*
X125994857Y-60432380D01*
X126613904Y-60432380D01*
G04 #@! TO.C,R101*
D16*
X125024285Y-53805714D02*
X124924285Y-53662857D01*
X124852857Y-53805714D02*
X124852857Y-53505714D01*
X124967142Y-53505714D01*
X124995714Y-53520000D01*
X125010000Y-53534285D01*
X125024285Y-53562857D01*
X125024285Y-53605714D01*
X125010000Y-53634285D01*
X124995714Y-53648571D01*
X124967142Y-53662857D01*
X124852857Y-53662857D01*
X125310000Y-53805714D02*
X125138571Y-53805714D01*
X125224285Y-53805714D02*
X125224285Y-53505714D01*
X125195714Y-53548571D01*
X125167142Y-53577142D01*
X125138571Y-53591428D01*
X125495714Y-53505714D02*
X125524285Y-53505714D01*
X125552857Y-53520000D01*
X125567142Y-53534285D01*
X125581428Y-53562857D01*
X125595714Y-53620000D01*
X125595714Y-53691428D01*
X125581428Y-53748571D01*
X125567142Y-53777142D01*
X125552857Y-53791428D01*
X125524285Y-53805714D01*
X125495714Y-53805714D01*
X125467142Y-53791428D01*
X125452857Y-53777142D01*
X125438571Y-53748571D01*
X125424285Y-53691428D01*
X125424285Y-53620000D01*
X125438571Y-53562857D01*
X125452857Y-53534285D01*
X125467142Y-53520000D01*
X125495714Y-53505714D01*
X125881428Y-53805714D02*
X125710000Y-53805714D01*
X125795714Y-53805714D02*
X125795714Y-53505714D01*
X125767142Y-53548571D01*
X125738571Y-53577142D01*
X125710000Y-53591428D01*
G04 #@! TO.C,R302*
X133463714Y-54513714D02*
X133320857Y-54613714D01*
X133463714Y-54685142D02*
X133163714Y-54685142D01*
X133163714Y-54570857D01*
X133178000Y-54542285D01*
X133192285Y-54528000D01*
X133220857Y-54513714D01*
X133263714Y-54513714D01*
X133292285Y-54528000D01*
X133306571Y-54542285D01*
X133320857Y-54570857D01*
X133320857Y-54685142D01*
X133163714Y-54413714D02*
X133163714Y-54228000D01*
X133278000Y-54328000D01*
X133278000Y-54285142D01*
X133292285Y-54256571D01*
X133306571Y-54242285D01*
X133335142Y-54228000D01*
X133406571Y-54228000D01*
X133435142Y-54242285D01*
X133449428Y-54256571D01*
X133463714Y-54285142D01*
X133463714Y-54370857D01*
X133449428Y-54399428D01*
X133435142Y-54413714D01*
X133163714Y-54042285D02*
X133163714Y-54013714D01*
X133178000Y-53985142D01*
X133192285Y-53970857D01*
X133220857Y-53956571D01*
X133278000Y-53942285D01*
X133349428Y-53942285D01*
X133406571Y-53956571D01*
X133435142Y-53970857D01*
X133449428Y-53985142D01*
X133463714Y-54013714D01*
X133463714Y-54042285D01*
X133449428Y-54070857D01*
X133435142Y-54085142D01*
X133406571Y-54099428D01*
X133349428Y-54113714D01*
X133278000Y-54113714D01*
X133220857Y-54099428D01*
X133192285Y-54085142D01*
X133178000Y-54070857D01*
X133163714Y-54042285D01*
X133192285Y-53828000D02*
X133178000Y-53813714D01*
X133163714Y-53785142D01*
X133163714Y-53713714D01*
X133178000Y-53685142D01*
X133192285Y-53670857D01*
X133220857Y-53656571D01*
X133249428Y-53656571D01*
X133292285Y-53670857D01*
X133463714Y-53842285D01*
X133463714Y-53656571D01*
G04 #@! TO.C,BT101*
D12*
X118033904Y-59186571D02*
X118176761Y-59234190D01*
X118224380Y-59281809D01*
X118272000Y-59377047D01*
X118272000Y-59519904D01*
X118224380Y-59615142D01*
X118176761Y-59662761D01*
X118081523Y-59710380D01*
X117700571Y-59710380D01*
X117700571Y-58710380D01*
X118033904Y-58710380D01*
X118129142Y-58758000D01*
X118176761Y-58805619D01*
X118224380Y-58900857D01*
X118224380Y-58996095D01*
X118176761Y-59091333D01*
X118129142Y-59138952D01*
X118033904Y-59186571D01*
X117700571Y-59186571D01*
X118557714Y-58710380D02*
X119129142Y-58710380D01*
X118843428Y-59710380D02*
X118843428Y-58710380D01*
X119986285Y-59710380D02*
X119414857Y-59710380D01*
X119700571Y-59710380D02*
X119700571Y-58710380D01*
X119605333Y-58853238D01*
X119510095Y-58948476D01*
X119414857Y-58996095D01*
X120605333Y-58710380D02*
X120700571Y-58710380D01*
X120795809Y-58758000D01*
X120843428Y-58805619D01*
X120891047Y-58900857D01*
X120938666Y-59091333D01*
X120938666Y-59329428D01*
X120891047Y-59519904D01*
X120843428Y-59615142D01*
X120795809Y-59662761D01*
X120700571Y-59710380D01*
X120605333Y-59710380D01*
X120510095Y-59662761D01*
X120462476Y-59615142D01*
X120414857Y-59519904D01*
X120367238Y-59329428D01*
X120367238Y-59091333D01*
X120414857Y-58900857D01*
X120462476Y-58805619D01*
X120510095Y-58758000D01*
X120605333Y-58710380D01*
X121891047Y-59710380D02*
X121319619Y-59710380D01*
X121605333Y-59710380D02*
X121605333Y-58710380D01*
X121510095Y-58853238D01*
X121414857Y-58948476D01*
X121319619Y-58996095D01*
G04 #@! TO.C,U102*
D10*
X121592857Y-31026190D02*
X121592857Y-31430952D01*
X121616666Y-31478571D01*
X121640476Y-31502380D01*
X121688095Y-31526190D01*
X121783333Y-31526190D01*
X121830952Y-31502380D01*
X121854761Y-31478571D01*
X121878571Y-31430952D01*
X121878571Y-31026190D01*
X122378571Y-31526190D02*
X122092857Y-31526190D01*
X122235714Y-31526190D02*
X122235714Y-31026190D01*
X122188095Y-31097619D01*
X122140476Y-31145238D01*
X122092857Y-31169047D01*
X122688095Y-31026190D02*
X122735714Y-31026190D01*
X122783333Y-31050000D01*
X122807142Y-31073809D01*
X122830952Y-31121428D01*
X122854761Y-31216666D01*
X122854761Y-31335714D01*
X122830952Y-31430952D01*
X122807142Y-31478571D01*
X122783333Y-31502380D01*
X122735714Y-31526190D01*
X122688095Y-31526190D01*
X122640476Y-31502380D01*
X122616666Y-31478571D01*
X122592857Y-31430952D01*
X122569047Y-31335714D01*
X122569047Y-31216666D01*
X122592857Y-31121428D01*
X122616666Y-31073809D01*
X122640476Y-31050000D01*
X122688095Y-31026190D01*
X123045238Y-31073809D02*
X123069047Y-31050000D01*
X123116666Y-31026190D01*
X123235714Y-31026190D01*
X123283333Y-31050000D01*
X123307142Y-31073809D01*
X123330952Y-31121428D01*
X123330952Y-31169047D01*
X123307142Y-31240476D01*
X123021428Y-31526190D01*
X123330952Y-31526190D01*
G04 #@! TO.C,J105*
D17*
X137210142Y-47575357D02*
X137210142Y-47847500D01*
X137192000Y-47901928D01*
X137155714Y-47938214D01*
X137101285Y-47956357D01*
X137065000Y-47956357D01*
X137591142Y-47956357D02*
X137373428Y-47956357D01*
X137482285Y-47956357D02*
X137482285Y-47575357D01*
X137446000Y-47629785D01*
X137409714Y-47666071D01*
X137373428Y-47684214D01*
X137827000Y-47575357D02*
X137863285Y-47575357D01*
X137899571Y-47593500D01*
X137917714Y-47611642D01*
X137935857Y-47647928D01*
X137954000Y-47720500D01*
X137954000Y-47811214D01*
X137935857Y-47883785D01*
X137917714Y-47920071D01*
X137899571Y-47938214D01*
X137863285Y-47956357D01*
X137827000Y-47956357D01*
X137790714Y-47938214D01*
X137772571Y-47920071D01*
X137754428Y-47883785D01*
X137736285Y-47811214D01*
X137736285Y-47720500D01*
X137754428Y-47647928D01*
X137772571Y-47611642D01*
X137790714Y-47593500D01*
X137827000Y-47575357D01*
X138298714Y-47575357D02*
X138117285Y-47575357D01*
X138099142Y-47756785D01*
X138117285Y-47738642D01*
X138153571Y-47720500D01*
X138244285Y-47720500D01*
X138280571Y-47738642D01*
X138298714Y-47756785D01*
X138316857Y-47793071D01*
X138316857Y-47883785D01*
X138298714Y-47920071D01*
X138280571Y-47938214D01*
X138244285Y-47956357D01*
X138153571Y-47956357D01*
X138117285Y-47938214D01*
X138099142Y-47920071D01*
G04 #@! TO.C,J102*
X131324285Y-31871357D02*
X131324285Y-32143500D01*
X131310000Y-32197928D01*
X131281428Y-32234214D01*
X131238571Y-32252357D01*
X131210000Y-32252357D01*
X131624285Y-32252357D02*
X131452857Y-32252357D01*
X131538571Y-32252357D02*
X131538571Y-31871357D01*
X131510000Y-31925785D01*
X131481428Y-31962071D01*
X131452857Y-31980214D01*
X131810000Y-31871357D02*
X131838571Y-31871357D01*
X131867142Y-31889500D01*
X131881428Y-31907642D01*
X131895714Y-31943928D01*
X131910000Y-32016500D01*
X131910000Y-32107214D01*
X131895714Y-32179785D01*
X131881428Y-32216071D01*
X131867142Y-32234214D01*
X131838571Y-32252357D01*
X131810000Y-32252357D01*
X131781428Y-32234214D01*
X131767142Y-32216071D01*
X131752857Y-32179785D01*
X131738571Y-32107214D01*
X131738571Y-32016500D01*
X131752857Y-31943928D01*
X131767142Y-31907642D01*
X131781428Y-31889500D01*
X131810000Y-31871357D01*
X132024285Y-31907642D02*
X132038571Y-31889500D01*
X132067142Y-31871357D01*
X132138571Y-31871357D01*
X132167142Y-31889500D01*
X132181428Y-31907642D01*
X132195714Y-31943928D01*
X132195714Y-31980214D01*
X132181428Y-32034642D01*
X132010000Y-32252357D01*
X132195714Y-32252357D01*
G04 #@! TO.C,J104*
D16*
X137314285Y-41135714D02*
X137314285Y-41350000D01*
X137300000Y-41392857D01*
X137271428Y-41421428D01*
X137228571Y-41435714D01*
X137200000Y-41435714D01*
X137614285Y-41435714D02*
X137442857Y-41435714D01*
X137528571Y-41435714D02*
X137528571Y-41135714D01*
X137500000Y-41178571D01*
X137471428Y-41207142D01*
X137442857Y-41221428D01*
X137800000Y-41135714D02*
X137828571Y-41135714D01*
X137857142Y-41150000D01*
X137871428Y-41164285D01*
X137885714Y-41192857D01*
X137900000Y-41250000D01*
X137900000Y-41321428D01*
X137885714Y-41378571D01*
X137871428Y-41407142D01*
X137857142Y-41421428D01*
X137828571Y-41435714D01*
X137800000Y-41435714D01*
X137771428Y-41421428D01*
X137757142Y-41407142D01*
X137742857Y-41378571D01*
X137728571Y-41321428D01*
X137728571Y-41250000D01*
X137742857Y-41192857D01*
X137757142Y-41164285D01*
X137771428Y-41150000D01*
X137800000Y-41135714D01*
X138157142Y-41235714D02*
X138157142Y-41435714D01*
X138085714Y-41121428D02*
X138014285Y-41335714D01*
X138200000Y-41335714D01*
G04 #@! TD*
M02*
