G04 #@! TF.GenerationSoftware,KiCad,Pcbnew,(5.0.2)-1*
G04 #@! TF.CreationDate,2019-05-04T17:06:02+02:00*
G04 #@! TF.ProjectId,Cowbell_mini,436f7762-656c-46c5-9f6d-696e692e6b69,v0.4*
G04 #@! TF.SameCoordinates,Original*
G04 #@! TF.FileFunction,Paste,Top*
G04 #@! TF.FilePolarity,Positive*
%FSLAX46Y46*%
G04 Gerber Fmt 4.6, Leading zero omitted, Abs format (unit mm)*
G04 Created by KiCad (PCBNEW (5.0.2)-1) date 5/4/2019 5:06:02 PM*
%MOMM*%
%LPD*%
G01*
G04 APERTURE LIST*
%ADD10R,2.000000X0.900000*%
%ADD11R,0.900000X2.000000*%
%ADD12R,4.800000X4.800000*%
%ADD13C,0.150000*%
%ADD14C,0.875000*%
%ADD15C,0.260000*%
%ADD16C,0.950000*%
%ADD17R,0.800000X2.700000*%
%ADD18R,0.950000X0.700000*%
%ADD19R,0.275000X0.250000*%
%ADD20R,0.250000X0.275000*%
G04 APERTURE END LIST*
D10*
G04 #@! TO.C,U103*
X118500000Y-33460000D03*
X118500000Y-34730000D03*
X118500000Y-36000000D03*
X118500000Y-37270000D03*
X118500000Y-38540000D03*
X118500000Y-39810000D03*
X118500000Y-41080000D03*
X118500000Y-42350000D03*
X118500000Y-43620000D03*
X118500000Y-44890000D03*
X118500000Y-46160000D03*
X118500000Y-47430000D03*
X118500000Y-48700000D03*
X118500000Y-49970000D03*
D11*
X121285000Y-50970000D03*
X122555000Y-50970000D03*
X123825000Y-50970000D03*
X125095000Y-50970000D03*
X126365000Y-50970000D03*
X127635000Y-50970000D03*
X128905000Y-50970000D03*
X130175000Y-50970000D03*
X131445000Y-50970000D03*
X132715000Y-50970000D03*
D10*
X135500000Y-49970000D03*
X135500000Y-48700000D03*
X135500000Y-47430000D03*
X135500000Y-46160000D03*
X135500000Y-44890000D03*
X135500000Y-43620000D03*
X135500000Y-42350000D03*
X135500000Y-41080000D03*
X135500000Y-39810000D03*
X135500000Y-38540000D03*
X135500000Y-37270000D03*
X135500000Y-36000000D03*
X135500000Y-34730000D03*
X135500000Y-33460000D03*
D12*
X125500000Y-40960000D03*
G04 #@! TD*
D13*
G04 #@! TO.C,C204*
G36*
X119911691Y-30069053D02*
X119932926Y-30072203D01*
X119953750Y-30077419D01*
X119973962Y-30084651D01*
X119993368Y-30093830D01*
X120011781Y-30104866D01*
X120029024Y-30117654D01*
X120044930Y-30132070D01*
X120059346Y-30147976D01*
X120072134Y-30165219D01*
X120083170Y-30183632D01*
X120092349Y-30203038D01*
X120099581Y-30223250D01*
X120104797Y-30244074D01*
X120107947Y-30265309D01*
X120109000Y-30286750D01*
X120109000Y-30724250D01*
X120107947Y-30745691D01*
X120104797Y-30766926D01*
X120099581Y-30787750D01*
X120092349Y-30807962D01*
X120083170Y-30827368D01*
X120072134Y-30845781D01*
X120059346Y-30863024D01*
X120044930Y-30878930D01*
X120029024Y-30893346D01*
X120011781Y-30906134D01*
X119993368Y-30917170D01*
X119973962Y-30926349D01*
X119953750Y-30933581D01*
X119932926Y-30938797D01*
X119911691Y-30941947D01*
X119890250Y-30943000D01*
X119377750Y-30943000D01*
X119356309Y-30941947D01*
X119335074Y-30938797D01*
X119314250Y-30933581D01*
X119294038Y-30926349D01*
X119274632Y-30917170D01*
X119256219Y-30906134D01*
X119238976Y-30893346D01*
X119223070Y-30878930D01*
X119208654Y-30863024D01*
X119195866Y-30845781D01*
X119184830Y-30827368D01*
X119175651Y-30807962D01*
X119168419Y-30787750D01*
X119163203Y-30766926D01*
X119160053Y-30745691D01*
X119159000Y-30724250D01*
X119159000Y-30286750D01*
X119160053Y-30265309D01*
X119163203Y-30244074D01*
X119168419Y-30223250D01*
X119175651Y-30203038D01*
X119184830Y-30183632D01*
X119195866Y-30165219D01*
X119208654Y-30147976D01*
X119223070Y-30132070D01*
X119238976Y-30117654D01*
X119256219Y-30104866D01*
X119274632Y-30093830D01*
X119294038Y-30084651D01*
X119314250Y-30077419D01*
X119335074Y-30072203D01*
X119356309Y-30069053D01*
X119377750Y-30068000D01*
X119890250Y-30068000D01*
X119911691Y-30069053D01*
X119911691Y-30069053D01*
G37*
D14*
X119634000Y-30505500D03*
D13*
G36*
X119911691Y-28494053D02*
X119932926Y-28497203D01*
X119953750Y-28502419D01*
X119973962Y-28509651D01*
X119993368Y-28518830D01*
X120011781Y-28529866D01*
X120029024Y-28542654D01*
X120044930Y-28557070D01*
X120059346Y-28572976D01*
X120072134Y-28590219D01*
X120083170Y-28608632D01*
X120092349Y-28628038D01*
X120099581Y-28648250D01*
X120104797Y-28669074D01*
X120107947Y-28690309D01*
X120109000Y-28711750D01*
X120109000Y-29149250D01*
X120107947Y-29170691D01*
X120104797Y-29191926D01*
X120099581Y-29212750D01*
X120092349Y-29232962D01*
X120083170Y-29252368D01*
X120072134Y-29270781D01*
X120059346Y-29288024D01*
X120044930Y-29303930D01*
X120029024Y-29318346D01*
X120011781Y-29331134D01*
X119993368Y-29342170D01*
X119973962Y-29351349D01*
X119953750Y-29358581D01*
X119932926Y-29363797D01*
X119911691Y-29366947D01*
X119890250Y-29368000D01*
X119377750Y-29368000D01*
X119356309Y-29366947D01*
X119335074Y-29363797D01*
X119314250Y-29358581D01*
X119294038Y-29351349D01*
X119274632Y-29342170D01*
X119256219Y-29331134D01*
X119238976Y-29318346D01*
X119223070Y-29303930D01*
X119208654Y-29288024D01*
X119195866Y-29270781D01*
X119184830Y-29252368D01*
X119175651Y-29232962D01*
X119168419Y-29212750D01*
X119163203Y-29191926D01*
X119160053Y-29170691D01*
X119159000Y-29149250D01*
X119159000Y-28711750D01*
X119160053Y-28690309D01*
X119163203Y-28669074D01*
X119168419Y-28648250D01*
X119175651Y-28628038D01*
X119184830Y-28608632D01*
X119195866Y-28590219D01*
X119208654Y-28572976D01*
X119223070Y-28557070D01*
X119238976Y-28542654D01*
X119256219Y-28529866D01*
X119274632Y-28518830D01*
X119294038Y-28509651D01*
X119314250Y-28502419D01*
X119335074Y-28497203D01*
X119356309Y-28494053D01*
X119377750Y-28493000D01*
X119890250Y-28493000D01*
X119911691Y-28494053D01*
X119911691Y-28494053D01*
G37*
D14*
X119634000Y-28930500D03*
G04 #@! TD*
D13*
G04 #@! TO.C,C201*
G36*
X124737691Y-28494053D02*
X124758926Y-28497203D01*
X124779750Y-28502419D01*
X124799962Y-28509651D01*
X124819368Y-28518830D01*
X124837781Y-28529866D01*
X124855024Y-28542654D01*
X124870930Y-28557070D01*
X124885346Y-28572976D01*
X124898134Y-28590219D01*
X124909170Y-28608632D01*
X124918349Y-28628038D01*
X124925581Y-28648250D01*
X124930797Y-28669074D01*
X124933947Y-28690309D01*
X124935000Y-28711750D01*
X124935000Y-29149250D01*
X124933947Y-29170691D01*
X124930797Y-29191926D01*
X124925581Y-29212750D01*
X124918349Y-29232962D01*
X124909170Y-29252368D01*
X124898134Y-29270781D01*
X124885346Y-29288024D01*
X124870930Y-29303930D01*
X124855024Y-29318346D01*
X124837781Y-29331134D01*
X124819368Y-29342170D01*
X124799962Y-29351349D01*
X124779750Y-29358581D01*
X124758926Y-29363797D01*
X124737691Y-29366947D01*
X124716250Y-29368000D01*
X124203750Y-29368000D01*
X124182309Y-29366947D01*
X124161074Y-29363797D01*
X124140250Y-29358581D01*
X124120038Y-29351349D01*
X124100632Y-29342170D01*
X124082219Y-29331134D01*
X124064976Y-29318346D01*
X124049070Y-29303930D01*
X124034654Y-29288024D01*
X124021866Y-29270781D01*
X124010830Y-29252368D01*
X124001651Y-29232962D01*
X123994419Y-29212750D01*
X123989203Y-29191926D01*
X123986053Y-29170691D01*
X123985000Y-29149250D01*
X123985000Y-28711750D01*
X123986053Y-28690309D01*
X123989203Y-28669074D01*
X123994419Y-28648250D01*
X124001651Y-28628038D01*
X124010830Y-28608632D01*
X124021866Y-28590219D01*
X124034654Y-28572976D01*
X124049070Y-28557070D01*
X124064976Y-28542654D01*
X124082219Y-28529866D01*
X124100632Y-28518830D01*
X124120038Y-28509651D01*
X124140250Y-28502419D01*
X124161074Y-28497203D01*
X124182309Y-28494053D01*
X124203750Y-28493000D01*
X124716250Y-28493000D01*
X124737691Y-28494053D01*
X124737691Y-28494053D01*
G37*
D14*
X124460000Y-28930500D03*
D13*
G36*
X124737691Y-30069053D02*
X124758926Y-30072203D01*
X124779750Y-30077419D01*
X124799962Y-30084651D01*
X124819368Y-30093830D01*
X124837781Y-30104866D01*
X124855024Y-30117654D01*
X124870930Y-30132070D01*
X124885346Y-30147976D01*
X124898134Y-30165219D01*
X124909170Y-30183632D01*
X124918349Y-30203038D01*
X124925581Y-30223250D01*
X124930797Y-30244074D01*
X124933947Y-30265309D01*
X124935000Y-30286750D01*
X124935000Y-30724250D01*
X124933947Y-30745691D01*
X124930797Y-30766926D01*
X124925581Y-30787750D01*
X124918349Y-30807962D01*
X124909170Y-30827368D01*
X124898134Y-30845781D01*
X124885346Y-30863024D01*
X124870930Y-30878930D01*
X124855024Y-30893346D01*
X124837781Y-30906134D01*
X124819368Y-30917170D01*
X124799962Y-30926349D01*
X124779750Y-30933581D01*
X124758926Y-30938797D01*
X124737691Y-30941947D01*
X124716250Y-30943000D01*
X124203750Y-30943000D01*
X124182309Y-30941947D01*
X124161074Y-30938797D01*
X124140250Y-30933581D01*
X124120038Y-30926349D01*
X124100632Y-30917170D01*
X124082219Y-30906134D01*
X124064976Y-30893346D01*
X124049070Y-30878930D01*
X124034654Y-30863024D01*
X124021866Y-30845781D01*
X124010830Y-30827368D01*
X124001651Y-30807962D01*
X123994419Y-30787750D01*
X123989203Y-30766926D01*
X123986053Y-30745691D01*
X123985000Y-30724250D01*
X123985000Y-30286750D01*
X123986053Y-30265309D01*
X123989203Y-30244074D01*
X123994419Y-30223250D01*
X124001651Y-30203038D01*
X124010830Y-30183632D01*
X124021866Y-30165219D01*
X124034654Y-30147976D01*
X124049070Y-30132070D01*
X124064976Y-30117654D01*
X124082219Y-30104866D01*
X124100632Y-30093830D01*
X124120038Y-30084651D01*
X124140250Y-30077419D01*
X124161074Y-30072203D01*
X124182309Y-30069053D01*
X124203750Y-30068000D01*
X124716250Y-30068000D01*
X124737691Y-30069053D01*
X124737691Y-30069053D01*
G37*
D14*
X124460000Y-30505500D03*
G04 #@! TD*
D15*
G04 #@! TO.C,U5*
X131260000Y-59230000D03*
D13*
G36*
X130100245Y-60054039D02*
X130090866Y-60051194D01*
X130082221Y-60046573D01*
X130074645Y-60040355D01*
X130068427Y-60032779D01*
X130063806Y-60024134D01*
X130060961Y-60014755D01*
X130060000Y-60005000D01*
X130060000Y-59605000D01*
X129610000Y-59605000D01*
X129600245Y-59604039D01*
X129590866Y-59601194D01*
X129582221Y-59596573D01*
X129574645Y-59590355D01*
X129568427Y-59582779D01*
X129563806Y-59574134D01*
X129560961Y-59564755D01*
X129560000Y-59555000D01*
X129560000Y-59405000D01*
X129560961Y-59395245D01*
X129563806Y-59385866D01*
X129568427Y-59377221D01*
X129574645Y-59369645D01*
X129582221Y-59363427D01*
X129590866Y-59358806D01*
X129600245Y-59355961D01*
X129610000Y-59355000D01*
X130060000Y-59355000D01*
X130060000Y-59105000D01*
X129610000Y-59105000D01*
X129600245Y-59104039D01*
X129590866Y-59101194D01*
X129582221Y-59096573D01*
X129574645Y-59090355D01*
X129568427Y-59082779D01*
X129563806Y-59074134D01*
X129560961Y-59064755D01*
X129560000Y-59055000D01*
X129560000Y-58905000D01*
X129560961Y-58895245D01*
X129563806Y-58885866D01*
X129568427Y-58877221D01*
X129574645Y-58869645D01*
X129582221Y-58863427D01*
X129590866Y-58858806D01*
X129600245Y-58855961D01*
X129610000Y-58855000D01*
X130060000Y-58855000D01*
X130060000Y-58455000D01*
X130060961Y-58445245D01*
X130063806Y-58435866D01*
X130068427Y-58427221D01*
X130074645Y-58419645D01*
X130082221Y-58413427D01*
X130090866Y-58408806D01*
X130100245Y-58405961D01*
X130110000Y-58405000D01*
X132410000Y-58405000D01*
X132419755Y-58405961D01*
X132429134Y-58408806D01*
X132437779Y-58413427D01*
X132445355Y-58419645D01*
X132451573Y-58427221D01*
X132456194Y-58435866D01*
X132459039Y-58445245D01*
X132460000Y-58455000D01*
X132460000Y-58855000D01*
X132910000Y-58855000D01*
X132919755Y-58855961D01*
X132929134Y-58858806D01*
X132937779Y-58863427D01*
X132945355Y-58869645D01*
X132951573Y-58877221D01*
X132956194Y-58885866D01*
X132959039Y-58895245D01*
X132960000Y-58905000D01*
X132960000Y-59055000D01*
X132959039Y-59064755D01*
X132956194Y-59074134D01*
X132951573Y-59082779D01*
X132945355Y-59090355D01*
X132937779Y-59096573D01*
X132929134Y-59101194D01*
X132919755Y-59104039D01*
X132910000Y-59105000D01*
X132460000Y-59105000D01*
X132460000Y-59355000D01*
X132910000Y-59355000D01*
X132919755Y-59355961D01*
X132929134Y-59358806D01*
X132937779Y-59363427D01*
X132945355Y-59369645D01*
X132951573Y-59377221D01*
X132956194Y-59385866D01*
X132959039Y-59395245D01*
X132960000Y-59405000D01*
X132960000Y-59555000D01*
X132959039Y-59564755D01*
X132956194Y-59574134D01*
X132951573Y-59582779D01*
X132945355Y-59590355D01*
X132937779Y-59596573D01*
X132929134Y-59601194D01*
X132919755Y-59604039D01*
X132910000Y-59605000D01*
X132460000Y-59605000D01*
X132460000Y-60005000D01*
X132459039Y-60014755D01*
X132456194Y-60024134D01*
X132451573Y-60032779D01*
X132445355Y-60040355D01*
X132437779Y-60046573D01*
X132429134Y-60051194D01*
X132419755Y-60054039D01*
X132410000Y-60055000D01*
X130110000Y-60055000D01*
X130100245Y-60054039D01*
X130100245Y-60054039D01*
G37*
G36*
X130344973Y-57530240D02*
X130349819Y-57530959D01*
X130354571Y-57532150D01*
X130359184Y-57533800D01*
X130363612Y-57535894D01*
X130367814Y-57538413D01*
X130371749Y-57541331D01*
X130375379Y-57544621D01*
X130378669Y-57548251D01*
X130381587Y-57552186D01*
X130384106Y-57556388D01*
X130386200Y-57560816D01*
X130387850Y-57565429D01*
X130389041Y-57570181D01*
X130389760Y-57575027D01*
X130390000Y-57579920D01*
X130390000Y-58080080D01*
X130389760Y-58084973D01*
X130389041Y-58089819D01*
X130387850Y-58094571D01*
X130386200Y-58099184D01*
X130384106Y-58103612D01*
X130381587Y-58107814D01*
X130378669Y-58111749D01*
X130375379Y-58115379D01*
X130371749Y-58118669D01*
X130367814Y-58121587D01*
X130363612Y-58124106D01*
X130359184Y-58126200D01*
X130354571Y-58127850D01*
X130349819Y-58129041D01*
X130344973Y-58129760D01*
X130340080Y-58130000D01*
X130179920Y-58130000D01*
X130175027Y-58129760D01*
X130170181Y-58129041D01*
X130165429Y-58127850D01*
X130160816Y-58126200D01*
X130156388Y-58124106D01*
X130152186Y-58121587D01*
X130148251Y-58118669D01*
X130144621Y-58115379D01*
X130141331Y-58111749D01*
X130138413Y-58107814D01*
X130135894Y-58103612D01*
X130133800Y-58099184D01*
X130132150Y-58094571D01*
X130130959Y-58089819D01*
X130130240Y-58084973D01*
X130130000Y-58080080D01*
X130130000Y-57579920D01*
X130130240Y-57575027D01*
X130130959Y-57570181D01*
X130132150Y-57565429D01*
X130133800Y-57560816D01*
X130135894Y-57556388D01*
X130138413Y-57552186D01*
X130141331Y-57548251D01*
X130144621Y-57544621D01*
X130148251Y-57541331D01*
X130152186Y-57538413D01*
X130156388Y-57535894D01*
X130160816Y-57533800D01*
X130165429Y-57532150D01*
X130170181Y-57530959D01*
X130175027Y-57530240D01*
X130179920Y-57530000D01*
X130340080Y-57530000D01*
X130344973Y-57530240D01*
X130344973Y-57530240D01*
G37*
D15*
X130260000Y-57830000D03*
D13*
G36*
X130344973Y-60330240D02*
X130349819Y-60330959D01*
X130354571Y-60332150D01*
X130359184Y-60333800D01*
X130363612Y-60335894D01*
X130367814Y-60338413D01*
X130371749Y-60341331D01*
X130375379Y-60344621D01*
X130378669Y-60348251D01*
X130381587Y-60352186D01*
X130384106Y-60356388D01*
X130386200Y-60360816D01*
X130387850Y-60365429D01*
X130389041Y-60370181D01*
X130389760Y-60375027D01*
X130390000Y-60379920D01*
X130390000Y-60880080D01*
X130389760Y-60884973D01*
X130389041Y-60889819D01*
X130387850Y-60894571D01*
X130386200Y-60899184D01*
X130384106Y-60903612D01*
X130381587Y-60907814D01*
X130378669Y-60911749D01*
X130375379Y-60915379D01*
X130371749Y-60918669D01*
X130367814Y-60921587D01*
X130363612Y-60924106D01*
X130359184Y-60926200D01*
X130354571Y-60927850D01*
X130349819Y-60929041D01*
X130344973Y-60929760D01*
X130340080Y-60930000D01*
X130179920Y-60930000D01*
X130175027Y-60929760D01*
X130170181Y-60929041D01*
X130165429Y-60927850D01*
X130160816Y-60926200D01*
X130156388Y-60924106D01*
X130152186Y-60921587D01*
X130148251Y-60918669D01*
X130144621Y-60915379D01*
X130141331Y-60911749D01*
X130138413Y-60907814D01*
X130135894Y-60903612D01*
X130133800Y-60899184D01*
X130132150Y-60894571D01*
X130130959Y-60889819D01*
X130130240Y-60884973D01*
X130130000Y-60880080D01*
X130130000Y-60379920D01*
X130130240Y-60375027D01*
X130130959Y-60370181D01*
X130132150Y-60365429D01*
X130133800Y-60360816D01*
X130135894Y-60356388D01*
X130138413Y-60352186D01*
X130141331Y-60348251D01*
X130144621Y-60344621D01*
X130148251Y-60341331D01*
X130152186Y-60338413D01*
X130156388Y-60335894D01*
X130160816Y-60333800D01*
X130165429Y-60332150D01*
X130170181Y-60330959D01*
X130175027Y-60330240D01*
X130179920Y-60330000D01*
X130340080Y-60330000D01*
X130344973Y-60330240D01*
X130344973Y-60330240D01*
G37*
D15*
X130260000Y-60630000D03*
D13*
G36*
X130844973Y-57530240D02*
X130849819Y-57530959D01*
X130854571Y-57532150D01*
X130859184Y-57533800D01*
X130863612Y-57535894D01*
X130867814Y-57538413D01*
X130871749Y-57541331D01*
X130875379Y-57544621D01*
X130878669Y-57548251D01*
X130881587Y-57552186D01*
X130884106Y-57556388D01*
X130886200Y-57560816D01*
X130887850Y-57565429D01*
X130889041Y-57570181D01*
X130889760Y-57575027D01*
X130890000Y-57579920D01*
X130890000Y-58080080D01*
X130889760Y-58084973D01*
X130889041Y-58089819D01*
X130887850Y-58094571D01*
X130886200Y-58099184D01*
X130884106Y-58103612D01*
X130881587Y-58107814D01*
X130878669Y-58111749D01*
X130875379Y-58115379D01*
X130871749Y-58118669D01*
X130867814Y-58121587D01*
X130863612Y-58124106D01*
X130859184Y-58126200D01*
X130854571Y-58127850D01*
X130849819Y-58129041D01*
X130844973Y-58129760D01*
X130840080Y-58130000D01*
X130679920Y-58130000D01*
X130675027Y-58129760D01*
X130670181Y-58129041D01*
X130665429Y-58127850D01*
X130660816Y-58126200D01*
X130656388Y-58124106D01*
X130652186Y-58121587D01*
X130648251Y-58118669D01*
X130644621Y-58115379D01*
X130641331Y-58111749D01*
X130638413Y-58107814D01*
X130635894Y-58103612D01*
X130633800Y-58099184D01*
X130632150Y-58094571D01*
X130630959Y-58089819D01*
X130630240Y-58084973D01*
X130630000Y-58080080D01*
X130630000Y-57579920D01*
X130630240Y-57575027D01*
X130630959Y-57570181D01*
X130632150Y-57565429D01*
X130633800Y-57560816D01*
X130635894Y-57556388D01*
X130638413Y-57552186D01*
X130641331Y-57548251D01*
X130644621Y-57544621D01*
X130648251Y-57541331D01*
X130652186Y-57538413D01*
X130656388Y-57535894D01*
X130660816Y-57533800D01*
X130665429Y-57532150D01*
X130670181Y-57530959D01*
X130675027Y-57530240D01*
X130679920Y-57530000D01*
X130840080Y-57530000D01*
X130844973Y-57530240D01*
X130844973Y-57530240D01*
G37*
D15*
X130760000Y-57830000D03*
D13*
G36*
X130844973Y-60330240D02*
X130849819Y-60330959D01*
X130854571Y-60332150D01*
X130859184Y-60333800D01*
X130863612Y-60335894D01*
X130867814Y-60338413D01*
X130871749Y-60341331D01*
X130875379Y-60344621D01*
X130878669Y-60348251D01*
X130881587Y-60352186D01*
X130884106Y-60356388D01*
X130886200Y-60360816D01*
X130887850Y-60365429D01*
X130889041Y-60370181D01*
X130889760Y-60375027D01*
X130890000Y-60379920D01*
X130890000Y-60880080D01*
X130889760Y-60884973D01*
X130889041Y-60889819D01*
X130887850Y-60894571D01*
X130886200Y-60899184D01*
X130884106Y-60903612D01*
X130881587Y-60907814D01*
X130878669Y-60911749D01*
X130875379Y-60915379D01*
X130871749Y-60918669D01*
X130867814Y-60921587D01*
X130863612Y-60924106D01*
X130859184Y-60926200D01*
X130854571Y-60927850D01*
X130849819Y-60929041D01*
X130844973Y-60929760D01*
X130840080Y-60930000D01*
X130679920Y-60930000D01*
X130675027Y-60929760D01*
X130670181Y-60929041D01*
X130665429Y-60927850D01*
X130660816Y-60926200D01*
X130656388Y-60924106D01*
X130652186Y-60921587D01*
X130648251Y-60918669D01*
X130644621Y-60915379D01*
X130641331Y-60911749D01*
X130638413Y-60907814D01*
X130635894Y-60903612D01*
X130633800Y-60899184D01*
X130632150Y-60894571D01*
X130630959Y-60889819D01*
X130630240Y-60884973D01*
X130630000Y-60880080D01*
X130630000Y-60379920D01*
X130630240Y-60375027D01*
X130630959Y-60370181D01*
X130632150Y-60365429D01*
X130633800Y-60360816D01*
X130635894Y-60356388D01*
X130638413Y-60352186D01*
X130641331Y-60348251D01*
X130644621Y-60344621D01*
X130648251Y-60341331D01*
X130652186Y-60338413D01*
X130656388Y-60335894D01*
X130660816Y-60333800D01*
X130665429Y-60332150D01*
X130670181Y-60330959D01*
X130675027Y-60330240D01*
X130679920Y-60330000D01*
X130840080Y-60330000D01*
X130844973Y-60330240D01*
X130844973Y-60330240D01*
G37*
D15*
X130760000Y-60630000D03*
D13*
G36*
X131344973Y-57530240D02*
X131349819Y-57530959D01*
X131354571Y-57532150D01*
X131359184Y-57533800D01*
X131363612Y-57535894D01*
X131367814Y-57538413D01*
X131371749Y-57541331D01*
X131375379Y-57544621D01*
X131378669Y-57548251D01*
X131381587Y-57552186D01*
X131384106Y-57556388D01*
X131386200Y-57560816D01*
X131387850Y-57565429D01*
X131389041Y-57570181D01*
X131389760Y-57575027D01*
X131390000Y-57579920D01*
X131390000Y-58080080D01*
X131389760Y-58084973D01*
X131389041Y-58089819D01*
X131387850Y-58094571D01*
X131386200Y-58099184D01*
X131384106Y-58103612D01*
X131381587Y-58107814D01*
X131378669Y-58111749D01*
X131375379Y-58115379D01*
X131371749Y-58118669D01*
X131367814Y-58121587D01*
X131363612Y-58124106D01*
X131359184Y-58126200D01*
X131354571Y-58127850D01*
X131349819Y-58129041D01*
X131344973Y-58129760D01*
X131340080Y-58130000D01*
X131179920Y-58130000D01*
X131175027Y-58129760D01*
X131170181Y-58129041D01*
X131165429Y-58127850D01*
X131160816Y-58126200D01*
X131156388Y-58124106D01*
X131152186Y-58121587D01*
X131148251Y-58118669D01*
X131144621Y-58115379D01*
X131141331Y-58111749D01*
X131138413Y-58107814D01*
X131135894Y-58103612D01*
X131133800Y-58099184D01*
X131132150Y-58094571D01*
X131130959Y-58089819D01*
X131130240Y-58084973D01*
X131130000Y-58080080D01*
X131130000Y-57579920D01*
X131130240Y-57575027D01*
X131130959Y-57570181D01*
X131132150Y-57565429D01*
X131133800Y-57560816D01*
X131135894Y-57556388D01*
X131138413Y-57552186D01*
X131141331Y-57548251D01*
X131144621Y-57544621D01*
X131148251Y-57541331D01*
X131152186Y-57538413D01*
X131156388Y-57535894D01*
X131160816Y-57533800D01*
X131165429Y-57532150D01*
X131170181Y-57530959D01*
X131175027Y-57530240D01*
X131179920Y-57530000D01*
X131340080Y-57530000D01*
X131344973Y-57530240D01*
X131344973Y-57530240D01*
G37*
D15*
X131260000Y-57830000D03*
D13*
G36*
X131344973Y-60330240D02*
X131349819Y-60330959D01*
X131354571Y-60332150D01*
X131359184Y-60333800D01*
X131363612Y-60335894D01*
X131367814Y-60338413D01*
X131371749Y-60341331D01*
X131375379Y-60344621D01*
X131378669Y-60348251D01*
X131381587Y-60352186D01*
X131384106Y-60356388D01*
X131386200Y-60360816D01*
X131387850Y-60365429D01*
X131389041Y-60370181D01*
X131389760Y-60375027D01*
X131390000Y-60379920D01*
X131390000Y-60880080D01*
X131389760Y-60884973D01*
X131389041Y-60889819D01*
X131387850Y-60894571D01*
X131386200Y-60899184D01*
X131384106Y-60903612D01*
X131381587Y-60907814D01*
X131378669Y-60911749D01*
X131375379Y-60915379D01*
X131371749Y-60918669D01*
X131367814Y-60921587D01*
X131363612Y-60924106D01*
X131359184Y-60926200D01*
X131354571Y-60927850D01*
X131349819Y-60929041D01*
X131344973Y-60929760D01*
X131340080Y-60930000D01*
X131179920Y-60930000D01*
X131175027Y-60929760D01*
X131170181Y-60929041D01*
X131165429Y-60927850D01*
X131160816Y-60926200D01*
X131156388Y-60924106D01*
X131152186Y-60921587D01*
X131148251Y-60918669D01*
X131144621Y-60915379D01*
X131141331Y-60911749D01*
X131138413Y-60907814D01*
X131135894Y-60903612D01*
X131133800Y-60899184D01*
X131132150Y-60894571D01*
X131130959Y-60889819D01*
X131130240Y-60884973D01*
X131130000Y-60880080D01*
X131130000Y-60379920D01*
X131130240Y-60375027D01*
X131130959Y-60370181D01*
X131132150Y-60365429D01*
X131133800Y-60360816D01*
X131135894Y-60356388D01*
X131138413Y-60352186D01*
X131141331Y-60348251D01*
X131144621Y-60344621D01*
X131148251Y-60341331D01*
X131152186Y-60338413D01*
X131156388Y-60335894D01*
X131160816Y-60333800D01*
X131165429Y-60332150D01*
X131170181Y-60330959D01*
X131175027Y-60330240D01*
X131179920Y-60330000D01*
X131340080Y-60330000D01*
X131344973Y-60330240D01*
X131344973Y-60330240D01*
G37*
D15*
X131260000Y-60630000D03*
D13*
G36*
X131844973Y-57530240D02*
X131849819Y-57530959D01*
X131854571Y-57532150D01*
X131859184Y-57533800D01*
X131863612Y-57535894D01*
X131867814Y-57538413D01*
X131871749Y-57541331D01*
X131875379Y-57544621D01*
X131878669Y-57548251D01*
X131881587Y-57552186D01*
X131884106Y-57556388D01*
X131886200Y-57560816D01*
X131887850Y-57565429D01*
X131889041Y-57570181D01*
X131889760Y-57575027D01*
X131890000Y-57579920D01*
X131890000Y-58080080D01*
X131889760Y-58084973D01*
X131889041Y-58089819D01*
X131887850Y-58094571D01*
X131886200Y-58099184D01*
X131884106Y-58103612D01*
X131881587Y-58107814D01*
X131878669Y-58111749D01*
X131875379Y-58115379D01*
X131871749Y-58118669D01*
X131867814Y-58121587D01*
X131863612Y-58124106D01*
X131859184Y-58126200D01*
X131854571Y-58127850D01*
X131849819Y-58129041D01*
X131844973Y-58129760D01*
X131840080Y-58130000D01*
X131679920Y-58130000D01*
X131675027Y-58129760D01*
X131670181Y-58129041D01*
X131665429Y-58127850D01*
X131660816Y-58126200D01*
X131656388Y-58124106D01*
X131652186Y-58121587D01*
X131648251Y-58118669D01*
X131644621Y-58115379D01*
X131641331Y-58111749D01*
X131638413Y-58107814D01*
X131635894Y-58103612D01*
X131633800Y-58099184D01*
X131632150Y-58094571D01*
X131630959Y-58089819D01*
X131630240Y-58084973D01*
X131630000Y-58080080D01*
X131630000Y-57579920D01*
X131630240Y-57575027D01*
X131630959Y-57570181D01*
X131632150Y-57565429D01*
X131633800Y-57560816D01*
X131635894Y-57556388D01*
X131638413Y-57552186D01*
X131641331Y-57548251D01*
X131644621Y-57544621D01*
X131648251Y-57541331D01*
X131652186Y-57538413D01*
X131656388Y-57535894D01*
X131660816Y-57533800D01*
X131665429Y-57532150D01*
X131670181Y-57530959D01*
X131675027Y-57530240D01*
X131679920Y-57530000D01*
X131840080Y-57530000D01*
X131844973Y-57530240D01*
X131844973Y-57530240D01*
G37*
D15*
X131760000Y-57830000D03*
D13*
G36*
X131844973Y-60330240D02*
X131849819Y-60330959D01*
X131854571Y-60332150D01*
X131859184Y-60333800D01*
X131863612Y-60335894D01*
X131867814Y-60338413D01*
X131871749Y-60341331D01*
X131875379Y-60344621D01*
X131878669Y-60348251D01*
X131881587Y-60352186D01*
X131884106Y-60356388D01*
X131886200Y-60360816D01*
X131887850Y-60365429D01*
X131889041Y-60370181D01*
X131889760Y-60375027D01*
X131890000Y-60379920D01*
X131890000Y-60880080D01*
X131889760Y-60884973D01*
X131889041Y-60889819D01*
X131887850Y-60894571D01*
X131886200Y-60899184D01*
X131884106Y-60903612D01*
X131881587Y-60907814D01*
X131878669Y-60911749D01*
X131875379Y-60915379D01*
X131871749Y-60918669D01*
X131867814Y-60921587D01*
X131863612Y-60924106D01*
X131859184Y-60926200D01*
X131854571Y-60927850D01*
X131849819Y-60929041D01*
X131844973Y-60929760D01*
X131840080Y-60930000D01*
X131679920Y-60930000D01*
X131675027Y-60929760D01*
X131670181Y-60929041D01*
X131665429Y-60927850D01*
X131660816Y-60926200D01*
X131656388Y-60924106D01*
X131652186Y-60921587D01*
X131648251Y-60918669D01*
X131644621Y-60915379D01*
X131641331Y-60911749D01*
X131638413Y-60907814D01*
X131635894Y-60903612D01*
X131633800Y-60899184D01*
X131632150Y-60894571D01*
X131630959Y-60889819D01*
X131630240Y-60884973D01*
X131630000Y-60880080D01*
X131630000Y-60379920D01*
X131630240Y-60375027D01*
X131630959Y-60370181D01*
X131632150Y-60365429D01*
X131633800Y-60360816D01*
X131635894Y-60356388D01*
X131638413Y-60352186D01*
X131641331Y-60348251D01*
X131644621Y-60344621D01*
X131648251Y-60341331D01*
X131652186Y-60338413D01*
X131656388Y-60335894D01*
X131660816Y-60333800D01*
X131665429Y-60332150D01*
X131670181Y-60330959D01*
X131675027Y-60330240D01*
X131679920Y-60330000D01*
X131840080Y-60330000D01*
X131844973Y-60330240D01*
X131844973Y-60330240D01*
G37*
D15*
X131760000Y-60630000D03*
D13*
G36*
X132344973Y-57530240D02*
X132349819Y-57530959D01*
X132354571Y-57532150D01*
X132359184Y-57533800D01*
X132363612Y-57535894D01*
X132367814Y-57538413D01*
X132371749Y-57541331D01*
X132375379Y-57544621D01*
X132378669Y-57548251D01*
X132381587Y-57552186D01*
X132384106Y-57556388D01*
X132386200Y-57560816D01*
X132387850Y-57565429D01*
X132389041Y-57570181D01*
X132389760Y-57575027D01*
X132390000Y-57579920D01*
X132390000Y-58080080D01*
X132389760Y-58084973D01*
X132389041Y-58089819D01*
X132387850Y-58094571D01*
X132386200Y-58099184D01*
X132384106Y-58103612D01*
X132381587Y-58107814D01*
X132378669Y-58111749D01*
X132375379Y-58115379D01*
X132371749Y-58118669D01*
X132367814Y-58121587D01*
X132363612Y-58124106D01*
X132359184Y-58126200D01*
X132354571Y-58127850D01*
X132349819Y-58129041D01*
X132344973Y-58129760D01*
X132340080Y-58130000D01*
X132179920Y-58130000D01*
X132175027Y-58129760D01*
X132170181Y-58129041D01*
X132165429Y-58127850D01*
X132160816Y-58126200D01*
X132156388Y-58124106D01*
X132152186Y-58121587D01*
X132148251Y-58118669D01*
X132144621Y-58115379D01*
X132141331Y-58111749D01*
X132138413Y-58107814D01*
X132135894Y-58103612D01*
X132133800Y-58099184D01*
X132132150Y-58094571D01*
X132130959Y-58089819D01*
X132130240Y-58084973D01*
X132130000Y-58080080D01*
X132130000Y-57579920D01*
X132130240Y-57575027D01*
X132130959Y-57570181D01*
X132132150Y-57565429D01*
X132133800Y-57560816D01*
X132135894Y-57556388D01*
X132138413Y-57552186D01*
X132141331Y-57548251D01*
X132144621Y-57544621D01*
X132148251Y-57541331D01*
X132152186Y-57538413D01*
X132156388Y-57535894D01*
X132160816Y-57533800D01*
X132165429Y-57532150D01*
X132170181Y-57530959D01*
X132175027Y-57530240D01*
X132179920Y-57530000D01*
X132340080Y-57530000D01*
X132344973Y-57530240D01*
X132344973Y-57530240D01*
G37*
D15*
X132260000Y-57830000D03*
D13*
G36*
X132344973Y-60330240D02*
X132349819Y-60330959D01*
X132354571Y-60332150D01*
X132359184Y-60333800D01*
X132363612Y-60335894D01*
X132367814Y-60338413D01*
X132371749Y-60341331D01*
X132375379Y-60344621D01*
X132378669Y-60348251D01*
X132381587Y-60352186D01*
X132384106Y-60356388D01*
X132386200Y-60360816D01*
X132387850Y-60365429D01*
X132389041Y-60370181D01*
X132389760Y-60375027D01*
X132390000Y-60379920D01*
X132390000Y-60880080D01*
X132389760Y-60884973D01*
X132389041Y-60889819D01*
X132387850Y-60894571D01*
X132386200Y-60899184D01*
X132384106Y-60903612D01*
X132381587Y-60907814D01*
X132378669Y-60911749D01*
X132375379Y-60915379D01*
X132371749Y-60918669D01*
X132367814Y-60921587D01*
X132363612Y-60924106D01*
X132359184Y-60926200D01*
X132354571Y-60927850D01*
X132349819Y-60929041D01*
X132344973Y-60929760D01*
X132340080Y-60930000D01*
X132179920Y-60930000D01*
X132175027Y-60929760D01*
X132170181Y-60929041D01*
X132165429Y-60927850D01*
X132160816Y-60926200D01*
X132156388Y-60924106D01*
X132152186Y-60921587D01*
X132148251Y-60918669D01*
X132144621Y-60915379D01*
X132141331Y-60911749D01*
X132138413Y-60907814D01*
X132135894Y-60903612D01*
X132133800Y-60899184D01*
X132132150Y-60894571D01*
X132130959Y-60889819D01*
X132130240Y-60884973D01*
X132130000Y-60880080D01*
X132130000Y-60379920D01*
X132130240Y-60375027D01*
X132130959Y-60370181D01*
X132132150Y-60365429D01*
X132133800Y-60360816D01*
X132135894Y-60356388D01*
X132138413Y-60352186D01*
X132141331Y-60348251D01*
X132144621Y-60344621D01*
X132148251Y-60341331D01*
X132152186Y-60338413D01*
X132156388Y-60335894D01*
X132160816Y-60333800D01*
X132165429Y-60332150D01*
X132170181Y-60330959D01*
X132175027Y-60330240D01*
X132179920Y-60330000D01*
X132340080Y-60330000D01*
X132344973Y-60330240D01*
X132344973Y-60330240D01*
G37*
D15*
X132260000Y-60630000D03*
G04 #@! TD*
D13*
G04 #@! TO.C,R501*
G36*
X128917779Y-61550144D02*
X128940834Y-61553563D01*
X128963443Y-61559227D01*
X128985387Y-61567079D01*
X129006457Y-61577044D01*
X129026448Y-61589026D01*
X129045168Y-61602910D01*
X129062438Y-61618562D01*
X129078090Y-61635832D01*
X129091974Y-61654552D01*
X129103956Y-61674543D01*
X129113921Y-61695613D01*
X129121773Y-61717557D01*
X129127437Y-61740166D01*
X129130856Y-61763221D01*
X129132000Y-61786500D01*
X129132000Y-62261500D01*
X129130856Y-62284779D01*
X129127437Y-62307834D01*
X129121773Y-62330443D01*
X129113921Y-62352387D01*
X129103956Y-62373457D01*
X129091974Y-62393448D01*
X129078090Y-62412168D01*
X129062438Y-62429438D01*
X129045168Y-62445090D01*
X129026448Y-62458974D01*
X129006457Y-62470956D01*
X128985387Y-62480921D01*
X128963443Y-62488773D01*
X128940834Y-62494437D01*
X128917779Y-62497856D01*
X128894500Y-62499000D01*
X128319500Y-62499000D01*
X128296221Y-62497856D01*
X128273166Y-62494437D01*
X128250557Y-62488773D01*
X128228613Y-62480921D01*
X128207543Y-62470956D01*
X128187552Y-62458974D01*
X128168832Y-62445090D01*
X128151562Y-62429438D01*
X128135910Y-62412168D01*
X128122026Y-62393448D01*
X128110044Y-62373457D01*
X128100079Y-62352387D01*
X128092227Y-62330443D01*
X128086563Y-62307834D01*
X128083144Y-62284779D01*
X128082000Y-62261500D01*
X128082000Y-61786500D01*
X128083144Y-61763221D01*
X128086563Y-61740166D01*
X128092227Y-61717557D01*
X128100079Y-61695613D01*
X128110044Y-61674543D01*
X128122026Y-61654552D01*
X128135910Y-61635832D01*
X128151562Y-61618562D01*
X128168832Y-61602910D01*
X128187552Y-61589026D01*
X128207543Y-61577044D01*
X128228613Y-61567079D01*
X128250557Y-61559227D01*
X128273166Y-61553563D01*
X128296221Y-61550144D01*
X128319500Y-61549000D01*
X128894500Y-61549000D01*
X128917779Y-61550144D01*
X128917779Y-61550144D01*
G37*
D16*
X128607000Y-62024000D03*
D13*
G36*
X130667779Y-61550144D02*
X130690834Y-61553563D01*
X130713443Y-61559227D01*
X130735387Y-61567079D01*
X130756457Y-61577044D01*
X130776448Y-61589026D01*
X130795168Y-61602910D01*
X130812438Y-61618562D01*
X130828090Y-61635832D01*
X130841974Y-61654552D01*
X130853956Y-61674543D01*
X130863921Y-61695613D01*
X130871773Y-61717557D01*
X130877437Y-61740166D01*
X130880856Y-61763221D01*
X130882000Y-61786500D01*
X130882000Y-62261500D01*
X130880856Y-62284779D01*
X130877437Y-62307834D01*
X130871773Y-62330443D01*
X130863921Y-62352387D01*
X130853956Y-62373457D01*
X130841974Y-62393448D01*
X130828090Y-62412168D01*
X130812438Y-62429438D01*
X130795168Y-62445090D01*
X130776448Y-62458974D01*
X130756457Y-62470956D01*
X130735387Y-62480921D01*
X130713443Y-62488773D01*
X130690834Y-62494437D01*
X130667779Y-62497856D01*
X130644500Y-62499000D01*
X130069500Y-62499000D01*
X130046221Y-62497856D01*
X130023166Y-62494437D01*
X130000557Y-62488773D01*
X129978613Y-62480921D01*
X129957543Y-62470956D01*
X129937552Y-62458974D01*
X129918832Y-62445090D01*
X129901562Y-62429438D01*
X129885910Y-62412168D01*
X129872026Y-62393448D01*
X129860044Y-62373457D01*
X129850079Y-62352387D01*
X129842227Y-62330443D01*
X129836563Y-62307834D01*
X129833144Y-62284779D01*
X129832000Y-62261500D01*
X129832000Y-61786500D01*
X129833144Y-61763221D01*
X129836563Y-61740166D01*
X129842227Y-61717557D01*
X129850079Y-61695613D01*
X129860044Y-61674543D01*
X129872026Y-61654552D01*
X129885910Y-61635832D01*
X129901562Y-61618562D01*
X129918832Y-61602910D01*
X129937552Y-61589026D01*
X129957543Y-61577044D01*
X129978613Y-61567079D01*
X130000557Y-61559227D01*
X130023166Y-61553563D01*
X130046221Y-61550144D01*
X130069500Y-61549000D01*
X130644500Y-61549000D01*
X130667779Y-61550144D01*
X130667779Y-61550144D01*
G37*
D16*
X130357000Y-62024000D03*
G04 #@! TD*
D17*
G04 #@! TO.C,L501*
X130160000Y-55420000D03*
X132360000Y-55420000D03*
G04 #@! TD*
D13*
G04 #@! TO.C,C504*
G36*
X133811691Y-61550053D02*
X133832926Y-61553203D01*
X133853750Y-61558419D01*
X133873962Y-61565651D01*
X133893368Y-61574830D01*
X133911781Y-61585866D01*
X133929024Y-61598654D01*
X133944930Y-61613070D01*
X133959346Y-61628976D01*
X133972134Y-61646219D01*
X133983170Y-61664632D01*
X133992349Y-61684038D01*
X133999581Y-61704250D01*
X134004797Y-61725074D01*
X134007947Y-61746309D01*
X134009000Y-61767750D01*
X134009000Y-62280250D01*
X134007947Y-62301691D01*
X134004797Y-62322926D01*
X133999581Y-62343750D01*
X133992349Y-62363962D01*
X133983170Y-62383368D01*
X133972134Y-62401781D01*
X133959346Y-62419024D01*
X133944930Y-62434930D01*
X133929024Y-62449346D01*
X133911781Y-62462134D01*
X133893368Y-62473170D01*
X133873962Y-62482349D01*
X133853750Y-62489581D01*
X133832926Y-62494797D01*
X133811691Y-62497947D01*
X133790250Y-62499000D01*
X133352750Y-62499000D01*
X133331309Y-62497947D01*
X133310074Y-62494797D01*
X133289250Y-62489581D01*
X133269038Y-62482349D01*
X133249632Y-62473170D01*
X133231219Y-62462134D01*
X133213976Y-62449346D01*
X133198070Y-62434930D01*
X133183654Y-62419024D01*
X133170866Y-62401781D01*
X133159830Y-62383368D01*
X133150651Y-62363962D01*
X133143419Y-62343750D01*
X133138203Y-62322926D01*
X133135053Y-62301691D01*
X133134000Y-62280250D01*
X133134000Y-61767750D01*
X133135053Y-61746309D01*
X133138203Y-61725074D01*
X133143419Y-61704250D01*
X133150651Y-61684038D01*
X133159830Y-61664632D01*
X133170866Y-61646219D01*
X133183654Y-61628976D01*
X133198070Y-61613070D01*
X133213976Y-61598654D01*
X133231219Y-61585866D01*
X133249632Y-61574830D01*
X133269038Y-61565651D01*
X133289250Y-61558419D01*
X133310074Y-61553203D01*
X133331309Y-61550053D01*
X133352750Y-61549000D01*
X133790250Y-61549000D01*
X133811691Y-61550053D01*
X133811691Y-61550053D01*
G37*
D14*
X133571500Y-62024000D03*
D13*
G36*
X132236691Y-61550053D02*
X132257926Y-61553203D01*
X132278750Y-61558419D01*
X132298962Y-61565651D01*
X132318368Y-61574830D01*
X132336781Y-61585866D01*
X132354024Y-61598654D01*
X132369930Y-61613070D01*
X132384346Y-61628976D01*
X132397134Y-61646219D01*
X132408170Y-61664632D01*
X132417349Y-61684038D01*
X132424581Y-61704250D01*
X132429797Y-61725074D01*
X132432947Y-61746309D01*
X132434000Y-61767750D01*
X132434000Y-62280250D01*
X132432947Y-62301691D01*
X132429797Y-62322926D01*
X132424581Y-62343750D01*
X132417349Y-62363962D01*
X132408170Y-62383368D01*
X132397134Y-62401781D01*
X132384346Y-62419024D01*
X132369930Y-62434930D01*
X132354024Y-62449346D01*
X132336781Y-62462134D01*
X132318368Y-62473170D01*
X132298962Y-62482349D01*
X132278750Y-62489581D01*
X132257926Y-62494797D01*
X132236691Y-62497947D01*
X132215250Y-62499000D01*
X131777750Y-62499000D01*
X131756309Y-62497947D01*
X131735074Y-62494797D01*
X131714250Y-62489581D01*
X131694038Y-62482349D01*
X131674632Y-62473170D01*
X131656219Y-62462134D01*
X131638976Y-62449346D01*
X131623070Y-62434930D01*
X131608654Y-62419024D01*
X131595866Y-62401781D01*
X131584830Y-62383368D01*
X131575651Y-62363962D01*
X131568419Y-62343750D01*
X131563203Y-62322926D01*
X131560053Y-62301691D01*
X131559000Y-62280250D01*
X131559000Y-61767750D01*
X131560053Y-61746309D01*
X131563203Y-61725074D01*
X131568419Y-61704250D01*
X131575651Y-61684038D01*
X131584830Y-61664632D01*
X131595866Y-61646219D01*
X131608654Y-61628976D01*
X131623070Y-61613070D01*
X131638976Y-61598654D01*
X131656219Y-61585866D01*
X131674632Y-61574830D01*
X131694038Y-61565651D01*
X131714250Y-61558419D01*
X131735074Y-61553203D01*
X131756309Y-61550053D01*
X131777750Y-61549000D01*
X132215250Y-61549000D01*
X132236691Y-61550053D01*
X132236691Y-61550053D01*
G37*
D14*
X131996500Y-62024000D03*
G04 #@! TD*
D13*
G04 #@! TO.C,C503*
G36*
X134331691Y-58819053D02*
X134352926Y-58822203D01*
X134373750Y-58827419D01*
X134393962Y-58834651D01*
X134413368Y-58843830D01*
X134431781Y-58854866D01*
X134449024Y-58867654D01*
X134464930Y-58882070D01*
X134479346Y-58897976D01*
X134492134Y-58915219D01*
X134503170Y-58933632D01*
X134512349Y-58953038D01*
X134519581Y-58973250D01*
X134524797Y-58994074D01*
X134527947Y-59015309D01*
X134529000Y-59036750D01*
X134529000Y-59474250D01*
X134527947Y-59495691D01*
X134524797Y-59516926D01*
X134519581Y-59537750D01*
X134512349Y-59557962D01*
X134503170Y-59577368D01*
X134492134Y-59595781D01*
X134479346Y-59613024D01*
X134464930Y-59628930D01*
X134449024Y-59643346D01*
X134431781Y-59656134D01*
X134413368Y-59667170D01*
X134393962Y-59676349D01*
X134373750Y-59683581D01*
X134352926Y-59688797D01*
X134331691Y-59691947D01*
X134310250Y-59693000D01*
X133797750Y-59693000D01*
X133776309Y-59691947D01*
X133755074Y-59688797D01*
X133734250Y-59683581D01*
X133714038Y-59676349D01*
X133694632Y-59667170D01*
X133676219Y-59656134D01*
X133658976Y-59643346D01*
X133643070Y-59628930D01*
X133628654Y-59613024D01*
X133615866Y-59595781D01*
X133604830Y-59577368D01*
X133595651Y-59557962D01*
X133588419Y-59537750D01*
X133583203Y-59516926D01*
X133580053Y-59495691D01*
X133579000Y-59474250D01*
X133579000Y-59036750D01*
X133580053Y-59015309D01*
X133583203Y-58994074D01*
X133588419Y-58973250D01*
X133595651Y-58953038D01*
X133604830Y-58933632D01*
X133615866Y-58915219D01*
X133628654Y-58897976D01*
X133643070Y-58882070D01*
X133658976Y-58867654D01*
X133676219Y-58854866D01*
X133694632Y-58843830D01*
X133714038Y-58834651D01*
X133734250Y-58827419D01*
X133755074Y-58822203D01*
X133776309Y-58819053D01*
X133797750Y-58818000D01*
X134310250Y-58818000D01*
X134331691Y-58819053D01*
X134331691Y-58819053D01*
G37*
D14*
X134054000Y-59255500D03*
D13*
G36*
X134331691Y-57244053D02*
X134352926Y-57247203D01*
X134373750Y-57252419D01*
X134393962Y-57259651D01*
X134413368Y-57268830D01*
X134431781Y-57279866D01*
X134449024Y-57292654D01*
X134464930Y-57307070D01*
X134479346Y-57322976D01*
X134492134Y-57340219D01*
X134503170Y-57358632D01*
X134512349Y-57378038D01*
X134519581Y-57398250D01*
X134524797Y-57419074D01*
X134527947Y-57440309D01*
X134529000Y-57461750D01*
X134529000Y-57899250D01*
X134527947Y-57920691D01*
X134524797Y-57941926D01*
X134519581Y-57962750D01*
X134512349Y-57982962D01*
X134503170Y-58002368D01*
X134492134Y-58020781D01*
X134479346Y-58038024D01*
X134464930Y-58053930D01*
X134449024Y-58068346D01*
X134431781Y-58081134D01*
X134413368Y-58092170D01*
X134393962Y-58101349D01*
X134373750Y-58108581D01*
X134352926Y-58113797D01*
X134331691Y-58116947D01*
X134310250Y-58118000D01*
X133797750Y-58118000D01*
X133776309Y-58116947D01*
X133755074Y-58113797D01*
X133734250Y-58108581D01*
X133714038Y-58101349D01*
X133694632Y-58092170D01*
X133676219Y-58081134D01*
X133658976Y-58068346D01*
X133643070Y-58053930D01*
X133628654Y-58038024D01*
X133615866Y-58020781D01*
X133604830Y-58002368D01*
X133595651Y-57982962D01*
X133588419Y-57962750D01*
X133583203Y-57941926D01*
X133580053Y-57920691D01*
X133579000Y-57899250D01*
X133579000Y-57461750D01*
X133580053Y-57440309D01*
X133583203Y-57419074D01*
X133588419Y-57398250D01*
X133595651Y-57378038D01*
X133604830Y-57358632D01*
X133615866Y-57340219D01*
X133628654Y-57322976D01*
X133643070Y-57307070D01*
X133658976Y-57292654D01*
X133676219Y-57279866D01*
X133694632Y-57268830D01*
X133714038Y-57259651D01*
X133734250Y-57252419D01*
X133755074Y-57247203D01*
X133776309Y-57244053D01*
X133797750Y-57243000D01*
X134310250Y-57243000D01*
X134331691Y-57244053D01*
X134331691Y-57244053D01*
G37*
D14*
X134054000Y-57680500D03*
G04 #@! TD*
D13*
G04 #@! TO.C,C502*
G36*
X136109691Y-58819053D02*
X136130926Y-58822203D01*
X136151750Y-58827419D01*
X136171962Y-58834651D01*
X136191368Y-58843830D01*
X136209781Y-58854866D01*
X136227024Y-58867654D01*
X136242930Y-58882070D01*
X136257346Y-58897976D01*
X136270134Y-58915219D01*
X136281170Y-58933632D01*
X136290349Y-58953038D01*
X136297581Y-58973250D01*
X136302797Y-58994074D01*
X136305947Y-59015309D01*
X136307000Y-59036750D01*
X136307000Y-59474250D01*
X136305947Y-59495691D01*
X136302797Y-59516926D01*
X136297581Y-59537750D01*
X136290349Y-59557962D01*
X136281170Y-59577368D01*
X136270134Y-59595781D01*
X136257346Y-59613024D01*
X136242930Y-59628930D01*
X136227024Y-59643346D01*
X136209781Y-59656134D01*
X136191368Y-59667170D01*
X136171962Y-59676349D01*
X136151750Y-59683581D01*
X136130926Y-59688797D01*
X136109691Y-59691947D01*
X136088250Y-59693000D01*
X135575750Y-59693000D01*
X135554309Y-59691947D01*
X135533074Y-59688797D01*
X135512250Y-59683581D01*
X135492038Y-59676349D01*
X135472632Y-59667170D01*
X135454219Y-59656134D01*
X135436976Y-59643346D01*
X135421070Y-59628930D01*
X135406654Y-59613024D01*
X135393866Y-59595781D01*
X135382830Y-59577368D01*
X135373651Y-59557962D01*
X135366419Y-59537750D01*
X135361203Y-59516926D01*
X135358053Y-59495691D01*
X135357000Y-59474250D01*
X135357000Y-59036750D01*
X135358053Y-59015309D01*
X135361203Y-58994074D01*
X135366419Y-58973250D01*
X135373651Y-58953038D01*
X135382830Y-58933632D01*
X135393866Y-58915219D01*
X135406654Y-58897976D01*
X135421070Y-58882070D01*
X135436976Y-58867654D01*
X135454219Y-58854866D01*
X135472632Y-58843830D01*
X135492038Y-58834651D01*
X135512250Y-58827419D01*
X135533074Y-58822203D01*
X135554309Y-58819053D01*
X135575750Y-58818000D01*
X136088250Y-58818000D01*
X136109691Y-58819053D01*
X136109691Y-58819053D01*
G37*
D14*
X135832000Y-59255500D03*
D13*
G36*
X136109691Y-57244053D02*
X136130926Y-57247203D01*
X136151750Y-57252419D01*
X136171962Y-57259651D01*
X136191368Y-57268830D01*
X136209781Y-57279866D01*
X136227024Y-57292654D01*
X136242930Y-57307070D01*
X136257346Y-57322976D01*
X136270134Y-57340219D01*
X136281170Y-57358632D01*
X136290349Y-57378038D01*
X136297581Y-57398250D01*
X136302797Y-57419074D01*
X136305947Y-57440309D01*
X136307000Y-57461750D01*
X136307000Y-57899250D01*
X136305947Y-57920691D01*
X136302797Y-57941926D01*
X136297581Y-57962750D01*
X136290349Y-57982962D01*
X136281170Y-58002368D01*
X136270134Y-58020781D01*
X136257346Y-58038024D01*
X136242930Y-58053930D01*
X136227024Y-58068346D01*
X136209781Y-58081134D01*
X136191368Y-58092170D01*
X136171962Y-58101349D01*
X136151750Y-58108581D01*
X136130926Y-58113797D01*
X136109691Y-58116947D01*
X136088250Y-58118000D01*
X135575750Y-58118000D01*
X135554309Y-58116947D01*
X135533074Y-58113797D01*
X135512250Y-58108581D01*
X135492038Y-58101349D01*
X135472632Y-58092170D01*
X135454219Y-58081134D01*
X135436976Y-58068346D01*
X135421070Y-58053930D01*
X135406654Y-58038024D01*
X135393866Y-58020781D01*
X135382830Y-58002368D01*
X135373651Y-57982962D01*
X135366419Y-57962750D01*
X135361203Y-57941926D01*
X135358053Y-57920691D01*
X135357000Y-57899250D01*
X135357000Y-57461750D01*
X135358053Y-57440309D01*
X135361203Y-57419074D01*
X135366419Y-57398250D01*
X135373651Y-57378038D01*
X135382830Y-57358632D01*
X135393866Y-57340219D01*
X135406654Y-57322976D01*
X135421070Y-57307070D01*
X135436976Y-57292654D01*
X135454219Y-57279866D01*
X135472632Y-57268830D01*
X135492038Y-57259651D01*
X135512250Y-57252419D01*
X135533074Y-57247203D01*
X135554309Y-57244053D01*
X135575750Y-57243000D01*
X136088250Y-57243000D01*
X136109691Y-57244053D01*
X136109691Y-57244053D01*
G37*
D14*
X135832000Y-57680500D03*
G04 #@! TD*
D13*
G04 #@! TO.C,C501*
G36*
X128743691Y-58819053D02*
X128764926Y-58822203D01*
X128785750Y-58827419D01*
X128805962Y-58834651D01*
X128825368Y-58843830D01*
X128843781Y-58854866D01*
X128861024Y-58867654D01*
X128876930Y-58882070D01*
X128891346Y-58897976D01*
X128904134Y-58915219D01*
X128915170Y-58933632D01*
X128924349Y-58953038D01*
X128931581Y-58973250D01*
X128936797Y-58994074D01*
X128939947Y-59015309D01*
X128941000Y-59036750D01*
X128941000Y-59474250D01*
X128939947Y-59495691D01*
X128936797Y-59516926D01*
X128931581Y-59537750D01*
X128924349Y-59557962D01*
X128915170Y-59577368D01*
X128904134Y-59595781D01*
X128891346Y-59613024D01*
X128876930Y-59628930D01*
X128861024Y-59643346D01*
X128843781Y-59656134D01*
X128825368Y-59667170D01*
X128805962Y-59676349D01*
X128785750Y-59683581D01*
X128764926Y-59688797D01*
X128743691Y-59691947D01*
X128722250Y-59693000D01*
X128209750Y-59693000D01*
X128188309Y-59691947D01*
X128167074Y-59688797D01*
X128146250Y-59683581D01*
X128126038Y-59676349D01*
X128106632Y-59667170D01*
X128088219Y-59656134D01*
X128070976Y-59643346D01*
X128055070Y-59628930D01*
X128040654Y-59613024D01*
X128027866Y-59595781D01*
X128016830Y-59577368D01*
X128007651Y-59557962D01*
X128000419Y-59537750D01*
X127995203Y-59516926D01*
X127992053Y-59495691D01*
X127991000Y-59474250D01*
X127991000Y-59036750D01*
X127992053Y-59015309D01*
X127995203Y-58994074D01*
X128000419Y-58973250D01*
X128007651Y-58953038D01*
X128016830Y-58933632D01*
X128027866Y-58915219D01*
X128040654Y-58897976D01*
X128055070Y-58882070D01*
X128070976Y-58867654D01*
X128088219Y-58854866D01*
X128106632Y-58843830D01*
X128126038Y-58834651D01*
X128146250Y-58827419D01*
X128167074Y-58822203D01*
X128188309Y-58819053D01*
X128209750Y-58818000D01*
X128722250Y-58818000D01*
X128743691Y-58819053D01*
X128743691Y-58819053D01*
G37*
D14*
X128466000Y-59255500D03*
D13*
G36*
X128743691Y-57244053D02*
X128764926Y-57247203D01*
X128785750Y-57252419D01*
X128805962Y-57259651D01*
X128825368Y-57268830D01*
X128843781Y-57279866D01*
X128861024Y-57292654D01*
X128876930Y-57307070D01*
X128891346Y-57322976D01*
X128904134Y-57340219D01*
X128915170Y-57358632D01*
X128924349Y-57378038D01*
X128931581Y-57398250D01*
X128936797Y-57419074D01*
X128939947Y-57440309D01*
X128941000Y-57461750D01*
X128941000Y-57899250D01*
X128939947Y-57920691D01*
X128936797Y-57941926D01*
X128931581Y-57962750D01*
X128924349Y-57982962D01*
X128915170Y-58002368D01*
X128904134Y-58020781D01*
X128891346Y-58038024D01*
X128876930Y-58053930D01*
X128861024Y-58068346D01*
X128843781Y-58081134D01*
X128825368Y-58092170D01*
X128805962Y-58101349D01*
X128785750Y-58108581D01*
X128764926Y-58113797D01*
X128743691Y-58116947D01*
X128722250Y-58118000D01*
X128209750Y-58118000D01*
X128188309Y-58116947D01*
X128167074Y-58113797D01*
X128146250Y-58108581D01*
X128126038Y-58101349D01*
X128106632Y-58092170D01*
X128088219Y-58081134D01*
X128070976Y-58068346D01*
X128055070Y-58053930D01*
X128040654Y-58038024D01*
X128027866Y-58020781D01*
X128016830Y-58002368D01*
X128007651Y-57982962D01*
X128000419Y-57962750D01*
X127995203Y-57941926D01*
X127992053Y-57920691D01*
X127991000Y-57899250D01*
X127991000Y-57461750D01*
X127992053Y-57440309D01*
X127995203Y-57419074D01*
X128000419Y-57398250D01*
X128007651Y-57378038D01*
X128016830Y-57358632D01*
X128027866Y-57340219D01*
X128040654Y-57322976D01*
X128055070Y-57307070D01*
X128070976Y-57292654D01*
X128088219Y-57279866D01*
X128106632Y-57268830D01*
X128126038Y-57259651D01*
X128146250Y-57252419D01*
X128167074Y-57247203D01*
X128188309Y-57244053D01*
X128209750Y-57243000D01*
X128722250Y-57243000D01*
X128743691Y-57244053D01*
X128743691Y-57244053D01*
G37*
D14*
X128466000Y-57680500D03*
G04 #@! TD*
D18*
G04 #@! TO.C,Q102*
X125952000Y-56480000D03*
X123752000Y-56480000D03*
X125952000Y-57480000D03*
X123752000Y-57480000D03*
X125952000Y-58480000D03*
X123752000Y-58480000D03*
G04 #@! TD*
D13*
G04 #@! TO.C,R101*
G36*
X124795779Y-54212144D02*
X124818834Y-54215563D01*
X124841443Y-54221227D01*
X124863387Y-54229079D01*
X124884457Y-54239044D01*
X124904448Y-54251026D01*
X124923168Y-54264910D01*
X124940438Y-54280562D01*
X124956090Y-54297832D01*
X124969974Y-54316552D01*
X124981956Y-54336543D01*
X124991921Y-54357613D01*
X124999773Y-54379557D01*
X125005437Y-54402166D01*
X125008856Y-54425221D01*
X125010000Y-54448500D01*
X125010000Y-54923500D01*
X125008856Y-54946779D01*
X125005437Y-54969834D01*
X124999773Y-54992443D01*
X124991921Y-55014387D01*
X124981956Y-55035457D01*
X124969974Y-55055448D01*
X124956090Y-55074168D01*
X124940438Y-55091438D01*
X124923168Y-55107090D01*
X124904448Y-55120974D01*
X124884457Y-55132956D01*
X124863387Y-55142921D01*
X124841443Y-55150773D01*
X124818834Y-55156437D01*
X124795779Y-55159856D01*
X124772500Y-55161000D01*
X124197500Y-55161000D01*
X124174221Y-55159856D01*
X124151166Y-55156437D01*
X124128557Y-55150773D01*
X124106613Y-55142921D01*
X124085543Y-55132956D01*
X124065552Y-55120974D01*
X124046832Y-55107090D01*
X124029562Y-55091438D01*
X124013910Y-55074168D01*
X124000026Y-55055448D01*
X123988044Y-55035457D01*
X123978079Y-55014387D01*
X123970227Y-54992443D01*
X123964563Y-54969834D01*
X123961144Y-54946779D01*
X123960000Y-54923500D01*
X123960000Y-54448500D01*
X123961144Y-54425221D01*
X123964563Y-54402166D01*
X123970227Y-54379557D01*
X123978079Y-54357613D01*
X123988044Y-54336543D01*
X124000026Y-54316552D01*
X124013910Y-54297832D01*
X124029562Y-54280562D01*
X124046832Y-54264910D01*
X124065552Y-54251026D01*
X124085543Y-54239044D01*
X124106613Y-54229079D01*
X124128557Y-54221227D01*
X124151166Y-54215563D01*
X124174221Y-54212144D01*
X124197500Y-54211000D01*
X124772500Y-54211000D01*
X124795779Y-54212144D01*
X124795779Y-54212144D01*
G37*
D16*
X124485000Y-54686000D03*
D13*
G36*
X126545779Y-54212144D02*
X126568834Y-54215563D01*
X126591443Y-54221227D01*
X126613387Y-54229079D01*
X126634457Y-54239044D01*
X126654448Y-54251026D01*
X126673168Y-54264910D01*
X126690438Y-54280562D01*
X126706090Y-54297832D01*
X126719974Y-54316552D01*
X126731956Y-54336543D01*
X126741921Y-54357613D01*
X126749773Y-54379557D01*
X126755437Y-54402166D01*
X126758856Y-54425221D01*
X126760000Y-54448500D01*
X126760000Y-54923500D01*
X126758856Y-54946779D01*
X126755437Y-54969834D01*
X126749773Y-54992443D01*
X126741921Y-55014387D01*
X126731956Y-55035457D01*
X126719974Y-55055448D01*
X126706090Y-55074168D01*
X126690438Y-55091438D01*
X126673168Y-55107090D01*
X126654448Y-55120974D01*
X126634457Y-55132956D01*
X126613387Y-55142921D01*
X126591443Y-55150773D01*
X126568834Y-55156437D01*
X126545779Y-55159856D01*
X126522500Y-55161000D01*
X125947500Y-55161000D01*
X125924221Y-55159856D01*
X125901166Y-55156437D01*
X125878557Y-55150773D01*
X125856613Y-55142921D01*
X125835543Y-55132956D01*
X125815552Y-55120974D01*
X125796832Y-55107090D01*
X125779562Y-55091438D01*
X125763910Y-55074168D01*
X125750026Y-55055448D01*
X125738044Y-55035457D01*
X125728079Y-55014387D01*
X125720227Y-54992443D01*
X125714563Y-54969834D01*
X125711144Y-54946779D01*
X125710000Y-54923500D01*
X125710000Y-54448500D01*
X125711144Y-54425221D01*
X125714563Y-54402166D01*
X125720227Y-54379557D01*
X125728079Y-54357613D01*
X125738044Y-54336543D01*
X125750026Y-54316552D01*
X125763910Y-54297832D01*
X125779562Y-54280562D01*
X125796832Y-54264910D01*
X125815552Y-54251026D01*
X125835543Y-54239044D01*
X125856613Y-54229079D01*
X125878557Y-54221227D01*
X125901166Y-54215563D01*
X125924221Y-54212144D01*
X125947500Y-54211000D01*
X126522500Y-54211000D01*
X126545779Y-54212144D01*
X126545779Y-54212144D01*
G37*
D16*
X126235000Y-54686000D03*
G04 #@! TD*
D13*
G04 #@! TO.C,R302*
G36*
X135035691Y-52954053D02*
X135056926Y-52957203D01*
X135077750Y-52962419D01*
X135097962Y-52969651D01*
X135117368Y-52978830D01*
X135135781Y-52989866D01*
X135153024Y-53002654D01*
X135168930Y-53017070D01*
X135183346Y-53032976D01*
X135196134Y-53050219D01*
X135207170Y-53068632D01*
X135216349Y-53088038D01*
X135223581Y-53108250D01*
X135228797Y-53129074D01*
X135231947Y-53150309D01*
X135233000Y-53171750D01*
X135233000Y-53609250D01*
X135231947Y-53630691D01*
X135228797Y-53651926D01*
X135223581Y-53672750D01*
X135216349Y-53692962D01*
X135207170Y-53712368D01*
X135196134Y-53730781D01*
X135183346Y-53748024D01*
X135168930Y-53763930D01*
X135153024Y-53778346D01*
X135135781Y-53791134D01*
X135117368Y-53802170D01*
X135097962Y-53811349D01*
X135077750Y-53818581D01*
X135056926Y-53823797D01*
X135035691Y-53826947D01*
X135014250Y-53828000D01*
X134501750Y-53828000D01*
X134480309Y-53826947D01*
X134459074Y-53823797D01*
X134438250Y-53818581D01*
X134418038Y-53811349D01*
X134398632Y-53802170D01*
X134380219Y-53791134D01*
X134362976Y-53778346D01*
X134347070Y-53763930D01*
X134332654Y-53748024D01*
X134319866Y-53730781D01*
X134308830Y-53712368D01*
X134299651Y-53692962D01*
X134292419Y-53672750D01*
X134287203Y-53651926D01*
X134284053Y-53630691D01*
X134283000Y-53609250D01*
X134283000Y-53171750D01*
X134284053Y-53150309D01*
X134287203Y-53129074D01*
X134292419Y-53108250D01*
X134299651Y-53088038D01*
X134308830Y-53068632D01*
X134319866Y-53050219D01*
X134332654Y-53032976D01*
X134347070Y-53017070D01*
X134362976Y-53002654D01*
X134380219Y-52989866D01*
X134398632Y-52978830D01*
X134418038Y-52969651D01*
X134438250Y-52962419D01*
X134459074Y-52957203D01*
X134480309Y-52954053D01*
X134501750Y-52953000D01*
X135014250Y-52953000D01*
X135035691Y-52954053D01*
X135035691Y-52954053D01*
G37*
D14*
X134758000Y-53390500D03*
D13*
G36*
X135035691Y-54529053D02*
X135056926Y-54532203D01*
X135077750Y-54537419D01*
X135097962Y-54544651D01*
X135117368Y-54553830D01*
X135135781Y-54564866D01*
X135153024Y-54577654D01*
X135168930Y-54592070D01*
X135183346Y-54607976D01*
X135196134Y-54625219D01*
X135207170Y-54643632D01*
X135216349Y-54663038D01*
X135223581Y-54683250D01*
X135228797Y-54704074D01*
X135231947Y-54725309D01*
X135233000Y-54746750D01*
X135233000Y-55184250D01*
X135231947Y-55205691D01*
X135228797Y-55226926D01*
X135223581Y-55247750D01*
X135216349Y-55267962D01*
X135207170Y-55287368D01*
X135196134Y-55305781D01*
X135183346Y-55323024D01*
X135168930Y-55338930D01*
X135153024Y-55353346D01*
X135135781Y-55366134D01*
X135117368Y-55377170D01*
X135097962Y-55386349D01*
X135077750Y-55393581D01*
X135056926Y-55398797D01*
X135035691Y-55401947D01*
X135014250Y-55403000D01*
X134501750Y-55403000D01*
X134480309Y-55401947D01*
X134459074Y-55398797D01*
X134438250Y-55393581D01*
X134418038Y-55386349D01*
X134398632Y-55377170D01*
X134380219Y-55366134D01*
X134362976Y-55353346D01*
X134347070Y-55338930D01*
X134332654Y-55323024D01*
X134319866Y-55305781D01*
X134308830Y-55287368D01*
X134299651Y-55267962D01*
X134292419Y-55247750D01*
X134287203Y-55226926D01*
X134284053Y-55205691D01*
X134283000Y-55184250D01*
X134283000Y-54746750D01*
X134284053Y-54725309D01*
X134287203Y-54704074D01*
X134292419Y-54683250D01*
X134299651Y-54663038D01*
X134308830Y-54643632D01*
X134319866Y-54625219D01*
X134332654Y-54607976D01*
X134347070Y-54592070D01*
X134362976Y-54577654D01*
X134380219Y-54564866D01*
X134398632Y-54553830D01*
X134418038Y-54544651D01*
X134438250Y-54537419D01*
X134459074Y-54532203D01*
X134480309Y-54529053D01*
X134501750Y-54528000D01*
X135014250Y-54528000D01*
X135035691Y-54529053D01*
X135035691Y-54529053D01*
G37*
D14*
X134758000Y-54965500D03*
G04 #@! TD*
D19*
G04 #@! TO.C,U102*
X121450000Y-30050000D03*
X121450000Y-29550000D03*
D20*
X121450000Y-29050000D03*
X121950000Y-29050000D03*
X122450000Y-29050000D03*
X122950000Y-29050000D03*
D19*
X122950000Y-29550000D03*
X122950000Y-30050000D03*
D20*
X122950000Y-30550000D03*
X122450000Y-30550000D03*
X121950000Y-30550000D03*
X121450000Y-30550000D03*
G04 #@! TD*
M02*
